STARTFONT 2.1
FONT -FontForge-miniwi-Regular-R-Normal--8-80-75-75-C-40-ISO10646-1
SIZE 8 75 75
FONTBOUNDINGBOX 4 9 0 -3
COMMENT "Generated by fontforge, http://fontforge.sourceforge.net"
COMMENT "Copyright (c) 2016, Josuah Demangeon"
STARTPROPERTIES 34
FOUNDRY "FontForge"
FAMILY_NAME "miniwi"
WEIGHT_NAME "Regular"
SLANT "R"
SETWIDTH_NAME "Normal"
ADD_STYLE_NAME ""
PIXEL_SIZE 8
POINT_SIZE 80
RESOLUTION_X 75
RESOLUTION_Y 75
SPACING "C"
AVERAGE_WIDTH 4
CHARSET_REGISTRY "ISO10646"
CHARSET_ENCODING "1"
FONTNAME_REGISTRY ""
CHARSET_COLLECTIONS "ASCII ISOLatin1Encoding ISO8859-2 ISO8859-5 ISO8859-7 ISO8859-9 ISO8859-8 ISO8859-6 ISO8859-4 ISO10646-1"
FONT_NAME "miniwi"
FACE_NAME "miniwi"
COPYRIGHT "Copyright (c) 2016, sshbio"
FONT_VERSION "1.0"
FONT_ASCENT 6
FONT_DESCENT 2
UNDERLINE_POSITION -1
UNDERLINE_THICKNESS 1
X_HEIGHT 3
CAP_HEIGHT 4
RAW_ASCENT 6
RAW_DESCENT 2
NORM_SPACE 4
RELATIVE_WEIGHT 1
RELATIVE_SETWIDTH 4
FIGURE_WIDTH 4
AVG_LOWERCASE_WIDTH 4
AVG_UPPERCASE_WIDTH 4
ENDPROPERTIES
CHARS 1687
STARTCHAR uni0000
ENCODING 0
SWIDTH 500 0
DWIDTH 4 0
BBX 3 7 0 -1
BITMAP
E0
A0
A0
A0
A0
A0
E0
ENDCHAR
STARTCHAR uni0001
ENCODING 1
SWIDTH 500 0
DWIDTH 4 0
BBX 1 1 3 0
BITMAP
00
ENDCHAR
STARTCHAR uni0002
ENCODING 2
SWIDTH 500 0
DWIDTH 4 0
BBX 1 1 0 0
BITMAP
00
ENDCHAR
STARTCHAR uni0003
ENCODING 3
SWIDTH 500 0
DWIDTH 4 0
BBX 1 1 0 0
BITMAP
00
ENDCHAR
STARTCHAR uni0004
ENCODING 4
SWIDTH 500 0
DWIDTH 4 0
BBX 1 1 0 0
BITMAP
00
ENDCHAR
STARTCHAR uni0005
ENCODING 5
SWIDTH 500 0
DWIDTH 4 0
BBX 1 1 0 0
BITMAP
00
ENDCHAR
STARTCHAR uni0006
ENCODING 6
SWIDTH 500 0
DWIDTH 4 0
BBX 1 1 0 0
BITMAP
00
ENDCHAR
STARTCHAR uni0007
ENCODING 7
SWIDTH 500 0
DWIDTH 4 0
BBX 1 1 0 0
BITMAP
00
ENDCHAR
STARTCHAR uni0008
ENCODING 8
SWIDTH 500 0
DWIDTH 4 0
BBX 1 1 0 0
BITMAP
00
ENDCHAR
STARTCHAR uni0009
ENCODING 9
SWIDTH 500 0
DWIDTH 4 0
BBX 1 1 0 0
BITMAP
00
ENDCHAR
STARTCHAR uni000A
ENCODING 10
SWIDTH 500 0
DWIDTH 4 0
BBX 1 1 0 0
BITMAP
00
ENDCHAR
STARTCHAR uni000B
ENCODING 11
SWIDTH 500 0
DWIDTH 4 0
BBX 1 1 0 0
BITMAP
00
ENDCHAR
STARTCHAR uni000C
ENCODING 12
SWIDTH 500 0
DWIDTH 4 0
BBX 1 1 0 0
BITMAP
00
ENDCHAR
STARTCHAR uni000D
ENCODING 13
SWIDTH 500 0
DWIDTH 4 0
BBX 1 1 0 0
BITMAP
00
ENDCHAR
STARTCHAR uni000E
ENCODING 14
SWIDTH 500 0
DWIDTH 4 0
BBX 1 1 0 0
BITMAP
00
ENDCHAR
STARTCHAR uni000F
ENCODING 15
SWIDTH 500 0
DWIDTH 4 0
BBX 1 1 0 0
BITMAP
00
ENDCHAR
STARTCHAR uni0010
ENCODING 16
SWIDTH 500 0
DWIDTH 4 0
BBX 1 1 0 0
BITMAP
00
ENDCHAR
STARTCHAR uni0011
ENCODING 17
SWIDTH 500 0
DWIDTH 4 0
BBX 1 1 0 0
BITMAP
00
ENDCHAR
STARTCHAR uni0012
ENCODING 18
SWIDTH 500 0
DWIDTH 4 0
BBX 1 1 0 0
BITMAP
00
ENDCHAR
STARTCHAR uni0013
ENCODING 19
SWIDTH 500 0
DWIDTH 4 0
BBX 1 1 0 0
BITMAP
00
ENDCHAR
STARTCHAR uni0014
ENCODING 20
SWIDTH 500 0
DWIDTH 4 0
BBX 1 1 0 0
BITMAP
00
ENDCHAR
STARTCHAR uni0015
ENCODING 21
SWIDTH 500 0
DWIDTH 4 0
BBX 1 1 0 0
BITMAP
00
ENDCHAR
STARTCHAR uni0016
ENCODING 22
SWIDTH 500 0
DWIDTH 4 0
BBX 1 1 0 0
BITMAP
00
ENDCHAR
STARTCHAR uni0017
ENCODING 23
SWIDTH 500 0
DWIDTH 4 0
BBX 1 1 0 0
BITMAP
00
ENDCHAR
STARTCHAR uni0018
ENCODING 24
SWIDTH 500 0
DWIDTH 4 0
BBX 1 1 0 0
BITMAP
00
ENDCHAR
STARTCHAR uni0019
ENCODING 25
SWIDTH 500 0
DWIDTH 4 0
BBX 1 1 0 0
BITMAP
00
ENDCHAR
STARTCHAR uni001A
ENCODING 26
SWIDTH 500 0
DWIDTH 4 0
BBX 1 1 0 0
BITMAP
00
ENDCHAR
STARTCHAR uni001B
ENCODING 27
SWIDTH 500 0
DWIDTH 4 0
BBX 1 1 0 0
BITMAP
00
ENDCHAR
STARTCHAR uni001C
ENCODING 28
SWIDTH 500 0
DWIDTH 4 0
BBX 1 1 0 0
BITMAP
00
ENDCHAR
STARTCHAR uni001D
ENCODING 29
SWIDTH 500 0
DWIDTH 4 0
BBX 1 1 0 0
BITMAP
00
ENDCHAR
STARTCHAR uni001E
ENCODING 30
SWIDTH 500 0
DWIDTH 4 0
BBX 1 1 0 0
BITMAP
00
ENDCHAR
STARTCHAR uni001F
ENCODING 31
SWIDTH 500 0
DWIDTH 4 0
BBX 1 1 0 0
BITMAP
00
ENDCHAR
STARTCHAR space
ENCODING 32
SWIDTH 500 0
DWIDTH 4 0
BBX 1 1 0 0
BITMAP
00
ENDCHAR
STARTCHAR exclam
ENCODING 33
SWIDTH 500 0
DWIDTH 4 0
BBX 1 5 1 0
BITMAP
80
80
80
00
80
ENDCHAR
STARTCHAR quotedbl
ENCODING 34
SWIDTH 500 0
DWIDTH 4 0
BBX 3 2 0 3
BITMAP
A0
A0
ENDCHAR
STARTCHAR numbersign
ENCODING 35
SWIDTH 500 0
DWIDTH 4 0
BBX 4 5 0 0
BITMAP
60
F0
60
F0
60
ENDCHAR
STARTCHAR dollar
ENCODING 36
SWIDTH 500 0
DWIDTH 4 0
BBX 3 6 0 -1
BITMAP
40
E0
C0
60
E0
40
ENDCHAR
STARTCHAR percent
ENCODING 37
SWIDTH 500 0
DWIDTH 4 0
BBX 3 5 0 0
BITMAP
A0
20
40
80
A0
ENDCHAR
STARTCHAR ampersand
ENCODING 38
SWIDTH 500 0
DWIDTH 4 0
BBX 3 5 0 0
BITMAP
40
A0
40
A0
60
ENDCHAR
STARTCHAR quotesingle
ENCODING 39
SWIDTH 500 0
DWIDTH 4 0
BBX 1 2 1 3
BITMAP
80
80
ENDCHAR
STARTCHAR parenleft
ENCODING 40
SWIDTH 500 0
DWIDTH 4 0
BBX 2 7 1 -1
BITMAP
40
80
80
80
80
80
40
ENDCHAR
STARTCHAR parenright
ENCODING 41
SWIDTH 500 0
DWIDTH 4 0
BBX 2 7 1 -1
BITMAP
80
40
40
40
40
40
80
ENDCHAR
STARTCHAR asterisk
ENCODING 42
SWIDTH 500 0
DWIDTH 4 0
BBX 3 5 0 0
BITMAP
A0
40
E0
40
A0
ENDCHAR
STARTCHAR plus
ENCODING 43
SWIDTH 500 0
DWIDTH 4 0
BBX 3 3 0 1
BITMAP
40
E0
40
ENDCHAR
STARTCHAR comma
ENCODING 44
SWIDTH 500 0
DWIDTH 4 0
BBX 2 2 0 -1
BITMAP
40
80
ENDCHAR
STARTCHAR hyphen
ENCODING 45
SWIDTH 500 0
DWIDTH 4 0
BBX 3 1 0 2
BITMAP
E0
ENDCHAR
STARTCHAR period
ENCODING 46
SWIDTH 500 0
DWIDTH 4 0
BBX 1 1 1 0
BITMAP
80
ENDCHAR
STARTCHAR slash
ENCODING 47
SWIDTH 500 0
DWIDTH 4 0
BBX 3 7 0 -1
BITMAP
20
20
40
40
40
80
80
ENDCHAR
STARTCHAR zero
ENCODING 48
SWIDTH 500 0
DWIDTH 4 0
BBX 3 5 0 0
BITMAP
E0
E0
A0
E0
E0
ENDCHAR
STARTCHAR one
ENCODING 49
SWIDTH 500 0
DWIDTH 4 0
BBX 3 5 0 0
BITMAP
40
C0
40
40
E0
ENDCHAR
STARTCHAR two
ENCODING 50
SWIDTH 500 0
DWIDTH 4 0
BBX 3 5 0 0
BITMAP
E0
20
E0
80
E0
ENDCHAR
STARTCHAR three
ENCODING 51
SWIDTH 500 0
DWIDTH 4 0
BBX 3 5 0 0
BITMAP
E0
20
E0
20
E0
ENDCHAR
STARTCHAR four
ENCODING 52
SWIDTH 500 0
DWIDTH 4 0
BBX 3 5 0 0
BITMAP
A0
A0
E0
20
20
ENDCHAR
STARTCHAR five
ENCODING 53
SWIDTH 500 0
DWIDTH 4 0
BBX 3 5 0 0
BITMAP
E0
80
E0
20
E0
ENDCHAR
STARTCHAR six
ENCODING 54
SWIDTH 500 0
DWIDTH 4 0
BBX 3 5 0 0
BITMAP
E0
80
E0
A0
E0
ENDCHAR
STARTCHAR seven
ENCODING 55
SWIDTH 500 0
DWIDTH 4 0
BBX 3 5 0 0
BITMAP
E0
20
20
20
20
ENDCHAR
STARTCHAR eight
ENCODING 56
SWIDTH 500 0
DWIDTH 4 0
BBX 3 5 0 0
BITMAP
E0
A0
E0
A0
E0
ENDCHAR
STARTCHAR nine
ENCODING 57
SWIDTH 500 0
DWIDTH 4 0
BBX 3 5 0 0
BITMAP
E0
A0
E0
20
E0
ENDCHAR
STARTCHAR colon
ENCODING 58
SWIDTH 500 0
DWIDTH 4 0
BBX 1 4 1 0
BITMAP
80
00
00
80
ENDCHAR
STARTCHAR semicolon
ENCODING 59
SWIDTH 500 0
DWIDTH 4 0
BBX 2 5 0 -1
BITMAP
40
00
00
40
80
ENDCHAR
STARTCHAR less
ENCODING 60
SWIDTH 500 0
DWIDTH 4 0
BBX 3 5 0 0
BITMAP
20
40
80
40
20
ENDCHAR
STARTCHAR equal
ENCODING 61
SWIDTH 1000 0
DWIDTH 4 0
BBX 3 3 0 1
BITMAP
E0
00
E0
ENDCHAR
STARTCHAR greater
ENCODING 62
SWIDTH 500 0
DWIDTH 4 0
BBX 3 5 0 0
BITMAP
80
40
20
40
80
ENDCHAR
STARTCHAR question
ENCODING 63
SWIDTH 500 0
DWIDTH 4 0
BBX 3 5 0 0
BITMAP
E0
20
40
00
40
ENDCHAR
STARTCHAR at
ENCODING 64
SWIDTH 500 0
DWIDTH 4 0
BBX 3 5 0 0
BITMAP
C0
20
A0
A0
40
ENDCHAR
STARTCHAR A
ENCODING 65
SWIDTH 500 0
DWIDTH 4 0
BBX 3 5 0 0
BITMAP
E0
A0
A0
E0
A0
ENDCHAR
STARTCHAR B
ENCODING 66
SWIDTH 500 0
DWIDTH 4 0
BBX 3 5 0 0
BITMAP
C0
A0
C0
A0
C0
ENDCHAR
STARTCHAR C
ENCODING 67
SWIDTH 500 0
DWIDTH 4 0
BBX 3 5 0 0
BITMAP
E0
80
80
80
E0
ENDCHAR
STARTCHAR D
ENCODING 68
SWIDTH 500 0
DWIDTH 4 0
BBX 3 5 0 0
BITMAP
C0
A0
A0
A0
C0
ENDCHAR
STARTCHAR E
ENCODING 69
SWIDTH 500 0
DWIDTH 4 0
BBX 3 5 0 0
BITMAP
E0
80
E0
80
E0
ENDCHAR
STARTCHAR F
ENCODING 70
SWIDTH 500 0
DWIDTH 4 0
BBX 3 5 0 0
BITMAP
E0
80
E0
80
80
ENDCHAR
STARTCHAR G
ENCODING 71
SWIDTH 500 0
DWIDTH 4 0
BBX 3 5 0 0
BITMAP
E0
80
80
A0
E0
ENDCHAR
STARTCHAR H
ENCODING 72
SWIDTH 500 0
DWIDTH 4 0
BBX 3 5 0 0
BITMAP
A0
A0
E0
A0
A0
ENDCHAR
STARTCHAR I
ENCODING 73
SWIDTH 500 0
DWIDTH 4 0
BBX 3 5 0 0
BITMAP
E0
40
40
40
E0
ENDCHAR
STARTCHAR J
ENCODING 74
SWIDTH 500 0
DWIDTH 4 0
BBX 3 5 0 0
BITMAP
20
20
20
A0
E0
ENDCHAR
STARTCHAR K
ENCODING 75
SWIDTH 500 0
DWIDTH 4 0
BBX 3 5 0 0
BITMAP
A0
A0
C0
A0
A0
ENDCHAR
STARTCHAR L
ENCODING 76
SWIDTH 500 0
DWIDTH 4 0
BBX 3 5 0 0
BITMAP
80
80
80
80
E0
ENDCHAR
STARTCHAR M
ENCODING 77
SWIDTH 500 0
DWIDTH 4 0
BBX 3 5 0 0
BITMAP
E0
E0
E0
A0
A0
ENDCHAR
STARTCHAR N
ENCODING 78
SWIDTH 500 0
DWIDTH 4 0
BBX 3 5 0 0
BITMAP
A0
E0
E0
E0
A0
ENDCHAR
STARTCHAR O
ENCODING 79
SWIDTH 500 0
DWIDTH 4 0
BBX 3 5 0 0
BITMAP
E0
A0
A0
A0
E0
ENDCHAR
STARTCHAR P
ENCODING 80
SWIDTH 500 0
DWIDTH 4 0
BBX 3 5 0 0
BITMAP
E0
A0
E0
80
80
ENDCHAR
STARTCHAR Q
ENCODING 81
SWIDTH 500 0
DWIDTH 4 0
BBX 3 6 0 -1
BITMAP
E0
A0
A0
E0
E0
20
ENDCHAR
STARTCHAR R
ENCODING 82
SWIDTH 500 0
DWIDTH 4 0
BBX 3 5 0 0
BITMAP
E0
A0
C0
A0
A0
ENDCHAR
STARTCHAR S
ENCODING 83
SWIDTH 500 0
DWIDTH 4 0
BBX 3 5 0 0
BITMAP
E0
80
40
20
E0
ENDCHAR
STARTCHAR T
ENCODING 84
SWIDTH 500 0
DWIDTH 4 0
BBX 3 5 0 0
BITMAP
E0
40
40
40
40
ENDCHAR
STARTCHAR U
ENCODING 85
SWIDTH 500 0
DWIDTH 4 0
BBX 3 5 0 0
BITMAP
A0
A0
A0
A0
E0
ENDCHAR
STARTCHAR V
ENCODING 86
SWIDTH 500 0
DWIDTH 4 0
BBX 3 5 0 0
BITMAP
A0
A0
A0
A0
40
ENDCHAR
STARTCHAR W
ENCODING 87
SWIDTH 500 0
DWIDTH 4 0
BBX 3 5 0 0
BITMAP
A0
A0
E0
E0
E0
ENDCHAR
STARTCHAR X
ENCODING 88
SWIDTH 500 0
DWIDTH 4 0
BBX 3 5 0 0
BITMAP
A0
A0
40
A0
A0
ENDCHAR
STARTCHAR Y
ENCODING 89
SWIDTH 500 0
DWIDTH 4 0
BBX 3 5 0 0
BITMAP
A0
A0
40
40
40
ENDCHAR
STARTCHAR Z
ENCODING 90
SWIDTH 500 0
DWIDTH 4 0
BBX 3 5 0 0
BITMAP
E0
20
40
80
E0
ENDCHAR
STARTCHAR bracketleft
ENCODING 91
SWIDTH 500 0
DWIDTH 4 0
BBX 2 7 1 -1
BITMAP
C0
80
80
80
80
80
C0
ENDCHAR
STARTCHAR backslash
ENCODING 92
SWIDTH 500 0
DWIDTH 4 0
BBX 3 7 0 -1
BITMAP
80
80
40
40
40
20
20
ENDCHAR
STARTCHAR bracketright
ENCODING 93
SWIDTH 500 0
DWIDTH 4 0
BBX 2 7 1 -1
BITMAP
C0
40
40
40
40
40
C0
ENDCHAR
STARTCHAR asciicircum
ENCODING 94
SWIDTH 500 0
DWIDTH 4 0
BBX 3 2 0 4
BITMAP
40
A0
ENDCHAR
STARTCHAR underscore
ENCODING 95
SWIDTH 500 0
DWIDTH 4 0
BBX 4 1 0 -2
BITMAP
F0
ENDCHAR
STARTCHAR grave
ENCODING 96
SWIDTH 500 0
DWIDTH 4 0
BBX 3 3 0 3
BITMAP
80
40
20
ENDCHAR
STARTCHAR a
ENCODING 97
SWIDTH 500 0
DWIDTH 4 0
BBX 3 4 0 0
BITMAP
E0
20
E0
E0
ENDCHAR
STARTCHAR b
ENCODING 98
SWIDTH 500 0
DWIDTH 4 0
BBX 3 6 0 0
BITMAP
80
80
E0
A0
A0
E0
ENDCHAR
STARTCHAR c
ENCODING 99
SWIDTH 500 0
DWIDTH 4 0
BBX 3 4 0 0
BITMAP
E0
80
80
E0
ENDCHAR
STARTCHAR d
ENCODING 100
SWIDTH 500 0
DWIDTH 4 0
BBX 3 6 0 0
BITMAP
20
20
E0
A0
A0
E0
ENDCHAR
STARTCHAR e
ENCODING 101
SWIDTH 500 0
DWIDTH 4 0
BBX 3 4 0 0
BITMAP
E0
E0
80
E0
ENDCHAR
STARTCHAR f
ENCODING 102
SWIDTH 500 0
DWIDTH 4 0
BBX 3 6 0 0
BITMAP
60
40
E0
40
40
40
ENDCHAR
STARTCHAR g
ENCODING 103
SWIDTH 500 0
DWIDTH 4 0
BBX 3 6 0 -2
BITMAP
E0
A0
A0
E0
20
E0
ENDCHAR
STARTCHAR h
ENCODING 104
SWIDTH 500 0
DWIDTH 4 0
BBX 3 6 0 0
BITMAP
80
80
E0
A0
A0
A0
ENDCHAR
STARTCHAR i
ENCODING 105
SWIDTH 500 0
DWIDTH 4 0
BBX 1 6 1 0
BITMAP
80
00
80
80
80
80
ENDCHAR
STARTCHAR j
ENCODING 106
SWIDTH 500 0
DWIDTH 4 0
BBX 2 8 0 -2
BITMAP
40
00
40
40
40
40
40
C0
ENDCHAR
STARTCHAR k
ENCODING 107
SWIDTH 500 0
DWIDTH 4 0
BBX 3 6 0 0
BITMAP
80
80
A0
C0
C0
A0
ENDCHAR
STARTCHAR l
ENCODING 108
SWIDTH 500 0
DWIDTH 4 0
BBX 2 6 1 0
BITMAP
80
80
80
80
80
C0
ENDCHAR
STARTCHAR m
ENCODING 109
SWIDTH 500 0
DWIDTH 4 0
BBX 3 4 0 0
BITMAP
E0
E0
E0
A0
ENDCHAR
STARTCHAR n
ENCODING 110
SWIDTH 500 0
DWIDTH 4 0
BBX 3 4 0 0
BITMAP
E0
A0
A0
A0
ENDCHAR
STARTCHAR o
ENCODING 111
SWIDTH 500 0
DWIDTH 4 0
BBX 3 4 0 0
BITMAP
E0
A0
A0
E0
ENDCHAR
STARTCHAR p
ENCODING 112
SWIDTH 500 0
DWIDTH 4 0
BBX 3 6 0 -2
BITMAP
E0
A0
A0
E0
80
80
ENDCHAR
STARTCHAR q
ENCODING 113
SWIDTH 500 0
DWIDTH 4 0
BBX 3 6 0 -2
BITMAP
E0
A0
A0
E0
20
20
ENDCHAR
STARTCHAR r
ENCODING 114
SWIDTH 500 0
DWIDTH 4 0
BBX 3 4 0 0
BITMAP
E0
80
80
80
ENDCHAR
STARTCHAR s
ENCODING 115
SWIDTH 500 0
DWIDTH 4 0
BBX 3 4 0 0
BITMAP
E0
80
20
E0
ENDCHAR
STARTCHAR t
ENCODING 116
SWIDTH 500 0
DWIDTH 4 0
BBX 3 5 0 0
BITMAP
40
E0
40
40
60
ENDCHAR
STARTCHAR u
ENCODING 117
SWIDTH 500 0
DWIDTH 4 0
BBX 3 4 0 0
BITMAP
A0
A0
A0
E0
ENDCHAR
STARTCHAR v
ENCODING 118
SWIDTH 500 0
DWIDTH 4 0
BBX 3 4 0 0
BITMAP
A0
A0
A0
40
ENDCHAR
STARTCHAR w
ENCODING 119
SWIDTH 500 0
DWIDTH 4 0
BBX 3 4 0 0
BITMAP
A0
E0
E0
E0
ENDCHAR
STARTCHAR x
ENCODING 120
SWIDTH 500 0
DWIDTH 4 0
BBX 3 4 0 0
BITMAP
A0
40
40
A0
ENDCHAR
STARTCHAR y
ENCODING 121
SWIDTH 500 0
DWIDTH 4 0
BBX 3 6 0 -2
BITMAP
A0
A0
A0
E0
20
E0
ENDCHAR
STARTCHAR z
ENCODING 122
SWIDTH 500 0
DWIDTH 4 0
BBX 3 4 0 0
BITMAP
E0
20
80
E0
ENDCHAR
STARTCHAR braceleft
ENCODING 123
SWIDTH 500 0
DWIDTH 4 0
BBX 3 7 0 -1
BITMAP
60
40
40
80
40
40
60
ENDCHAR
STARTCHAR bar
ENCODING 124
SWIDTH 500 0
DWIDTH 4 0
BBX 1 7 1 -1
BITMAP
80
80
80
80
80
80
80
ENDCHAR
STARTCHAR braceright
ENCODING 125
SWIDTH 500 0
DWIDTH 4 0
BBX 3 7 0 -1
BITMAP
C0
40
40
20
40
40
C0
ENDCHAR
STARTCHAR asciitilde
ENCODING 126
SWIDTH 500 0
DWIDTH 4 0
BBX 3 2 0 1
BITMAP
C0
60
ENDCHAR
STARTCHAR uni007F
ENCODING 127
SWIDTH 500 0
DWIDTH 4 0
BBX 1 1 0 0
BITMAP
00
ENDCHAR
STARTCHAR uni0080
ENCODING 128
SWIDTH 500 0
DWIDTH 4 0
BBX 1 1 0 0
BITMAP
00
ENDCHAR
STARTCHAR uni0081
ENCODING 129
SWIDTH 500 0
DWIDTH 4 0
BBX 1 1 0 0
BITMAP
00
ENDCHAR
STARTCHAR uni0082
ENCODING 130
SWIDTH 500 0
DWIDTH 4 0
BBX 1 1 0 0
BITMAP
00
ENDCHAR
STARTCHAR uni0083
ENCODING 131
SWIDTH 500 0
DWIDTH 4 0
BBX 1 1 0 0
BITMAP
00
ENDCHAR
STARTCHAR uni0084
ENCODING 132
SWIDTH 500 0
DWIDTH 4 0
BBX 1 1 0 0
BITMAP
00
ENDCHAR
STARTCHAR uni0085
ENCODING 133
SWIDTH 500 0
DWIDTH 4 0
BBX 1 1 0 0
BITMAP
00
ENDCHAR
STARTCHAR uni0086
ENCODING 134
SWIDTH 500 0
DWIDTH 4 0
BBX 1 1 0 0
BITMAP
00
ENDCHAR
STARTCHAR uni0087
ENCODING 135
SWIDTH 500 0
DWIDTH 4 0
BBX 1 1 0 0
BITMAP
00
ENDCHAR
STARTCHAR uni0088
ENCODING 136
SWIDTH 500 0
DWIDTH 4 0
BBX 1 1 0 0
BITMAP
00
ENDCHAR
STARTCHAR uni0089
ENCODING 137
SWIDTH 500 0
DWIDTH 4 0
BBX 1 1 0 0
BITMAP
00
ENDCHAR
STARTCHAR uni008A
ENCODING 138
SWIDTH 500 0
DWIDTH 4 0
BBX 1 1 0 0
BITMAP
00
ENDCHAR
STARTCHAR uni008B
ENCODING 139
SWIDTH 500 0
DWIDTH 4 0
BBX 1 1 0 0
BITMAP
00
ENDCHAR
STARTCHAR uni008C
ENCODING 140
SWIDTH 500 0
DWIDTH 4 0
BBX 1 1 0 0
BITMAP
00
ENDCHAR
STARTCHAR uni008D
ENCODING 141
SWIDTH 500 0
DWIDTH 4 0
BBX 1 1 0 0
BITMAP
00
ENDCHAR
STARTCHAR uni008E
ENCODING 142
SWIDTH 500 0
DWIDTH 4 0
BBX 1 1 0 0
BITMAP
00
ENDCHAR
STARTCHAR uni008F
ENCODING 143
SWIDTH 500 0
DWIDTH 4 0
BBX 1 1 0 0
BITMAP
00
ENDCHAR
STARTCHAR uni0090
ENCODING 144
SWIDTH 500 0
DWIDTH 4 0
BBX 1 1 0 0
BITMAP
00
ENDCHAR
STARTCHAR uni0091
ENCODING 145
SWIDTH 500 0
DWIDTH 4 0
BBX 1 1 0 0
BITMAP
00
ENDCHAR
STARTCHAR uni0092
ENCODING 146
SWIDTH 500 0
DWIDTH 4 0
BBX 1 1 0 0
BITMAP
00
ENDCHAR
STARTCHAR uni0093
ENCODING 147
SWIDTH 500 0
DWIDTH 4 0
BBX 1 1 0 0
BITMAP
00
ENDCHAR
STARTCHAR uni0094
ENCODING 148
SWIDTH 500 0
DWIDTH 4 0
BBX 1 1 0 0
BITMAP
00
ENDCHAR
STARTCHAR uni0095
ENCODING 149
SWIDTH 500 0
DWIDTH 4 0
BBX 1 1 0 0
BITMAP
00
ENDCHAR
STARTCHAR uni0096
ENCODING 150
SWIDTH 500 0
DWIDTH 4 0
BBX 1 1 0 0
BITMAP
00
ENDCHAR
STARTCHAR uni0097
ENCODING 151
SWIDTH 500 0
DWIDTH 4 0
BBX 1 1 0 0
BITMAP
00
ENDCHAR
STARTCHAR uni0098
ENCODING 152
SWIDTH 500 0
DWIDTH 4 0
BBX 1 1 0 0
BITMAP
00
ENDCHAR
STARTCHAR uni0099
ENCODING 153
SWIDTH 500 0
DWIDTH 4 0
BBX 1 1 0 0
BITMAP
00
ENDCHAR
STARTCHAR uni009A
ENCODING 154
SWIDTH 500 0
DWIDTH 4 0
BBX 1 1 0 0
BITMAP
00
ENDCHAR
STARTCHAR uni009B
ENCODING 155
SWIDTH 500 0
DWIDTH 4 0
BBX 1 1 0 0
BITMAP
00
ENDCHAR
STARTCHAR uni009C
ENCODING 156
SWIDTH 500 0
DWIDTH 4 0
BBX 1 1 0 0
BITMAP
00
ENDCHAR
STARTCHAR uni009D
ENCODING 157
SWIDTH 500 0
DWIDTH 4 0
BBX 1 1 0 0
BITMAP
00
ENDCHAR
STARTCHAR uni009E
ENCODING 158
SWIDTH 500 0
DWIDTH 4 0
BBX 1 1 0 0
BITMAP
00
ENDCHAR
STARTCHAR uni009F
ENCODING 159
SWIDTH 500 0
DWIDTH 4 0
BBX 1 1 0 0
BITMAP
00
ENDCHAR
STARTCHAR uni00A0
ENCODING 160
SWIDTH 500 0
DWIDTH 4 0
BBX 1 1 0 0
BITMAP
00
ENDCHAR
STARTCHAR exclamdown
ENCODING 161
SWIDTH 500 0
DWIDTH 4 0
BBX 1 5 1 -1
BITMAP
80
00
80
80
80
ENDCHAR
STARTCHAR cent
ENCODING 162
SWIDTH 500 0
DWIDTH 4 0
BBX 3 6 0 -1
BITMAP
40
E0
80
80
E0
40
ENDCHAR
STARTCHAR sterling
ENCODING 163
SWIDTH 500 0
DWIDTH 4 0
BBX 3 5 0 0
BITMAP
60
40
E0
40
E0
ENDCHAR
STARTCHAR currency
ENCODING 164
SWIDTH 500 0
DWIDTH 4 0
BBX 3 7 0 -2
BITMAP
A0
40
E0
A0
E0
40
A0
ENDCHAR
STARTCHAR yen
ENCODING 165
SWIDTH 500 0
DWIDTH 4 0
BBX 3 5 0 0
BITMAP
A0
A0
40
E0
40
ENDCHAR
STARTCHAR brokenbar
ENCODING 166
SWIDTH 500 0
DWIDTH 4 0
BBX 1 7 1 -1
BITMAP
80
80
80
00
80
80
80
ENDCHAR
STARTCHAR section
ENCODING 167
SWIDTH 500 0
DWIDTH 4 0
BBX 3 7 0 -2
BITMAP
60
80
C0
A0
60
20
C0
ENDCHAR
STARTCHAR dieresis
ENCODING 168
SWIDTH 500 0
DWIDTH 4 0
BBX 3 1 0 4
BITMAP
A0
ENDCHAR
STARTCHAR copyright
ENCODING 169
SWIDTH 500 0
DWIDTH 4 0
BBX 4 7 0 -2
BITMAP
60
90
F0
D0
F0
90
60
ENDCHAR
STARTCHAR ordfeminine
ENCODING 170
SWIDTH 500 0
DWIDTH 4 0
BBX 3 6 0 0
BITMAP
E0
20
E0
E0
00
E0
ENDCHAR
STARTCHAR guillemotleft
ENCODING 171
SWIDTH 500 0
DWIDTH 4 0
BBX 4 5 0 -1
BITMAP
50
A0
A0
A0
50
ENDCHAR
STARTCHAR logicalnot
ENCODING 172
SWIDTH 500 0
DWIDTH 4 0
BBX 3 2 0 1
BITMAP
E0
20
ENDCHAR
STARTCHAR uni00AD
ENCODING 173
SWIDTH 500 0
DWIDTH 4 0
BBX 2 1 1 2
BITMAP
C0
ENDCHAR
STARTCHAR registered
ENCODING 174
SWIDTH 500 0
DWIDTH 4 0
BBX 4 7 0 -2
BITMAP
60
90
F0
D0
D0
90
60
ENDCHAR
STARTCHAR macron
ENCODING 175
SWIDTH 500 0
DWIDTH 4 0
BBX 2 1 1 4
BITMAP
C0
ENDCHAR
STARTCHAR degree
ENCODING 176
SWIDTH 500 0
DWIDTH 4 0
BBX 3 3 0 3
BITMAP
E0
A0
E0
ENDCHAR
STARTCHAR plusminus
ENCODING 177
SWIDTH 500 0
DWIDTH 4 0
BBX 3 5 0 -1
BITMAP
40
E0
40
00
E0
ENDCHAR
STARTCHAR uni00B2
ENCODING 178
SWIDTH 500 0
DWIDTH 4 0
BBX 3 5 0 1
BITMAP
E0
20
E0
80
E0
ENDCHAR
STARTCHAR uni00B3
ENCODING 179
SWIDTH 500 0
DWIDTH 4 0
BBX 3 5 0 1
BITMAP
E0
20
E0
20
E0
ENDCHAR
STARTCHAR acute
ENCODING 180
SWIDTH 500 0
DWIDTH 4 0
BBX 3 3 0 3
BITMAP
20
40
80
ENDCHAR
STARTCHAR mu
ENCODING 181
SWIDTH 500 0
DWIDTH 4 0
BBX 3 6 0 -2
BITMAP
A0
A0
A0
E0
80
80
ENDCHAR
STARTCHAR paragraph
ENCODING 182
SWIDTH 500 0
DWIDTH 4 0
BBX 3 5 0 0
BITMAP
E0
E0
E0
20
20
ENDCHAR
STARTCHAR periodcentered
ENCODING 183
SWIDTH 500 0
DWIDTH 4 0
BBX 1 1 1 1
BITMAP
80
ENDCHAR
STARTCHAR cedilla
ENCODING 184
SWIDTH 500 0
DWIDTH 4 0
BBX 2 2 0 -2
BITMAP
40
C0
ENDCHAR
STARTCHAR uni00B9
ENCODING 185
SWIDTH 500 0
DWIDTH 4 0
BBX 3 5 0 1
BITMAP
40
C0
40
40
E0
ENDCHAR
STARTCHAR ordmasculine
ENCODING 186
SWIDTH 500 0
DWIDTH 4 0
BBX 3 5 0 0
BITMAP
E0
A0
E0
00
E0
ENDCHAR
STARTCHAR guillemotright
ENCODING 187
SWIDTH 500 0
DWIDTH 4 0
BBX 4 5 0 0
BITMAP
A0
50
50
50
A0
ENDCHAR
STARTCHAR onequarter
ENCODING 188
SWIDTH 500 0
DWIDTH 4 0
BBX 4 6 0 0
BITMAP
80
80
80
50
70
10
ENDCHAR
STARTCHAR onehalf
ENCODING 189
SWIDTH 500 0
DWIDTH 4 0
BBX 4 6 0 0
BITMAP
80
80
B0
10
20
30
ENDCHAR
STARTCHAR threequarters
ENCODING 190
SWIDTH 500 0
DWIDTH 4 0
BBX 4 6 0 0
BITMAP
C0
40
F0
70
F0
10
ENDCHAR
STARTCHAR questiondown
ENCODING 191
SWIDTH 500 0
DWIDTH 4 0
BBX 3 5 0 -1
BITMAP
40
00
40
80
E0
ENDCHAR
STARTCHAR Agrave
ENCODING 192
SWIDTH 500 0
DWIDTH 4 0
BBX 3 6 0 0
BITMAP
C0
E0
A0
A0
E0
A0
ENDCHAR
STARTCHAR Aacute
ENCODING 193
SWIDTH 500 0
DWIDTH 4 0
BBX 3 6 0 0
BITMAP
60
E0
A0
A0
E0
A0
ENDCHAR
STARTCHAR Acircumflex
ENCODING 194
SWIDTH 500 0
DWIDTH 4 0
BBX 3 6 0 0
BITMAP
E0
E0
A0
A0
E0
A0
ENDCHAR
STARTCHAR Atilde
ENCODING 195
SWIDTH 500 0
DWIDTH 4 0
BBX 3 6 0 0
BITMAP
60
C0
E0
A0
E0
A0
ENDCHAR
STARTCHAR Adieresis
ENCODING 196
SWIDTH 500 0
DWIDTH 4 0
BBX 3 6 0 0
BITMAP
A0
E0
A0
A0
E0
A0
ENDCHAR
STARTCHAR Aring
ENCODING 197
SWIDTH 500 0
DWIDTH 4 0
BBX 3 6 0 0
BITMAP
40
A0
E0
A0
E0
A0
ENDCHAR
STARTCHAR AE
ENCODING 198
SWIDTH 500 0
DWIDTH 4 0
BBX 4 5 0 0
BITMAP
F0
A0
F0
A0
B0
ENDCHAR
STARTCHAR Ccedilla
ENCODING 199
SWIDTH 500 0
DWIDTH 4 0
BBX 3 7 0 -2
BITMAP
E0
80
80
80
E0
40
80
ENDCHAR
STARTCHAR Egrave
ENCODING 200
SWIDTH 500 0
DWIDTH 4 0
BBX 3 6 0 0
BITMAP
C0
E0
80
E0
80
E0
ENDCHAR
STARTCHAR Eacute
ENCODING 201
SWIDTH 500 0
DWIDTH 4 0
BBX 3 6 0 0
BITMAP
60
E0
80
E0
80
E0
ENDCHAR
STARTCHAR Ecircumflex
ENCODING 202
SWIDTH 500 0
DWIDTH 4 0
BBX 3 6 0 0
BITMAP
E0
E0
80
E0
80
E0
ENDCHAR
STARTCHAR Edieresis
ENCODING 203
SWIDTH 500 0
DWIDTH 4 0
BBX 3 6 0 0
BITMAP
A0
E0
80
E0
80
E0
ENDCHAR
STARTCHAR Igrave
ENCODING 204
SWIDTH 500 0
DWIDTH 4 0
BBX 3 6 0 0
BITMAP
C0
E0
40
40
40
E0
ENDCHAR
STARTCHAR Iacute
ENCODING 205
SWIDTH 500 0
DWIDTH 4 0
BBX 3 6 0 0
BITMAP
60
E0
40
40
40
E0
ENDCHAR
STARTCHAR Icircumflex
ENCODING 206
SWIDTH 500 0
DWIDTH 4 0
BBX 3 6 0 0
BITMAP
E0
E0
40
40
40
E0
ENDCHAR
STARTCHAR Idieresis
ENCODING 207
SWIDTH 500 0
DWIDTH 4 0
BBX 3 6 0 0
BITMAP
A0
E0
40
40
40
E0
ENDCHAR
STARTCHAR Eth
ENCODING 208
SWIDTH 500 0
DWIDTH 4 0
BBX 3 5 0 0
BITMAP
C0
A0
E0
A0
C0
ENDCHAR
STARTCHAR Ntilde
ENCODING 209
SWIDTH 500 0
DWIDTH 4 0
BBX 3 6 0 0
BITMAP
E0
A0
E0
E0
E0
A0
ENDCHAR
STARTCHAR Ograve
ENCODING 210
SWIDTH 500 0
DWIDTH 4 0
BBX 3 6 0 0
BITMAP
C0
E0
A0
A0
A0
E0
ENDCHAR
STARTCHAR Oacute
ENCODING 211
SWIDTH 500 0
DWIDTH 4 0
BBX 3 6 0 0
BITMAP
60
E0
A0
A0
A0
E0
ENDCHAR
STARTCHAR Ocircumflex
ENCODING 212
SWIDTH 500 0
DWIDTH 4 0
BBX 3 6 0 0
BITMAP
E0
E0
A0
A0
A0
E0
ENDCHAR
STARTCHAR Otilde
ENCODING 213
SWIDTH 500 0
DWIDTH 4 0
BBX 3 6 0 0
BITMAP
C0
E0
A0
A0
A0
E0
ENDCHAR
STARTCHAR Odieresis
ENCODING 214
SWIDTH 500 0
DWIDTH 4 0
BBX 3 6 0 0
BITMAP
A0
E0
A0
A0
A0
E0
ENDCHAR
STARTCHAR multiply
ENCODING 215
SWIDTH 500 0
DWIDTH 4 0
BBX 3 3 0 1
BITMAP
A0
40
A0
ENDCHAR
STARTCHAR Oslash
ENCODING 216
SWIDTH 500 0
DWIDTH 4 0
BBX 3 7 0 -1
BITMAP
20
E0
A0
E0
A0
E0
80
ENDCHAR
STARTCHAR Ugrave
ENCODING 217
SWIDTH 500 0
DWIDTH 4 0
BBX 3 6 0 0
BITMAP
C0
00
A0
A0
A0
E0
ENDCHAR
STARTCHAR Uacute
ENCODING 218
SWIDTH 500 0
DWIDTH 4 0
BBX 3 6 0 0
BITMAP
60
00
A0
A0
A0
E0
ENDCHAR
STARTCHAR Ucircumflex
ENCODING 219
SWIDTH 500 0
DWIDTH 4 0
BBX 3 6 0 0
BITMAP
E0
00
A0
A0
A0
E0
ENDCHAR
STARTCHAR Udieresis
ENCODING 220
SWIDTH 500 0
DWIDTH 4 0
BBX 3 6 0 0
BITMAP
A0
00
A0
A0
A0
E0
ENDCHAR
STARTCHAR Yacute
ENCODING 221
SWIDTH 500 0
DWIDTH 4 0
BBX 3 6 0 0
BITMAP
60
00
A0
A0
40
40
ENDCHAR
STARTCHAR Thorn
ENCODING 222
SWIDTH 500 0
DWIDTH 4 0
BBX 3 7 0 -2
BITMAP
80
80
E0
A0
E0
80
80
ENDCHAR
STARTCHAR germandbls
ENCODING 223
SWIDTH 500 0
DWIDTH 4 0
BBX 3 5 0 0
BITMAP
40
A0
C0
A0
C0
ENDCHAR
STARTCHAR agrave
ENCODING 224
SWIDTH 500 0
DWIDTH 4 0
BBX 3 6 0 0
BITMAP
C0
00
E0
20
E0
E0
ENDCHAR
STARTCHAR aacute
ENCODING 225
SWIDTH 500 0
DWIDTH 4 0
BBX 3 6 0 0
BITMAP
60
00
E0
20
E0
E0
ENDCHAR
STARTCHAR acircumflex
ENCODING 226
SWIDTH 500 0
DWIDTH 4 0
BBX 3 6 0 0
BITMAP
E0
00
E0
20
E0
E0
ENDCHAR
STARTCHAR atilde
ENCODING 227
SWIDTH 500 0
DWIDTH 4 0
BBX 3 6 0 0
BITMAP
C0
60
E0
20
E0
E0
ENDCHAR
STARTCHAR adieresis
ENCODING 228
SWIDTH 500 0
DWIDTH 4 0
BBX 3 6 0 0
BITMAP
A0
00
E0
20
E0
E0
ENDCHAR
STARTCHAR aring
ENCODING 229
SWIDTH 500 0
DWIDTH 4 0
BBX 3 6 0 0
BITMAP
40
A0
E0
20
E0
E0
ENDCHAR
STARTCHAR ae
ENCODING 230
SWIDTH 500 0
DWIDTH 4 0
BBX 4 4 0 0
BITMAP
F0
30
E0
F0
ENDCHAR
STARTCHAR ccedilla
ENCODING 231
SWIDTH 500 0
DWIDTH 4 0
BBX 3 6 0 -2
BITMAP
E0
80
80
E0
40
80
ENDCHAR
STARTCHAR egrave
ENCODING 232
SWIDTH 500 0
DWIDTH 4 0
BBX 3 6 0 0
BITMAP
C0
00
E0
E0
80
E0
ENDCHAR
STARTCHAR eacute
ENCODING 233
SWIDTH 500 0
DWIDTH 4 0
BBX 3 6 0 0
BITMAP
60
00
E0
E0
80
E0
ENDCHAR
STARTCHAR ecircumflex
ENCODING 234
SWIDTH 500 0
DWIDTH 4 0
BBX 3 6 0 0
BITMAP
E0
00
E0
E0
80
E0
ENDCHAR
STARTCHAR edieresis
ENCODING 235
SWIDTH 500 0
DWIDTH 4 0
BBX 3 6 0 0
BITMAP
A0
00
E0
E0
80
E0
ENDCHAR
STARTCHAR igrave
ENCODING 236
SWIDTH 500 0
DWIDTH 4 0
BBX 2 6 0 0
BITMAP
C0
00
40
40
40
40
ENDCHAR
STARTCHAR iacute
ENCODING 237
SWIDTH 500 0
DWIDTH 4 0
BBX 2 6 1 0
BITMAP
C0
00
80
80
80
80
ENDCHAR
STARTCHAR icircumflex
ENCODING 238
SWIDTH 500 0
DWIDTH 4 0
BBX 3 6 0 0
BITMAP
E0
00
40
40
40
40
ENDCHAR
STARTCHAR idieresis
ENCODING 239
SWIDTH 500 0
DWIDTH 4 0
BBX 3 6 0 0
BITMAP
A0
00
40
40
40
40
ENDCHAR
STARTCHAR eth
ENCODING 240
SWIDTH 500 0
DWIDTH 4 0
BBX 3 6 0 0
BITMAP
A0
40
20
E0
A0
E0
ENDCHAR
STARTCHAR ntilde
ENCODING 241
SWIDTH 500 0
DWIDTH 4 0
BBX 3 6 0 0
BITMAP
C0
60
E0
A0
A0
A0
ENDCHAR
STARTCHAR ograve
ENCODING 242
SWIDTH 500 0
DWIDTH 4 0
BBX 3 6 0 0
BITMAP
C0
00
E0
A0
A0
E0
ENDCHAR
STARTCHAR oacute
ENCODING 243
SWIDTH 500 0
DWIDTH 4 0
BBX 3 6 0 0
BITMAP
60
00
E0
A0
A0
E0
ENDCHAR
STARTCHAR ocircumflex
ENCODING 244
SWIDTH 500 0
DWIDTH 4 0
BBX 3 6 0 0
BITMAP
E0
00
E0
A0
A0
E0
ENDCHAR
STARTCHAR otilde
ENCODING 245
SWIDTH 500 0
DWIDTH 4 0
BBX 3 6 0 0
BITMAP
C0
60
E0
A0
A0
E0
ENDCHAR
STARTCHAR odieresis
ENCODING 246
SWIDTH 500 0
DWIDTH 4 0
BBX 3 6 0 0
BITMAP
A0
00
E0
A0
A0
E0
ENDCHAR
STARTCHAR divide
ENCODING 247
SWIDTH 500 0
DWIDTH 4 0
BBX 3 5 0 -1
BITMAP
40
00
E0
00
40
ENDCHAR
STARTCHAR oslash
ENCODING 248
SWIDTH 500 0
DWIDTH 4 0
BBX 3 6 0 -1
BITMAP
20
E0
E0
E0
E0
80
ENDCHAR
STARTCHAR ugrave
ENCODING 249
SWIDTH 500 0
DWIDTH 4 0
BBX 3 6 0 0
BITMAP
C0
00
A0
A0
A0
E0
ENDCHAR
STARTCHAR uacute
ENCODING 250
SWIDTH 500 0
DWIDTH 4 0
BBX 3 6 0 0
BITMAP
60
00
A0
A0
A0
E0
ENDCHAR
STARTCHAR ucircumflex
ENCODING 251
SWIDTH 500 0
DWIDTH 4 0
BBX 3 6 0 0
BITMAP
E0
00
A0
A0
A0
E0
ENDCHAR
STARTCHAR udieresis
ENCODING 252
SWIDTH 500 0
DWIDTH 4 0
BBX 3 6 0 0
BITMAP
A0
00
A0
A0
A0
E0
ENDCHAR
STARTCHAR yacute
ENCODING 253
SWIDTH 500 0
DWIDTH 4 0
BBX 3 8 0 -2
BITMAP
60
00
A0
A0
A0
E0
20
E0
ENDCHAR
STARTCHAR thorn
ENCODING 254
SWIDTH 500 0
DWIDTH 4 0
BBX 3 6 0 -1
BITMAP
80
E0
A0
A0
E0
80
ENDCHAR
STARTCHAR ydieresis
ENCODING 255
SWIDTH 500 0
DWIDTH 4 0
BBX 3 8 0 -2
BITMAP
A0
00
A0
A0
A0
E0
20
E0
ENDCHAR
STARTCHAR Amacron
ENCODING 256
SWIDTH 500 0
DWIDTH 4 0
BBX 3 6 0 0
BITMAP
E0
00
E0
A0
E0
A0
ENDCHAR
STARTCHAR amacron
ENCODING 257
SWIDTH 500 0
DWIDTH 4 0
BBX 3 6 0 0
BITMAP
E0
00
E0
20
E0
E0
ENDCHAR
STARTCHAR Abreve
ENCODING 258
SWIDTH 500 0
DWIDTH 4 0
BBX 3 6 0 0
BITMAP
E0
00
E0
A0
E0
A0
ENDCHAR
STARTCHAR abreve
ENCODING 259
SWIDTH 500 0
DWIDTH 4 0
BBX 3 6 0 0
BITMAP
E0
00
E0
20
E0
E0
ENDCHAR
STARTCHAR Aogonek
ENCODING 260
SWIDTH 500 0
DWIDTH 4 0
BBX 4 7 0 -2
BITMAP
E0
A0
A0
E0
A0
20
10
ENDCHAR
STARTCHAR aogonek
ENCODING 261
SWIDTH 500 0
DWIDTH 4 0
BBX 4 6 0 -2
BITMAP
E0
20
E0
E0
20
10
ENDCHAR
STARTCHAR Cacute
ENCODING 262
SWIDTH 500 0
DWIDTH 4 0
BBX 3 6 0 0
BITMAP
60
E0
80
80
80
E0
ENDCHAR
STARTCHAR cacute
ENCODING 263
SWIDTH 500 0
DWIDTH 4 0
BBX 3 6 0 0
BITMAP
60
00
E0
80
80
E0
ENDCHAR
STARTCHAR Ccircumflex
ENCODING 264
SWIDTH 500 0
DWIDTH 4 0
BBX 3 6 0 0
BITMAP
E0
E0
80
80
80
E0
ENDCHAR
STARTCHAR ccircumflex
ENCODING 265
SWIDTH 500 0
DWIDTH 4 0
BBX 3 6 0 0
BITMAP
E0
00
E0
80
80
E0
ENDCHAR
STARTCHAR Cdotaccent
ENCODING 266
SWIDTH 500 0
DWIDTH 4 0
BBX 3 6 0 0
BITMAP
40
E0
80
80
80
E0
ENDCHAR
STARTCHAR cdotaccent
ENCODING 267
SWIDTH 500 0
DWIDTH 4 0
BBX 3 6 0 0
BITMAP
40
00
E0
80
80
E0
ENDCHAR
STARTCHAR Ccaron
ENCODING 268
SWIDTH 500 0
DWIDTH 4 0
BBX 3 6 0 0
BITMAP
E0
E0
80
80
80
E0
ENDCHAR
STARTCHAR ccaron
ENCODING 269
SWIDTH 500 0
DWIDTH 4 0
BBX 3 6 0 0
BITMAP
E0
00
E0
80
80
E0
ENDCHAR
STARTCHAR Dcaron
ENCODING 270
SWIDTH 500 0
DWIDTH 4 0
BBX 3 6 0 0
BITMAP
E0
C0
A0
A0
A0
C0
ENDCHAR
STARTCHAR dcaron
ENCODING 271
SWIDTH 500 0
DWIDTH 4 0
BBX 4 6 0 0
BITMAP
30
30
E0
A0
A0
E0
ENDCHAR
STARTCHAR Dcroat
ENCODING 272
SWIDTH 500 0
DWIDTH 4 0
BBX 3 5 0 0
BITMAP
C0
A0
E0
A0
C0
ENDCHAR
STARTCHAR dcroat
ENCODING 273
SWIDTH 500 0
DWIDTH 4 0
BBX 4 6 0 0
BITMAP
20
70
E0
A0
A0
E0
ENDCHAR
STARTCHAR Emacron
ENCODING 274
SWIDTH 500 0
DWIDTH 4 0
BBX 3 6 0 0
BITMAP
E0
E0
80
E0
80
E0
ENDCHAR
STARTCHAR emacron
ENCODING 275
SWIDTH 500 0
DWIDTH 4 0
BBX 3 6 0 0
BITMAP
E0
00
E0
E0
80
E0
ENDCHAR
STARTCHAR Ebreve
ENCODING 276
SWIDTH 500 0
DWIDTH 4 0
BBX 3 6 0 0
BITMAP
E0
E0
80
E0
80
E0
ENDCHAR
STARTCHAR ebreve
ENCODING 277
SWIDTH 500 0
DWIDTH 4 0
BBX 3 6 0 0
BITMAP
E0
00
E0
E0
80
E0
ENDCHAR
STARTCHAR Edotaccent
ENCODING 278
SWIDTH 500 0
DWIDTH 4 0
BBX 3 6 0 0
BITMAP
40
E0
80
E0
80
E0
ENDCHAR
STARTCHAR edotaccent
ENCODING 279
SWIDTH 500 0
DWIDTH 4 0
BBX 3 6 0 0
BITMAP
40
00
E0
E0
80
E0
ENDCHAR
STARTCHAR Eogonek
ENCODING 280
SWIDTH 500 0
DWIDTH 4 0
BBX 4 7 0 -2
BITMAP
E0
80
E0
80
E0
20
10
ENDCHAR
STARTCHAR eogonek
ENCODING 281
SWIDTH 500 0
DWIDTH 4 0
BBX 4 6 0 -2
BITMAP
E0
E0
80
E0
20
10
ENDCHAR
STARTCHAR Ecaron
ENCODING 282
SWIDTH 500 0
DWIDTH 4 0
BBX 3 6 0 0
BITMAP
E0
E0
80
E0
80
E0
ENDCHAR
STARTCHAR ecaron
ENCODING 283
SWIDTH 500 0
DWIDTH 4 0
BBX 3 6 0 0
BITMAP
E0
00
E0
E0
80
E0
ENDCHAR
STARTCHAR Gcircumflex
ENCODING 284
SWIDTH 500 0
DWIDTH 4 0
BBX 3 6 0 0
BITMAP
E0
E0
80
80
A0
E0
ENDCHAR
STARTCHAR gcircumflex
ENCODING 285
SWIDTH 500 0
DWIDTH 4 0
BBX 3 8 0 -2
BITMAP
E0
00
E0
A0
A0
E0
20
E0
ENDCHAR
STARTCHAR Gbreve
ENCODING 286
SWIDTH 500 0
DWIDTH 4 0
BBX 3 6 0 0
BITMAP
E0
E0
80
80
A0
E0
ENDCHAR
STARTCHAR gbreve
ENCODING 287
SWIDTH 500 0
DWIDTH 4 0
BBX 3 8 0 -2
BITMAP
E0
00
E0
A0
A0
E0
20
E0
ENDCHAR
STARTCHAR Gdotaccent
ENCODING 288
SWIDTH 500 0
DWIDTH 4 0
BBX 3 6 0 0
BITMAP
40
E0
80
80
A0
E0
ENDCHAR
STARTCHAR gdotaccent
ENCODING 289
SWIDTH 500 0
DWIDTH 4 0
BBX 3 8 0 -2
BITMAP
40
00
E0
A0
A0
E0
20
E0
ENDCHAR
STARTCHAR uni0122
ENCODING 290
SWIDTH 500 0
DWIDTH 4 0
BBX 3 7 0 -2
BITMAP
E0
80
80
A0
E0
40
80
ENDCHAR
STARTCHAR uni0123
ENCODING 291
SWIDTH 500 0
DWIDTH 4 0
BBX 3 8 0 -2
BITMAP
60
00
E0
A0
A0
E0
20
E0
ENDCHAR
STARTCHAR Hcircumflex
ENCODING 292
SWIDTH 500 0
DWIDTH 4 0
BBX 3 6 0 0
BITMAP
E0
00
A0
E0
A0
A0
ENDCHAR
STARTCHAR hcircumflex
ENCODING 293
SWIDTH 500 0
DWIDTH 4 0
BBX 3 6 0 0
BITMAP
E0
00
80
E0
A0
A0
ENDCHAR
STARTCHAR Hbar
ENCODING 294
SWIDTH 500 0
DWIDTH 4 0
BBX 4 5 0 0
BITMAP
A0
F0
E0
A0
A0
ENDCHAR
STARTCHAR hbar
ENCODING 295
SWIDTH 500 0
DWIDTH 4 0
BBX 3 6 0 0
BITMAP
80
C0
80
E0
A0
A0
ENDCHAR
STARTCHAR Itilde
ENCODING 296
SWIDTH 500 0
DWIDTH 4 0
BBX 3 6 0 0
BITMAP
C0
60
E0
40
40
E0
ENDCHAR
STARTCHAR itilde
ENCODING 297
SWIDTH 500 0
DWIDTH 4 0
BBX 3 6 0 0
BITMAP
C0
60
00
40
40
40
ENDCHAR
STARTCHAR Imacron
ENCODING 298
SWIDTH 500 0
DWIDTH 4 0
BBX 3 6 0 0
BITMAP
E0
E0
40
40
40
E0
ENDCHAR
STARTCHAR imacron
ENCODING 299
SWIDTH 500 0
DWIDTH 4 0
BBX 3 6 0 0
BITMAP
E0
00
40
40
40
40
ENDCHAR
STARTCHAR Ibreve
ENCODING 300
SWIDTH 500 0
DWIDTH 4 0
BBX 3 6 0 0
BITMAP
E0
E0
40
40
40
E0
ENDCHAR
STARTCHAR ibreve
ENCODING 301
SWIDTH 500 0
DWIDTH 4 0
BBX 3 6 0 0
BITMAP
E0
00
40
40
40
40
ENDCHAR
STARTCHAR Iogonek
ENCODING 302
SWIDTH 500 0
DWIDTH 4 0
BBX 3 7 0 -2
BITMAP
E0
40
40
40
E0
40
20
ENDCHAR
STARTCHAR iogonek
ENCODING 303
SWIDTH 500 0
DWIDTH 4 0
BBX 2 8 1 -2
BITMAP
80
00
80
80
80
80
80
40
ENDCHAR
STARTCHAR Idotaccent
ENCODING 304
SWIDTH 500 0
DWIDTH 4 0
BBX 3 6 0 0
BITMAP
40
E0
40
40
40
E0
ENDCHAR
STARTCHAR dotlessi
ENCODING 305
SWIDTH 500 0
DWIDTH 4 0
BBX 1 4 1 0
BITMAP
80
80
80
80
ENDCHAR
STARTCHAR IJ
ENCODING 306
SWIDTH 500 0
DWIDTH 4 0
BBX 3 7 0 -2
BITMAP
A0
A0
A0
A0
A0
20
E0
ENDCHAR
STARTCHAR ij
ENCODING 307
SWIDTH 500 0
DWIDTH 4 0
BBX 3 8 0 -2
BITMAP
A0
00
A0
A0
A0
A0
20
60
ENDCHAR
STARTCHAR Jcircumflex
ENCODING 308
SWIDTH 500 0
DWIDTH 4 0
BBX 3 6 0 0
BITMAP
E0
00
20
20
A0
E0
ENDCHAR
STARTCHAR jcircumflex
ENCODING 309
SWIDTH 500 0
DWIDTH 4 0
BBX 3 8 0 -2
BITMAP
E0
00
40
40
40
40
40
C0
ENDCHAR
STARTCHAR uni0136
ENCODING 310
SWIDTH 500 0
DWIDTH 4 0
BBX 3 7 0 -2
BITMAP
A0
A0
C0
A0
A0
40
80
ENDCHAR
STARTCHAR uni0137
ENCODING 311
SWIDTH 500 0
DWIDTH 4 0
BBX 3 8 0 -2
BITMAP
80
80
A0
A0
C0
A0
40
80
ENDCHAR
STARTCHAR kgreenlandic
ENCODING 312
SWIDTH 500 0
DWIDTH 4 0
BBX 3 4 0 0
BITMAP
A0
A0
C0
A0
ENDCHAR
STARTCHAR Lacute
ENCODING 313
SWIDTH 500 0
DWIDTH 4 0
BBX 3 6 0 0
BITMAP
60
80
80
80
80
E0
ENDCHAR
STARTCHAR lacute
ENCODING 314
SWIDTH 500 0
DWIDTH 4 0
BBX 2 6 1 0
BITMAP
C0
00
80
80
80
C0
ENDCHAR
STARTCHAR uni013B
ENCODING 315
SWIDTH 500 0
DWIDTH 4 0
BBX 3 7 0 -2
BITMAP
80
80
80
80
E0
40
80
ENDCHAR
STARTCHAR uni013C
ENCODING 316
SWIDTH 500 0
DWIDTH 4 0
BBX 3 8 0 -2
BITMAP
40
40
40
40
40
60
40
80
ENDCHAR
STARTCHAR Lcaron
ENCODING 317
SWIDTH 500 0
DWIDTH 4 0
BBX 3 6 0 0
BITMAP
20
A0
80
80
80
E0
ENDCHAR
STARTCHAR lcaron
ENCODING 318
SWIDTH 500 0
DWIDTH 4 0
BBX 3 6 1 0
BITMAP
A0
A0
80
80
80
C0
ENDCHAR
STARTCHAR Ldot
ENCODING 319
SWIDTH 500 0
DWIDTH 4 0
BBX 3 5 0 0
BITMAP
80
A0
80
80
E0
ENDCHAR
STARTCHAR ldot
ENCODING 320
SWIDTH 500 0
DWIDTH 4 0
BBX 3 6 1 0
BITMAP
80
80
A0
80
80
C0
ENDCHAR
STARTCHAR Lslash
ENCODING 321
SWIDTH 500 0
DWIDTH 4 0
BBX 3 5 0 0
BITMAP
80
A0
C0
80
E0
ENDCHAR
STARTCHAR lslash
ENCODING 322
SWIDTH 500 0
DWIDTH 4 0
BBX 3 6 0 0
BITMAP
40
40
60
C0
40
60
ENDCHAR
STARTCHAR Nacute
ENCODING 323
SWIDTH 500 0
DWIDTH 4 0
BBX 3 6 0 0
BITMAP
60
00
A0
E0
E0
A0
ENDCHAR
STARTCHAR nacute
ENCODING 324
SWIDTH 500 0
DWIDTH 4 0
BBX 3 6 0 0
BITMAP
60
00
E0
A0
A0
A0
ENDCHAR
STARTCHAR uni0145
ENCODING 325
SWIDTH 500 0
DWIDTH 4 0
BBX 3 7 0 -2
BITMAP
A0
E0
E0
E0
A0
40
80
ENDCHAR
STARTCHAR uni0146
ENCODING 326
SWIDTH 500 0
DWIDTH 4 0
BBX 3 6 0 -2
BITMAP
E0
A0
A0
A0
40
80
ENDCHAR
STARTCHAR Ncaron
ENCODING 327
SWIDTH 500 0
DWIDTH 4 0
BBX 3 6 0 0
BITMAP
E0
00
A0
E0
E0
A0
ENDCHAR
STARTCHAR ncaron
ENCODING 328
SWIDTH 500 0
DWIDTH 4 0
BBX 3 6 0 0
BITMAP
E0
00
E0
A0
A0
A0
ENDCHAR
STARTCHAR napostrophe
ENCODING 329
SWIDTH 500 0
DWIDTH 4 0
BBX 3 6 0 0
BITMAP
80
80
00
E0
A0
A0
ENDCHAR
STARTCHAR Eng
ENCODING 330
SWIDTH 500 0
DWIDTH 4 0
BBX 3 7 0 -2
BITMAP
E0
A0
A0
A0
A0
20
60
ENDCHAR
STARTCHAR eng
ENCODING 331
SWIDTH 500 0
DWIDTH 4 0
BBX 3 6 0 -2
BITMAP
E0
A0
A0
A0
20
60
ENDCHAR
STARTCHAR Omacron
ENCODING 332
SWIDTH 500 0
DWIDTH 4 0
BBX 3 6 0 0
BITMAP
E0
E0
A0
A0
A0
E0
ENDCHAR
STARTCHAR omacron
ENCODING 333
SWIDTH 500 0
DWIDTH 4 0
BBX 3 6 0 0
BITMAP
E0
00
E0
A0
A0
E0
ENDCHAR
STARTCHAR Obreve
ENCODING 334
SWIDTH 500 0
DWIDTH 4 0
BBX 3 6 0 0
BITMAP
E0
E0
A0
A0
A0
E0
ENDCHAR
STARTCHAR obreve
ENCODING 335
SWIDTH 500 0
DWIDTH 4 0
BBX 3 6 0 0
BITMAP
E0
00
E0
A0
A0
E0
ENDCHAR
STARTCHAR Ohungarumlaut
ENCODING 336
SWIDTH 500 0
DWIDTH 4 0
BBX 3 6 0 0
BITMAP
A0
E0
A0
A0
A0
E0
ENDCHAR
STARTCHAR ohungarumlaut
ENCODING 337
SWIDTH 500 0
DWIDTH 4 0
BBX 3 6 0 0
BITMAP
A0
00
E0
A0
A0
E0
ENDCHAR
STARTCHAR OE
ENCODING 338
SWIDTH 500 0
DWIDTH 4 0
BBX 4 5 0 0
BITMAP
F0
A0
B0
A0
F0
ENDCHAR
STARTCHAR oe
ENCODING 339
SWIDTH 500 0
DWIDTH 4 0
BBX 4 4 0 0
BITMAP
F0
B0
A0
F0
ENDCHAR
STARTCHAR Racute
ENCODING 340
SWIDTH 500 0
DWIDTH 4 0
BBX 3 6 0 0
BITMAP
60
E0
A0
C0
A0
A0
ENDCHAR
STARTCHAR racute
ENCODING 341
SWIDTH 500 0
DWIDTH 4 0
BBX 3 6 0 0
BITMAP
60
00
E0
80
80
80
ENDCHAR
STARTCHAR uni0156
ENCODING 342
SWIDTH 500 0
DWIDTH 4 0
BBX 3 7 0 -2
BITMAP
E0
A0
C0
A0
A0
40
80
ENDCHAR
STARTCHAR uni0157
ENCODING 343
SWIDTH 500 0
DWIDTH 4 0
BBX 3 6 0 -2
BITMAP
E0
80
80
80
40
80
ENDCHAR
STARTCHAR Rcaron
ENCODING 344
SWIDTH 500 0
DWIDTH 4 0
BBX 3 6 0 0
BITMAP
E0
E0
A0
C0
A0
A0
ENDCHAR
STARTCHAR rcaron
ENCODING 345
SWIDTH 500 0
DWIDTH 4 0
BBX 3 6 0 0
BITMAP
E0
00
E0
80
80
80
ENDCHAR
STARTCHAR Sacute
ENCODING 346
SWIDTH 500 0
DWIDTH 4 0
BBX 3 6 0 0
BITMAP
60
E0
80
40
20
E0
ENDCHAR
STARTCHAR sacute
ENCODING 347
SWIDTH 500 0
DWIDTH 4 0
BBX 3 6 0 0
BITMAP
60
00
E0
80
20
E0
ENDCHAR
STARTCHAR Scircumflex
ENCODING 348
SWIDTH 500 0
DWIDTH 4 0
BBX 3 6 0 0
BITMAP
E0
E0
80
40
20
E0
ENDCHAR
STARTCHAR scircumflex
ENCODING 349
SWIDTH 500 0
DWIDTH 4 0
BBX 3 6 0 0
BITMAP
E0
00
E0
80
20
E0
ENDCHAR
STARTCHAR Scedilla
ENCODING 350
SWIDTH 500 0
DWIDTH 4 0
BBX 3 7 0 -2
BITMAP
E0
80
40
20
E0
40
80
ENDCHAR
STARTCHAR scedilla
ENCODING 351
SWIDTH 500 0
DWIDTH 4 0
BBX 3 6 0 -2
BITMAP
E0
80
20
E0
40
80
ENDCHAR
STARTCHAR Scaron
ENCODING 352
SWIDTH 500 0
DWIDTH 4 0
BBX 3 6 0 0
BITMAP
E0
E0
80
40
20
E0
ENDCHAR
STARTCHAR scaron
ENCODING 353
SWIDTH 500 0
DWIDTH 4 0
BBX 3 6 0 0
BITMAP
E0
00
E0
80
20
E0
ENDCHAR
STARTCHAR uni0162
ENCODING 354
SWIDTH 500 0
DWIDTH 4 0
BBX 3 7 0 -2
BITMAP
E0
40
40
40
40
40
80
ENDCHAR
STARTCHAR uni0163
ENCODING 355
SWIDTH 500 0
DWIDTH 4 0
BBX 3 7 0 -2
BITMAP
40
E0
40
40
60
20
40
ENDCHAR
STARTCHAR Tcaron
ENCODING 356
SWIDTH 500 0
DWIDTH 4 0
BBX 3 5 0 0
BITMAP
E0
40
40
40
40
ENDCHAR
STARTCHAR tcaron
ENCODING 357
SWIDTH 500 0
DWIDTH 4 0
BBX 4 6 0 0
BITMAP
10
50
E0
40
40
60
ENDCHAR
STARTCHAR Tbar
ENCODING 358
SWIDTH 500 0
DWIDTH 4 0
BBX 3 5 0 0
BITMAP
E0
40
E0
40
40
ENDCHAR
STARTCHAR tbar
ENCODING 359
SWIDTH 500 0
DWIDTH 4 0
BBX 3 6 0 0
BITMAP
40
E0
40
E0
40
60
ENDCHAR
STARTCHAR Utilde
ENCODING 360
SWIDTH 500 0
DWIDTH 4 0
BBX 3 6 0 0
BITMAP
60
C0
00
A0
A0
E0
ENDCHAR
STARTCHAR utilde
ENCODING 361
SWIDTH 500 0
DWIDTH 4 0
BBX 3 6 0 0
BITMAP
60
C0
00
A0
A0
E0
ENDCHAR
STARTCHAR Umacron
ENCODING 362
SWIDTH 500 0
DWIDTH 4 0
BBX 3 6 0 0
BITMAP
E0
00
A0
A0
A0
E0
ENDCHAR
STARTCHAR umacron
ENCODING 363
SWIDTH 500 0
DWIDTH 4 0
BBX 3 6 0 0
BITMAP
E0
00
A0
A0
A0
E0
ENDCHAR
STARTCHAR Ubreve
ENCODING 364
SWIDTH 500 0
DWIDTH 4 0
BBX 3 6 0 0
BITMAP
E0
00
A0
A0
A0
E0
ENDCHAR
STARTCHAR ubreve
ENCODING 365
SWIDTH 500 0
DWIDTH 4 0
BBX 3 6 0 0
BITMAP
E0
00
A0
A0
A0
E0
ENDCHAR
STARTCHAR Uring
ENCODING 366
SWIDTH 500 0
DWIDTH 4 0
BBX 3 6 0 0
BITMAP
40
A0
40
A0
A0
E0
ENDCHAR
STARTCHAR uring
ENCODING 367
SWIDTH 500 0
DWIDTH 4 0
BBX 3 6 0 0
BITMAP
40
A0
40
A0
A0
E0
ENDCHAR
STARTCHAR Uhungarumlaut
ENCODING 368
SWIDTH 500 0
DWIDTH 4 0
BBX 3 6 0 0
BITMAP
A0
00
A0
A0
A0
E0
ENDCHAR
STARTCHAR uhungarumlaut
ENCODING 369
SWIDTH 500 0
DWIDTH 4 0
BBX 3 6 0 0
BITMAP
A0
00
A0
A0
A0
E0
ENDCHAR
STARTCHAR Uogonek
ENCODING 370
SWIDTH 500 0
DWIDTH 4 0
BBX 3 7 0 -2
BITMAP
A0
A0
A0
A0
E0
40
20
ENDCHAR
STARTCHAR uogonek
ENCODING 371
SWIDTH 500 0
DWIDTH 4 0
BBX 3 6 0 -2
BITMAP
A0
A0
A0
E0
40
20
ENDCHAR
STARTCHAR Wcircumflex
ENCODING 372
SWIDTH 500 0
DWIDTH 4 0
BBX 3 6 0 0
BITMAP
E0
00
A0
E0
E0
E0
ENDCHAR
STARTCHAR wcircumflex
ENCODING 373
SWIDTH 500 0
DWIDTH 4 0
BBX 3 6 0 0
BITMAP
E0
00
A0
E0
E0
E0
ENDCHAR
STARTCHAR Ycircumflex
ENCODING 374
SWIDTH 500 0
DWIDTH 4 0
BBX 3 6 0 0
BITMAP
E0
00
A0
A0
40
40
ENDCHAR
STARTCHAR ycircumflex
ENCODING 375
SWIDTH 500 0
DWIDTH 4 0
BBX 3 8 0 -2
BITMAP
E0
00
A0
A0
A0
E0
20
E0
ENDCHAR
STARTCHAR Ydieresis
ENCODING 376
SWIDTH 500 0
DWIDTH 4 0
BBX 3 6 0 0
BITMAP
A0
00
A0
A0
40
40
ENDCHAR
STARTCHAR Zacute
ENCODING 377
SWIDTH 500 0
DWIDTH 4 0
BBX 3 6 0 0
BITMAP
60
E0
20
40
80
E0
ENDCHAR
STARTCHAR zacute
ENCODING 378
SWIDTH 500 0
DWIDTH 4 0
BBX 3 6 0 0
BITMAP
60
00
E0
20
80
E0
ENDCHAR
STARTCHAR Zdotaccent
ENCODING 379
SWIDTH 500 0
DWIDTH 4 0
BBX 3 6 0 0
BITMAP
40
E0
20
40
80
E0
ENDCHAR
STARTCHAR zdotaccent
ENCODING 380
SWIDTH 500 0
DWIDTH 4 0
BBX 3 6 0 0
BITMAP
40
00
E0
20
80
E0
ENDCHAR
STARTCHAR Zcaron
ENCODING 381
SWIDTH 500 0
DWIDTH 4 0
BBX 3 6 0 0
BITMAP
E0
E0
20
40
80
E0
ENDCHAR
STARTCHAR zcaron
ENCODING 382
SWIDTH 500 0
DWIDTH 4 0
BBX 3 6 0 0
BITMAP
E0
00
E0
20
80
E0
ENDCHAR
STARTCHAR longs
ENCODING 383
SWIDTH 500 0
DWIDTH 4 0
BBX 3 6 0 0
BITMAP
60
40
C0
40
40
40
ENDCHAR
STARTCHAR uni0180
ENCODING 384
SWIDTH 500 0
DWIDTH 4 0
BBX 3 6 0 0
BITMAP
80
C0
80
E0
A0
E0
ENDCHAR
STARTCHAR uni0181
ENCODING 385
SWIDTH 500 0
DWIDTH 4 0
BBX 3 6 0 0
BITMAP
80
C0
A0
C0
A0
C0
ENDCHAR
STARTCHAR uni0182
ENCODING 386
SWIDTH 500 0
DWIDTH 4 0
BBX 3 6 0 0
BITMAP
E0
80
80
E0
A0
E0
ENDCHAR
STARTCHAR uni0183
ENCODING 387
SWIDTH 500 0
DWIDTH 4 0
BBX 3 6 0 0
BITMAP
E0
80
E0
A0
A0
E0
ENDCHAR
STARTCHAR uni0184
ENCODING 388
SWIDTH 500 0
DWIDTH 4 0
BBX 4 6 0 0
BITMAP
80
40
40
70
50
70
ENDCHAR
STARTCHAR uni0185
ENCODING 389
SWIDTH 500 0
DWIDTH 4 0
BBX 4 6 0 0
BITMAP
80
40
70
50
50
70
ENDCHAR
STARTCHAR uni0186
ENCODING 390
SWIDTH 500 0
DWIDTH 4 0
BBX 3 5 0 0
BITMAP
E0
20
20
20
E0
ENDCHAR
STARTCHAR uni0187
ENCODING 391
SWIDTH 500 0
DWIDTH 4 0
BBX 3 6 0 0
BITMAP
20
E0
80
80
80
E0
ENDCHAR
STARTCHAR uni0188
ENCODING 392
SWIDTH 500 0
DWIDTH 4 0
BBX 3 5 0 0
BITMAP
20
E0
80
80
E0
ENDCHAR
STARTCHAR uni0189
ENCODING 393
SWIDTH 500 0
DWIDTH 4 0
BBX 3 5 0 0
BITMAP
C0
A0
E0
A0
C0
ENDCHAR
STARTCHAR uni018A
ENCODING 394
SWIDTH 500 0
DWIDTH 4 0
BBX 3 6 0 0
BITMAP
80
C0
A0
A0
A0
C0
ENDCHAR
STARTCHAR uni018B
ENCODING 395
SWIDTH 500 0
DWIDTH 4 0
BBX 3 6 0 0
BITMAP
E0
20
E0
A0
A0
E0
ENDCHAR
STARTCHAR uni018C
ENCODING 396
SWIDTH 500 0
DWIDTH 4 0
BBX 3 6 0 0
BITMAP
E0
20
E0
A0
A0
E0
ENDCHAR
STARTCHAR uni018D
ENCODING 397
SWIDTH 500 0
DWIDTH 4 0
BBX 3 6 0 -2
BITMAP
E0
A0
A0
E0
40
80
ENDCHAR
STARTCHAR uni018E
ENCODING 398
SWIDTH 500 0
DWIDTH 4 0
BBX 3 5 0 0
BITMAP
E0
20
E0
20
E0
ENDCHAR
STARTCHAR uni018F
ENCODING 399
SWIDTH 500 0
DWIDTH 4 0
BBX 3 5 0 0
BITMAP
C0
20
E0
A0
40
ENDCHAR
STARTCHAR uni0190
ENCODING 400
SWIDTH 500 0
DWIDTH 4 0
BBX 3 5 0 0
BITMAP
60
80
40
80
60
ENDCHAR
STARTCHAR uni0191
ENCODING 401
SWIDTH 500 0
DWIDTH 4 0
BBX 3 7 0 -2
BITMAP
E0
80
E0
80
80
40
80
ENDCHAR
STARTCHAR florin
ENCODING 402
SWIDTH 500 0
DWIDTH 4 0
BBX 3 8 0 -2
BITMAP
60
40
E0
40
40
40
40
80
ENDCHAR
STARTCHAR uni0193
ENCODING 403
SWIDTH 500 0
DWIDTH 4 0
BBX 3 6 0 0
BITMAP
20
E0
80
80
A0
E0
ENDCHAR
STARTCHAR uni0194
ENCODING 404
SWIDTH 500 0
DWIDTH 4 0
BBX 3 6 0 -1
BITMAP
A0
A0
A0
40
A0
E0
ENDCHAR
STARTCHAR uni0195
ENCODING 405
SWIDTH 500 0
DWIDTH 4 0
BBX 4 6 0 0
BITMAP
80
80
E0
B0
B0
B0
ENDCHAR
STARTCHAR uni0196
ENCODING 406
SWIDTH 500 0
DWIDTH 4 0
BBX 3 5 0 0
BITMAP
80
80
80
A0
E0
ENDCHAR
STARTCHAR uni0197
ENCODING 407
SWIDTH 500 0
DWIDTH 4 0
BBX 3 6 0 0
BITMAP
40
40
40
E0
40
40
ENDCHAR
STARTCHAR uni0198
ENCODING 408
SWIDTH 500 0
DWIDTH 4 0
BBX 4 5 0 0
BITMAP
B0
A0
C0
A0
A0
ENDCHAR
STARTCHAR uni0199
ENCODING 409
SWIDTH 500 0
DWIDTH 4 0
BBX 3 6 0 0
BITMAP
C0
80
A0
A0
C0
A0
ENDCHAR
STARTCHAR uni019A
ENCODING 410
SWIDTH 500 0
DWIDTH 4 0
BBX 3 6 0 0
BITMAP
40
40
40
E0
40
40
ENDCHAR
STARTCHAR uni019B
ENCODING 411
SWIDTH 500 0
DWIDTH 4 0
BBX 3 6 0 0
BITMAP
A0
40
A0
60
A0
A0
ENDCHAR
STARTCHAR uni019C
ENCODING 412
SWIDTH 500 0
DWIDTH 4 0
BBX 3 6 0 -1
BITMAP
A0
A0
E0
E0
E0
20
ENDCHAR
STARTCHAR uni019D
ENCODING 413
SWIDTH 500 0
DWIDTH 4 0
BBX 3 6 0 -1
BITMAP
A0
E0
E0
E0
A0
80
ENDCHAR
STARTCHAR uni019E
ENCODING 414
SWIDTH 500 0
DWIDTH 4 0
BBX 3 6 0 -2
BITMAP
E0
A0
A0
A0
20
20
ENDCHAR
STARTCHAR uni019F
ENCODING 415
SWIDTH 500 0
DWIDTH 4 0
BBX 3 5 0 0
BITMAP
40
A0
E0
A0
40
ENDCHAR
STARTCHAR Ohorn
ENCODING 416
SWIDTH 500 0
DWIDTH 4 0
BBX 3 6 0 0
BITMAP
20
60
A0
A0
A0
40
ENDCHAR
STARTCHAR ohorn
ENCODING 417
SWIDTH 500 0
DWIDTH 4 0
BBX 3 5 0 0
BITMAP
20
60
A0
A0
40
ENDCHAR
STARTCHAR uni01A2
ENCODING 418
SWIDTH 500 0
DWIDTH 4 0
BBX 4 5 0 0
BITMAP
70
B0
B0
B0
50
ENDCHAR
STARTCHAR uni01A3
ENCODING 419
SWIDTH 500 0
DWIDTH 4 0
BBX 4 5 0 -1
BITMAP
70
B0
B0
50
10
ENDCHAR
STARTCHAR uni01A4
ENCODING 420
SWIDTH 500 0
DWIDTH 4 0
BBX 4 5 0 0
BITMAP
F0
50
70
40
40
ENDCHAR
STARTCHAR uni01A5
ENCODING 421
SWIDTH 500 0
DWIDTH 4 0
BBX 3 8 0 -2
BITMAP
C0
80
E0
A0
A0
E0
80
80
ENDCHAR
STARTCHAR uni01A6
ENCODING 422
SWIDTH 500 0
DWIDTH 4 0
BBX 3 6 0 0
BITMAP
80
C0
A0
C0
A0
A0
ENDCHAR
STARTCHAR uni01A7
ENCODING 423
SWIDTH 500 0
DWIDTH 4 0
BBX 3 5 0 0
BITMAP
C0
20
40
80
60
ENDCHAR
STARTCHAR uni01A8
ENCODING 424
SWIDTH 500 0
DWIDTH 4 0
BBX 3 4 0 0
BITMAP
C0
20
80
60
ENDCHAR
STARTCHAR uni01A9
ENCODING 425
SWIDTH 500 0
DWIDTH 4 0
BBX 3 5 0 0
BITMAP
E0
80
40
80
E0
ENDCHAR
STARTCHAR uni01AA
ENCODING 426
SWIDTH 500 0
DWIDTH 4 0
BBX 3 7 0 -2
BITMAP
C0
E0
40
40
40
40
60
ENDCHAR
STARTCHAR uni01AB
ENCODING 427
SWIDTH 500 0
DWIDTH 4 0
BBX 3 7 0 -2
BITMAP
40
E0
40
40
60
20
40
ENDCHAR
STARTCHAR uni01AC
ENCODING 428
SWIDTH 500 0
DWIDTH 4 0
BBX 3 5 0 0
BITMAP
E0
C0
40
40
40
ENDCHAR
STARTCHAR uni01AD
ENCODING 429
SWIDTH 500 0
DWIDTH 4 0
BBX 3 6 0 0
BITMAP
60
40
E0
40
40
60
ENDCHAR
STARTCHAR uni01AE
ENCODING 430
SWIDTH 500 0
DWIDTH 4 0
BBX 3 7 0 -2
BITMAP
E0
40
40
40
40
40
20
ENDCHAR
STARTCHAR Uhorn
ENCODING 431
SWIDTH 500 0
DWIDTH 4 0
BBX 4 6 0 0
BITMAP
10
B0
A0
A0
A0
E0
ENDCHAR
STARTCHAR uhorn
ENCODING 432
SWIDTH 500 0
DWIDTH 4 0
BBX 4 6 0 0
BITMAP
10
10
A0
A0
A0
E0
ENDCHAR
STARTCHAR uni01B1
ENCODING 433
SWIDTH 500 0
DWIDTH 4 0
BBX 3 6 0 0
BITMAP
A0
A0
A0
A0
A0
E0
ENDCHAR
STARTCHAR uni01B2
ENCODING 434
SWIDTH 500 0
DWIDTH 4 0
BBX 3 5 0 0
BITMAP
80
A0
A0
A0
C0
ENDCHAR
STARTCHAR uni01B3
ENCODING 435
SWIDTH 500 0
DWIDTH 4 0
BBX 4 5 0 0
BITMAP
B0
A0
40
40
40
ENDCHAR
STARTCHAR uni01B4
ENCODING 436
SWIDTH 500 0
DWIDTH 4 0
BBX 4 6 0 -2
BITMAP
B0
A0
A0
E0
20
E0
ENDCHAR
STARTCHAR uni01B5
ENCODING 437
SWIDTH 500 0
DWIDTH 4 0
BBX 4 5 0 0
BITMAP
E0
20
F0
80
E0
ENDCHAR
STARTCHAR uni01B6
ENCODING 438
SWIDTH 500 0
DWIDTH 4 0
BBX 4 4 0 0
BITMAP
E0
70
80
E0
ENDCHAR
STARTCHAR uni01B7
ENCODING 439
SWIDTH 500 0
DWIDTH 4 0
BBX 3 5 0 0
BITMAP
E0
20
40
20
C0
ENDCHAR
STARTCHAR uni01B8
ENCODING 440
SWIDTH 500 0
DWIDTH 4 0
BBX 3 5 0 0
BITMAP
E0
80
40
80
60
ENDCHAR
STARTCHAR uni01B9
ENCODING 441
SWIDTH 500 0
DWIDTH 4 0
BBX 3 6 0 -2
BITMAP
E0
80
40
80
80
60
ENDCHAR
STARTCHAR uni01BA
ENCODING 442
SWIDTH 500 0
DWIDTH 4 0
BBX 3 7 0 -2
BITMAP
E0
20
40
20
40
80
60
ENDCHAR
STARTCHAR uni01BB
ENCODING 443
SWIDTH 500 0
DWIDTH 4 0
BBX 3 6 0 0
BITMAP
C0
20
40
E0
80
E0
ENDCHAR
STARTCHAR uni01BC
ENCODING 444
SWIDTH 500 0
DWIDTH 4 0
BBX 3 5 0 0
BITMAP
E0
80
C0
20
C0
ENDCHAR
STARTCHAR uni01BD
ENCODING 445
SWIDTH 500 0
DWIDTH 4 0
BBX 3 6 0 -2
BITMAP
E0
80
80
C0
20
C0
ENDCHAR
STARTCHAR uni01BE
ENCODING 446
SWIDTH 500 0
DWIDTH 4 0
BBX 3 5 0 0
BITMAP
80
E0
C0
20
C0
ENDCHAR
STARTCHAR uni01BF
ENCODING 447
SWIDTH 500 0
DWIDTH 4 0
BBX 3 6 0 -2
BITMAP
E0
A0
A0
A0
C0
80
ENDCHAR
STARTCHAR uni01C0
ENCODING 448
SWIDTH 500 0
DWIDTH 4 0
BBX 1 7 1 -2
BITMAP
80
80
80
80
80
80
80
ENDCHAR
STARTCHAR uni01C1
ENCODING 449
SWIDTH 500 0
DWIDTH 4 0
BBX 3 7 0 -2
BITMAP
A0
A0
A0
A0
A0
A0
A0
ENDCHAR
STARTCHAR uni01C2
ENCODING 450
SWIDTH 500 0
DWIDTH 4 0
BBX 3 8 0 -3
BITMAP
40
40
E0
40
E0
40
40
40
ENDCHAR
STARTCHAR uni01C3
ENCODING 451
SWIDTH 500 0
DWIDTH 4 0
BBX 1 5 1 0
BITMAP
80
80
80
00
80
ENDCHAR
STARTCHAR uni01C4
ENCODING 452
SWIDTH 500 0
DWIDTH 4 0
BBX 4 6 0 0
BITMAP
30
F0
D0
D0
E0
F0
ENDCHAR
STARTCHAR uni01C5
ENCODING 453
SWIDTH 500 0
DWIDTH 4 0
BBX 4 6 0 0
BITMAP
30
C0
F0
D0
E0
F0
ENDCHAR
STARTCHAR uni01C6
ENCODING 454
SWIDTH 500 0
DWIDTH 4 0
BBX 4 6 0 0
BITMAP
70
40
F0
D0
E0
F0
ENDCHAR
STARTCHAR uni01C7
ENCODING 455
SWIDTH 500 0
DWIDTH 4 0
BBX 4 7 0 -2
BITMAP
90
90
90
90
D0
10
70
ENDCHAR
STARTCHAR uni01C8
ENCODING 456
SWIDTH 500 0
DWIDTH 4 0
BBX 4 8 0 -2
BITMAP
10
80
90
90
90
D0
10
30
ENDCHAR
STARTCHAR uni01C9
ENCODING 457
SWIDTH 500 0
DWIDTH 4 0
BBX 4 8 0 -2
BITMAP
90
80
90
90
90
D0
10
30
ENDCHAR
STARTCHAR uni01CA
ENCODING 458
SWIDTH 500 0
DWIDTH 4 0
BBX 4 7 0 -2
BITMAP
D0
D0
D0
D0
D0
10
70
ENDCHAR
STARTCHAR uni01CB
ENCODING 459
SWIDTH 500 0
DWIDTH 4 0
BBX 4 8 0 -2
BITMAP
10
C0
D0
D0
D0
D0
10
30
ENDCHAR
STARTCHAR uni01CC
ENCODING 460
SWIDTH 500 0
DWIDTH 4 0
BBX 4 8 0 -2
BITMAP
10
00
D0
D0
D0
D0
10
30
ENDCHAR
STARTCHAR uni01CD
ENCODING 461
SWIDTH 500 0
DWIDTH 4 0
BBX 3 6 0 0
BITMAP
E0
E0
A0
A0
E0
A0
ENDCHAR
STARTCHAR uni01CE
ENCODING 462
SWIDTH 500 0
DWIDTH 4 0
BBX 3 6 0 0
BITMAP
E0
00
E0
20
E0
E0
ENDCHAR
STARTCHAR uni01CF
ENCODING 463
SWIDTH 500 0
DWIDTH 4 0
BBX 3 6 0 0
BITMAP
E0
E0
40
40
40
E0
ENDCHAR
STARTCHAR uni01D0
ENCODING 464
SWIDTH 500 0
DWIDTH 4 0
BBX 3 6 0 0
BITMAP
E0
00
40
40
40
40
ENDCHAR
STARTCHAR uni01D1
ENCODING 465
SWIDTH 500 0
DWIDTH 4 0
BBX 3 6 0 0
BITMAP
E0
E0
A0
A0
A0
E0
ENDCHAR
STARTCHAR uni01D2
ENCODING 466
SWIDTH 500 0
DWIDTH 4 0
BBX 3 6 0 0
BITMAP
E0
00
E0
A0
A0
E0
ENDCHAR
STARTCHAR uni01D3
ENCODING 467
SWIDTH 500 0
DWIDTH 4 0
BBX 3 6 0 0
BITMAP
E0
00
A0
A0
A0
E0
ENDCHAR
STARTCHAR uni01D4
ENCODING 468
SWIDTH 500 0
DWIDTH 4 0
BBX 3 6 0 0
BITMAP
E0
00
A0
A0
A0
E0
ENDCHAR
STARTCHAR uni01D5
ENCODING 469
SWIDTH 500 0
DWIDTH 4 0
BBX 3 6 0 0
BITMAP
A0
00
A0
A0
A0
E0
ENDCHAR
STARTCHAR uni01D6
ENCODING 470
SWIDTH 500 0
DWIDTH 4 0
BBX 3 6 0 0
BITMAP
E0
00
A0
00
A0
E0
ENDCHAR
STARTCHAR uni01D7
ENCODING 471
SWIDTH 500 0
DWIDTH 4 0
BBX 3 6 0 0
BITMAP
A0
00
A0
A0
A0
E0
ENDCHAR
STARTCHAR uni01D8
ENCODING 472
SWIDTH 500 0
DWIDTH 4 0
BBX 3 6 0 0
BITMAP
A0
00
A0
A0
A0
E0
ENDCHAR
STARTCHAR uni01D9
ENCODING 473
SWIDTH 500 0
DWIDTH 4 0
BBX 3 6 0 0
BITMAP
E0
00
A0
00
A0
E0
ENDCHAR
STARTCHAR uni01DA
ENCODING 474
SWIDTH 500 0
DWIDTH 4 0
BBX 3 6 0 0
BITMAP
E0
00
A0
00
A0
E0
ENDCHAR
STARTCHAR uni01DB
ENCODING 475
SWIDTH 500 0
DWIDTH 4 0
BBX 3 6 0 0
BITMAP
A0
00
A0
A0
A0
E0
ENDCHAR
STARTCHAR uni01DC
ENCODING 476
SWIDTH 500 0
DWIDTH 4 0
BBX 3 6 0 0
BITMAP
A0
00
A0
A0
A0
E0
ENDCHAR
STARTCHAR uni01DD
ENCODING 477
SWIDTH 500 0
DWIDTH 4 0
BBX 3 4 0 0
BITMAP
C0
20
E0
C0
ENDCHAR
STARTCHAR uni01DE
ENCODING 478
SWIDTH 500 0
DWIDTH 4 0
BBX 3 6 0 0
BITMAP
E0
A0
E0
A0
E0
A0
ENDCHAR
STARTCHAR uni01DF
ENCODING 479
SWIDTH 500 0
DWIDTH 4 0
BBX 3 6 0 0
BITMAP
E0
A0
E0
20
E0
E0
ENDCHAR
STARTCHAR uni01E0
ENCODING 480
SWIDTH 500 0
DWIDTH 4 0
BBX 3 6 0 0
BITMAP
E0
40
E0
A0
E0
A0
ENDCHAR
STARTCHAR uni01E1
ENCODING 481
SWIDTH 500 0
DWIDTH 4 0
BBX 3 6 0 0
BITMAP
E0
40
E0
20
E0
E0
ENDCHAR
STARTCHAR uni01E2
ENCODING 482
SWIDTH 500 0
DWIDTH 4 0
BBX 4 6 0 0
BITMAP
60
F0
A0
B0
E0
B0
ENDCHAR
STARTCHAR uni01E3
ENCODING 483
SWIDTH 500 0
DWIDTH 4 0
BBX 4 6 0 0
BITMAP
60
00
F0
30
E0
F0
ENDCHAR
STARTCHAR uni01E4
ENCODING 484
SWIDTH 500 0
DWIDTH 4 0
BBX 4 5 0 0
BITMAP
E0
80
A0
F0
E0
ENDCHAR
STARTCHAR uni01E5
ENCODING 485
SWIDTH 500 0
DWIDTH 4 0
BBX 3 6 0 -2
BITMAP
E0
A0
A0
E0
A0
E0
ENDCHAR
STARTCHAR Gcaron
ENCODING 486
SWIDTH 500 0
DWIDTH 4 0
BBX 3 6 0 0
BITMAP
E0
E0
80
80
A0
E0
ENDCHAR
STARTCHAR gcaron
ENCODING 487
SWIDTH 500 0
DWIDTH 4 0
BBX 3 8 0 -2
BITMAP
E0
00
E0
A0
A0
E0
20
E0
ENDCHAR
STARTCHAR uni01E8
ENCODING 488
SWIDTH 500 0
DWIDTH 4 0
BBX 3 6 0 0
BITMAP
E0
00
A0
C0
C0
A0
ENDCHAR
STARTCHAR uni01E9
ENCODING 489
SWIDTH 500 0
DWIDTH 4 0
BBX 3 6 0 0
BITMAP
E0
00
80
A0
C0
A0
ENDCHAR
STARTCHAR uni01EA
ENCODING 490
SWIDTH 500 0
DWIDTH 4 0
BBX 3 7 0 -2
BITMAP
E0
A0
A0
A0
E0
40
20
ENDCHAR
STARTCHAR uni01EB
ENCODING 491
SWIDTH 500 0
DWIDTH 4 0
BBX 3 6 0 -2
BITMAP
E0
A0
A0
E0
40
20
ENDCHAR
STARTCHAR uni01EC
ENCODING 492
SWIDTH 500 0
DWIDTH 4 0
BBX 3 8 0 -2
BITMAP
E0
E0
A0
A0
A0
E0
40
20
ENDCHAR
STARTCHAR uni01ED
ENCODING 493
SWIDTH 500 0
DWIDTH 4 0
BBX 3 8 0 -2
BITMAP
E0
00
E0
A0
A0
E0
40
20
ENDCHAR
STARTCHAR uni01EE
ENCODING 494
SWIDTH 500 0
DWIDTH 8 0
BBX 3 6 0 0
BITMAP
E0
E0
20
40
20
C0
ENDCHAR
STARTCHAR uni01EF
ENCODING 495
SWIDTH 500 0
DWIDTH 4 0
BBX 3 8 0 -2
BITMAP
E0
00
E0
20
40
20
20
40
ENDCHAR
STARTCHAR uni01F0
ENCODING 496
SWIDTH 500 0
DWIDTH 4 0
BBX 3 8 0 -2
BITMAP
E0
00
40
40
40
40
40
C0
ENDCHAR
STARTCHAR uni01F1
ENCODING 497
SWIDTH 500 0
DWIDTH 4 0
BBX 4 5 0 0
BITMAP
F0
D0
D0
E0
F0
ENDCHAR
STARTCHAR uni01F2
ENCODING 498
SWIDTH 500 0
DWIDTH 4 0
BBX 4 5 0 0
BITMAP
C0
F0
D0
E0
F0
ENDCHAR
STARTCHAR uni01F3
ENCODING 499
SWIDTH 500 0
DWIDTH 4 0
BBX 4 6 0 0
BITMAP
40
40
F0
D0
E0
F0
ENDCHAR
STARTCHAR uni01F4
ENCODING 500
SWIDTH 500 0
DWIDTH 4 0
BBX 3 6 0 0
BITMAP
60
E0
80
80
A0
E0
ENDCHAR
STARTCHAR uni01F5
ENCODING 501
SWIDTH 500 0
DWIDTH 4 0
BBX 3 8 0 -2
BITMAP
60
00
E0
A0
A0
E0
20
E0
ENDCHAR
STARTCHAR uni01F6
ENCODING 502
SWIDTH 500 0
DWIDTH 4 0
BBX 4 5 0 0
BITMAP
A0
A0
F0
B0
B0
ENDCHAR
STARTCHAR uni01F7
ENCODING 503
SWIDTH 500 0
DWIDTH 4 0
BBX 3 7 0 -2
BITMAP
E0
A0
A0
A0
A0
C0
80
ENDCHAR
STARTCHAR uni01F8
ENCODING 504
SWIDTH 500 0
DWIDTH 4 0
BBX 3 6 0 0
BITMAP
C0
A0
E0
E0
E0
A0
ENDCHAR
STARTCHAR uni01F9
ENCODING 505
SWIDTH 500 0
DWIDTH 4 0
BBX 3 6 0 0
BITMAP
C0
00
E0
A0
A0
A0
ENDCHAR
STARTCHAR Aringacute
ENCODING 506
SWIDTH 500 0
DWIDTH 4 0
BBX 4 6 0 0
BITMAP
50
B0
E0
A0
E0
A0
ENDCHAR
STARTCHAR aringacute
ENCODING 507
SWIDTH 500 0
DWIDTH 4 0
BBX 4 6 0 0
BITMAP
50
B0
E0
20
E0
E0
ENDCHAR
STARTCHAR AEacute
ENCODING 508
SWIDTH 500 0
DWIDTH 4 0
BBX 4 6 0 0
BITMAP
30
F0
A0
B0
E0
B0
ENDCHAR
STARTCHAR aeacute
ENCODING 509
SWIDTH 500 0
DWIDTH 4 0
BBX 4 6 0 0
BITMAP
30
00
F0
60
E0
F0
ENDCHAR
STARTCHAR Oslashacute
ENCODING 510
SWIDTH 500 0
DWIDTH 4 0
BBX 3 7 0 -1
BITMAP
60
E0
A0
E0
A0
E0
80
ENDCHAR
STARTCHAR oslashacute
ENCODING 511
SWIDTH 500 0
DWIDTH 4 0
BBX 3 7 0 -1
BITMAP
60
20
E0
E0
E0
E0
80
ENDCHAR
STARTCHAR uni0200
ENCODING 512
SWIDTH 500 0
DWIDTH 4 0
BBX 3 6 0 0
BITMAP
A0
E0
A0
A0
E0
A0
ENDCHAR
STARTCHAR uni0201
ENCODING 513
SWIDTH 500 0
DWIDTH 4 0
BBX 3 6 0 0
BITMAP
A0
00
E0
20
E0
E0
ENDCHAR
STARTCHAR uni0202
ENCODING 514
SWIDTH 500 0
DWIDTH 4 0
BBX 3 6 0 0
BITMAP
E0
E0
A0
A0
E0
A0
ENDCHAR
STARTCHAR uni0203
ENCODING 515
SWIDTH 500 0
DWIDTH 4 0
BBX 3 6 0 0
BITMAP
E0
00
E0
20
E0
E0
ENDCHAR
STARTCHAR uni0204
ENCODING 516
SWIDTH 500 0
DWIDTH 4 0
BBX 3 6 0 0
BITMAP
A0
E0
80
E0
80
E0
ENDCHAR
STARTCHAR uni0205
ENCODING 517
SWIDTH 500 0
DWIDTH 4 0
BBX 3 6 0 0
BITMAP
A0
00
E0
E0
80
E0
ENDCHAR
STARTCHAR uni0206
ENCODING 518
SWIDTH 500 0
DWIDTH 4 0
BBX 3 6 0 0
BITMAP
E0
E0
80
E0
80
E0
ENDCHAR
STARTCHAR uni0207
ENCODING 519
SWIDTH 500 0
DWIDTH 4 0
BBX 3 6 0 0
BITMAP
E0
00
E0
E0
80
E0
ENDCHAR
STARTCHAR uni0208
ENCODING 520
SWIDTH 500 0
DWIDTH 4 0
BBX 3 6 0 0
BITMAP
A0
E0
40
40
40
E0
ENDCHAR
STARTCHAR uni0209
ENCODING 521
SWIDTH 500 0
DWIDTH 4 0
BBX 3 6 0 0
BITMAP
A0
00
40
40
40
40
ENDCHAR
STARTCHAR uni020A
ENCODING 522
SWIDTH 500 0
DWIDTH 4 0
BBX 3 6 0 0
BITMAP
E0
E0
40
40
40
E0
ENDCHAR
STARTCHAR uni020B
ENCODING 523
SWIDTH 500 0
DWIDTH 4 0
BBX 3 6 0 0
BITMAP
A0
00
40
40
40
40
ENDCHAR
STARTCHAR uni020C
ENCODING 524
SWIDTH 500 0
DWIDTH 4 0
BBX 3 6 0 0
BITMAP
A0
E0
A0
A0
A0
E0
ENDCHAR
STARTCHAR uni020D
ENCODING 525
SWIDTH 500 0
DWIDTH 4 0
BBX 3 6 0 0
BITMAP
A0
00
E0
A0
A0
E0
ENDCHAR
STARTCHAR uni020E
ENCODING 526
SWIDTH 500 0
DWIDTH 4 0
BBX 3 6 0 0
BITMAP
E0
E0
A0
A0
A0
E0
ENDCHAR
STARTCHAR uni020F
ENCODING 527
SWIDTH 500 0
DWIDTH 4 0
BBX 3 6 0 0
BITMAP
E0
00
E0
A0
A0
E0
ENDCHAR
STARTCHAR uni0210
ENCODING 528
SWIDTH 500 0
DWIDTH 4 0
BBX 3 6 0 0
BITMAP
A0
E0
A0
C0
A0
A0
ENDCHAR
STARTCHAR uni0211
ENCODING 529
SWIDTH 500 0
DWIDTH 4 0
BBX 3 6 0 0
BITMAP
A0
00
E0
80
80
80
ENDCHAR
STARTCHAR uni0212
ENCODING 530
SWIDTH 500 0
DWIDTH 4 0
BBX 3 6 0 0
BITMAP
E0
E0
A0
C0
A0
A0
ENDCHAR
STARTCHAR uni0213
ENCODING 531
SWIDTH 500 0
DWIDTH 4 0
BBX 3 6 0 0
BITMAP
E0
00
E0
80
80
80
ENDCHAR
STARTCHAR uni0214
ENCODING 532
SWIDTH 500 0
DWIDTH 4 0
BBX 3 6 0 0
BITMAP
A0
00
A0
A0
A0
E0
ENDCHAR
STARTCHAR uni0215
ENCODING 533
SWIDTH 500 0
DWIDTH 4 0
BBX 3 6 0 0
BITMAP
A0
00
A0
A0
A0
E0
ENDCHAR
STARTCHAR uni0216
ENCODING 534
SWIDTH 500 0
DWIDTH 4 0
BBX 3 6 0 0
BITMAP
A0
00
A0
A0
A0
E0
ENDCHAR
STARTCHAR uni0217
ENCODING 535
SWIDTH 500 0
DWIDTH 4 0
BBX 3 6 0 0
BITMAP
A0
00
A0
A0
A0
E0
ENDCHAR
STARTCHAR uni0218
ENCODING 536
SWIDTH 500 0
DWIDTH 4 0
BBX 3 7 0 -2
BITMAP
E0
80
40
20
E0
40
80
ENDCHAR
STARTCHAR uni0219
ENCODING 537
SWIDTH 500 0
DWIDTH 4 0
BBX 3 6 0 -2
BITMAP
E0
80
20
E0
40
80
ENDCHAR
STARTCHAR uni021A
ENCODING 538
SWIDTH 500 0
DWIDTH 4 0
BBX 3 7 0 -2
BITMAP
E0
40
40
40
40
40
20
ENDCHAR
STARTCHAR uni021B
ENCODING 539
SWIDTH 500 0
DWIDTH 4 0
BBX 3 7 0 -2
BITMAP
40
E0
40
40
60
40
20
ENDCHAR
STARTCHAR uni021C
ENCODING 540
SWIDTH 500 0
DWIDTH 4 0
BBX 3 6 0 -1
BITMAP
C0
20
C0
20
20
C0
ENDCHAR
STARTCHAR uni021D
ENCODING 541
SWIDTH 500 0
DWIDTH 4 0
BBX 3 5 0 -1
BITMAP
C0
20
C0
20
C0
ENDCHAR
STARTCHAR uni021E
ENCODING 542
SWIDTH 500 0
DWIDTH 4 0
BBX 3 6 0 0
BITMAP
E0
00
A0
E0
A0
A0
ENDCHAR
STARTCHAR uni021F
ENCODING 543
SWIDTH 500 0
DWIDTH 4 0
BBX 3 6 0 0
BITMAP
E0
00
80
E0
A0
A0
ENDCHAR
STARTCHAR uni0220
ENCODING 544
SWIDTH 500 0
DWIDTH 4 0
BBX 3 7 0 -2
BITMAP
E0
A0
A0
A0
A0
20
20
ENDCHAR
STARTCHAR uni0221
ENCODING 545
SWIDTH 500 0
DWIDTH 4 0
BBX 4 6 0 0
BITMAP
20
20
E0
A0
B0
F0
ENDCHAR
STARTCHAR uni0222
ENCODING 546
SWIDTH 500 0
DWIDTH 4 0
BBX 3 5 0 0
BITMAP
A0
A0
E0
A0
E0
ENDCHAR
STARTCHAR uni0223
ENCODING 547
SWIDTH 500 0
DWIDTH 4 0
BBX 3 4 0 0
BITMAP
A0
E0
A0
E0
ENDCHAR
STARTCHAR uni0224
ENCODING 548
SWIDTH 500 0
DWIDTH 4 0
BBX 3 7 0 -2
BITMAP
E0
20
40
80
E0
20
40
ENDCHAR
STARTCHAR uni0225
ENCODING 549
SWIDTH 500 0
DWIDTH 4 0
BBX 3 6 0 -2
BITMAP
E0
20
80
E0
20
40
ENDCHAR
STARTCHAR uni0226
ENCODING 550
SWIDTH 500 0
DWIDTH 4 0
BBX 3 6 0 0
BITMAP
40
E0
A0
A0
E0
A0
ENDCHAR
STARTCHAR uni0227
ENCODING 551
SWIDTH 500 0
DWIDTH 4 0
BBX 3 6 0 0
BITMAP
40
00
E0
20
E0
E0
ENDCHAR
STARTCHAR uni0228
ENCODING 552
SWIDTH 500 0
DWIDTH 4 0
BBX 3 7 0 -2
BITMAP
E0
80
E0
80
E0
40
80
ENDCHAR
STARTCHAR uni0229
ENCODING 553
SWIDTH 500 0
DWIDTH 4 0
BBX 3 6 0 -2
BITMAP
E0
E0
80
E0
40
80
ENDCHAR
STARTCHAR uni022A
ENCODING 554
SWIDTH 500 0
DWIDTH 4 0
BBX 3 6 0 0
BITMAP
E0
A0
00
E0
A0
E0
ENDCHAR
STARTCHAR uni022B
ENCODING 555
SWIDTH 500 0
DWIDTH 4 0
BBX 3 6 0 0
BITMAP
E0
A0
00
E0
A0
E0
ENDCHAR
STARTCHAR uni022C
ENCODING 556
SWIDTH 500 0
DWIDTH 4 0
BBX 3 6 0 0
BITMAP
E0
60
C0
E0
A0
E0
ENDCHAR
STARTCHAR uni022D
ENCODING 557
SWIDTH 500 0
DWIDTH 4 0
BBX 3 6 0 0
BITMAP
E0
60
C0
E0
A0
E0
ENDCHAR
STARTCHAR uni022E
ENCODING 558
SWIDTH 500 0
DWIDTH 4 0
BBX 3 6 0 0
BITMAP
40
E0
A0
A0
A0
E0
ENDCHAR
STARTCHAR uni022F
ENCODING 559
SWIDTH 500 0
DWIDTH 4 0
BBX 3 6 0 0
BITMAP
40
00
E0
A0
A0
E0
ENDCHAR
STARTCHAR uni0230
ENCODING 560
SWIDTH 500 0
DWIDTH 4 0
BBX 3 6 0 0
BITMAP
E0
40
E0
A0
A0
E0
ENDCHAR
STARTCHAR uni0231
ENCODING 561
SWIDTH 500 0
DWIDTH 4 0
BBX 3 6 0 0
BITMAP
E0
40
E0
A0
A0
E0
ENDCHAR
STARTCHAR uni0232
ENCODING 562
SWIDTH 500 0
DWIDTH 4 0
BBX 3 6 0 0
BITMAP
E0
00
A0
A0
40
40
ENDCHAR
STARTCHAR uni0233
ENCODING 563
SWIDTH 500 0
DWIDTH 4 0
BBX 3 8 0 -2
BITMAP
E0
00
A0
A0
A0
E0
20
E0
ENDCHAR
STARTCHAR uni0234
ENCODING 564
SWIDTH 500 0
DWIDTH 4 0
BBX 2 8 1 -2
BITMAP
80
80
80
80
C0
C0
40
80
ENDCHAR
STARTCHAR uni0235
ENCODING 565
SWIDTH 500 0
DWIDTH 4 0
BBX 4 5 0 -1
BITMAP
E0
A0
B0
B0
20
ENDCHAR
STARTCHAR uni0236
ENCODING 566
SWIDTH 500 0
DWIDTH 4 0
BBX 3 8 0 -2
BITMAP
40
E0
40
40
60
60
20
40
ENDCHAR
STARTCHAR uni0237
ENCODING 567
SWIDTH 500 0
DWIDTH 4 0
BBX 2 6 0 -2
BITMAP
40
40
40
40
40
C0
ENDCHAR
STARTCHAR uni0238
ENCODING 568
SWIDTH 500 0
DWIDTH 4 0
BBX 3 6 0 0
BITMAP
40
40
E0
E0
E0
E0
ENDCHAR
STARTCHAR uni0239
ENCODING 569
SWIDTH 500 0
DWIDTH 4 0
BBX 3 6 0 -2
BITMAP
E0
E0
E0
E0
40
40
ENDCHAR
STARTCHAR uni023A
ENCODING 570
SWIDTH 500 0
DWIDTH 4 0
BBX 4 5 0 0
BITMAP
E0
B0
E0
E0
A0
ENDCHAR
STARTCHAR uni023B
ENCODING 571
SWIDTH 500 0
DWIDTH 4 0
BBX 4 5 0 0
BITMAP
E0
90
A0
C0
E0
ENDCHAR
STARTCHAR uni023C
ENCODING 572
SWIDTH 500 0
DWIDTH 4 0
BBX 4 4 0 0
BITMAP
F0
A0
C0
E0
ENDCHAR
STARTCHAR uni023D
ENCODING 573
SWIDTH 500 0
DWIDTH 4 0
BBX 3 5 0 0
BITMAP
80
80
C0
80
E0
ENDCHAR
STARTCHAR uni023E
ENCODING 574
SWIDTH 500 0
DWIDTH 4 0
BBX 3 5 0 0
BITMAP
E0
40
60
C0
40
ENDCHAR
STARTCHAR uni023F
ENCODING 575
SWIDTH 500 0
DWIDTH 4 0
BBX 3 6 0 -2
BITMAP
E0
80
20
E0
40
20
ENDCHAR
STARTCHAR uni0240
ENCODING 576
SWIDTH 500 0
DWIDTH 4 0
BBX 3 6 0 -2
BITMAP
E0
20
40
80
40
20
ENDCHAR
STARTCHAR uni0241
ENCODING 577
SWIDTH 500 0
DWIDTH 4 0
BBX 3 5 0 0
BITMAP
E0
20
60
40
40
ENDCHAR
STARTCHAR uni0242
ENCODING 578
SWIDTH 500 0
DWIDTH 4 0
BBX 3 4 0 0
BITMAP
E0
20
60
40
ENDCHAR
STARTCHAR uni0243
ENCODING 579
SWIDTH 500 0
DWIDTH 4 0
BBX 3 5 0 0
BITMAP
C0
A0
C0
E0
C0
ENDCHAR
STARTCHAR uni0244
ENCODING 580
SWIDTH 500 0
DWIDTH 4 0
BBX 4 5 0 0
BITMAP
A0
A0
F0
A0
E0
ENDCHAR
STARTCHAR uni0245
ENCODING 581
SWIDTH 500 0
DWIDTH 4 0
BBX 3 5 0 0
BITMAP
40
A0
A0
A0
A0
ENDCHAR
STARTCHAR uni0246
ENCODING 582
SWIDTH 500 0
DWIDTH 4 0
BBX 3 6 0 0
BITMAP
20
E0
C0
E0
C0
E0
ENDCHAR
STARTCHAR uni0247
ENCODING 583
SWIDTH 500 0
DWIDTH 4 0
BBX 3 6 0 0
BITMAP
20
40
E0
E0
C0
E0
ENDCHAR
STARTCHAR uni0248
ENCODING 584
SWIDTH 500 0
DWIDTH 4 0
BBX 4 6 0 0
BITMAP
20
20
70
20
A0
E0
ENDCHAR
STARTCHAR uni0249
ENCODING 585
SWIDTH 500 0
DWIDTH 4 0
BBX 3 8 0 -2
BITMAP
40
00
40
E0
40
40
40
C0
ENDCHAR
STARTCHAR uni024A
ENCODING 586
SWIDTH 500 0
DWIDTH 4 0
BBX 4 7 0 -2
BITMAP
E0
A0
A0
A0
E0
20
30
ENDCHAR
STARTCHAR uni024B
ENCODING 587
SWIDTH 500 0
DWIDTH 4 0
BBX 4 6 0 -2
BITMAP
E0
A0
A0
E0
20
30
ENDCHAR
STARTCHAR uni024C
ENCODING 588
SWIDTH 500 0
DWIDTH 4 0
BBX 4 5 0 0
BITMAP
70
50
E0
50
50
ENDCHAR
STARTCHAR uni024D
ENCODING 589
SWIDTH 500 0
DWIDTH 4 0
BBX 3 4 0 0
BITMAP
E0
80
C0
80
ENDCHAR
STARTCHAR uni024E
ENCODING 590
SWIDTH 500 0
DWIDTH 4 0
BBX 4 5 0 0
BITMAP
A0
F0
A0
40
40
ENDCHAR
STARTCHAR uni024F
ENCODING 591
SWIDTH 500 0
DWIDTH 4 0
BBX 4 6 0 -2
BITMAP
A0
F0
A0
E0
20
E0
ENDCHAR
STARTCHAR uni0250
ENCODING 592
SWIDTH 500 0
DWIDTH 4 0
BBX 3 4 0 0
BITMAP
E0
E0
80
60
ENDCHAR
STARTCHAR uni0251
ENCODING 593
SWIDTH 500 0
DWIDTH 4 0
BBX 3 4 0 0
BITMAP
60
A0
A0
E0
ENDCHAR
STARTCHAR uni0252
ENCODING 594
SWIDTH 500 0
DWIDTH 4 0
BBX 3 4 0 0
BITMAP
C0
A0
A0
E0
ENDCHAR
STARTCHAR uni0253
ENCODING 595
SWIDTH 500 0
DWIDTH 4 0
BBX 3 6 0 0
BITMAP
C0
80
C0
A0
A0
E0
ENDCHAR
STARTCHAR uni0254
ENCODING 596
SWIDTH 500 0
DWIDTH 4 0
BBX 3 4 0 0
BITMAP
E0
20
20
E0
ENDCHAR
STARTCHAR uni0255
ENCODING 597
SWIDTH 500 0
DWIDTH 4 0
BBX 3 5 0 -1
BITMAP
E0
80
E0
E0
40
ENDCHAR
STARTCHAR uni0256
ENCODING 598
SWIDTH 500 0
DWIDTH 4 0
BBX 4 8 0 -2
BITMAP
20
20
E0
A0
A0
E0
20
10
ENDCHAR
STARTCHAR uni0257
ENCODING 599
SWIDTH 500 0
DWIDTH 4 0
BBX 4 6 0 0
BITMAP
30
20
E0
A0
A0
E0
ENDCHAR
STARTCHAR uni0258
ENCODING 600
SWIDTH 500 0
DWIDTH 4 0
BBX 3 4 0 0
BITMAP
E0
E0
20
E0
ENDCHAR
STARTCHAR uni0259
ENCODING 601
SWIDTH 500 0
DWIDTH 4 0
BBX 3 4 0 0
BITMAP
C0
20
E0
C0
ENDCHAR
STARTCHAR uni025A
ENCODING 602
SWIDTH 500 0
DWIDTH 4 0
BBX 4 4 0 0
BITMAP
C0
30
E0
C0
ENDCHAR
STARTCHAR uni025B
ENCODING 603
SWIDTH 500 0
DWIDTH 4 0
BBX 3 5 0 -1
BITMAP
60
80
40
80
60
ENDCHAR
STARTCHAR uni025C
ENCODING 604
SWIDTH 500 0
DWIDTH 4 0
BBX 3 5 0 -1
BITMAP
C0
20
40
20
C0
ENDCHAR
STARTCHAR uni025D
ENCODING 605
SWIDTH 500 0
DWIDTH 4 0
BBX 4 5 0 -1
BITMAP
C0
30
40
20
C0
ENDCHAR
STARTCHAR uni025E
ENCODING 606
SWIDTH 500 0
DWIDTH 4 0
BBX 3 5 0 -1
BITMAP
40
A0
C0
A0
40
ENDCHAR
STARTCHAR uni025F
ENCODING 607
SWIDTH 500 0
DWIDTH 4 0
BBX 4 5 0 0
BITMAP
20
70
20
A0
E0
ENDCHAR
STARTCHAR uni0260
ENCODING 608
SWIDTH 500 0
DWIDTH 4 0
BBX 4 7 0 -2
BITMAP
30
60
A0
A0
E0
20
E0
ENDCHAR
STARTCHAR uni0261
ENCODING 609
SWIDTH 500 0
DWIDTH 4 0
BBX 3 6 0 -2
BITMAP
60
A0
A0
E0
20
E0
ENDCHAR
STARTCHAR uni0262
ENCODING 610
SWIDTH 500 0
DWIDTH 4 0
BBX 3 4 0 0
BITMAP
E0
80
A0
E0
ENDCHAR
STARTCHAR uni0263
ENCODING 611
SWIDTH 500 0
DWIDTH 4 0
BBX 3 5 0 -1
BITMAP
A0
A0
40
A0
E0
ENDCHAR
STARTCHAR uni0264
ENCODING 612
SWIDTH 500 0
DWIDTH 4 0
BBX 3 4 0 0
BITMAP
A0
40
A0
E0
ENDCHAR
STARTCHAR uni0265
ENCODING 613
SWIDTH 500 0
DWIDTH 4 0
BBX 3 6 0 -2
BITMAP
A0
A0
A0
E0
20
20
ENDCHAR
STARTCHAR uni0266
ENCODING 614
SWIDTH 500 0
DWIDTH 4 0
BBX 3 6 0 0
BITMAP
C0
80
E0
A0
A0
A0
ENDCHAR
STARTCHAR uni0267
ENCODING 615
SWIDTH 500 0
DWIDTH 4 0
BBX 3 8 0 -2
BITMAP
C0
80
E0
A0
A0
A0
20
40
ENDCHAR
STARTCHAR uni0268
ENCODING 616
SWIDTH 500 0
DWIDTH 4 0
BBX 3 6 0 0
BITMAP
40
00
40
E0
40
40
ENDCHAR
STARTCHAR uni0269
ENCODING 617
SWIDTH 500 0
DWIDTH 4 0
BBX 2 4 1 0
BITMAP
80
80
80
C0
ENDCHAR
STARTCHAR uni026A
ENCODING 618
SWIDTH 500 0
DWIDTH 4 0
BBX 3 4 0 0
BITMAP
E0
40
40
E0
ENDCHAR
STARTCHAR uni026B
ENCODING 619
SWIDTH 500 0
DWIDTH 4 0
BBX 3 6 0 0
BITMAP
40
40
E0
E0
40
40
ENDCHAR
STARTCHAR uni026C
ENCODING 620
SWIDTH 500 0
DWIDTH 4 0
BBX 3 6 0 0
BITMAP
40
40
C0
E0
40
40
ENDCHAR
STARTCHAR uni026D
ENCODING 621
SWIDTH 500 0
DWIDTH 4 0
BBX 2 8 1 -2
BITMAP
80
80
80
80
80
80
80
40
ENDCHAR
STARTCHAR uni026E
ENCODING 622
SWIDTH 500 0
DWIDTH 4 0
BBX 4 8 0 -2
BITMAP
80
80
F0
90
A0
90
10
60
ENDCHAR
STARTCHAR uni026F
ENCODING 623
SWIDTH 500 0
DWIDTH 4 0
BBX 3 4 0 0
BITMAP
A0
E0
E0
60
ENDCHAR
STARTCHAR uni0270
ENCODING 624
SWIDTH 500 0
DWIDTH 4 0
BBX 3 6 0 -2
BITMAP
A0
E0
E0
60
20
20
ENDCHAR
STARTCHAR uni0271
ENCODING 625
SWIDTH 500 0
DWIDTH 4 0
BBX 3 6 0 -2
BITMAP
A0
E0
E0
E0
20
40
ENDCHAR
STARTCHAR uni0272
ENCODING 626
SWIDTH 500 0
DWIDTH 4 0
BBX 3 6 0 -2
BITMAP
E0
A0
A0
A0
80
80
ENDCHAR
STARTCHAR uni0273
ENCODING 627
SWIDTH 500 0
DWIDTH 4 0
BBX 4 6 0 -2
BITMAP
E0
A0
A0
A0
20
10
ENDCHAR
STARTCHAR uni0274
ENCODING 628
SWIDTH 500 0
DWIDTH 4 0
BBX 3 4 0 0
BITMAP
A0
E0
E0
A0
ENDCHAR
STARTCHAR uni0275
ENCODING 629
SWIDTH 500 0
DWIDTH 4 0
BBX 3 4 0 0
BITMAP
E0
E0
A0
E0
ENDCHAR
STARTCHAR uni0276
ENCODING 630
SWIDTH 500 0
DWIDTH 4 0
BBX 4 5 0 0
BITMAP
F0
A0
B0
A0
F0
ENDCHAR
STARTCHAR uni0277
ENCODING 631
SWIDTH 500 0
DWIDTH 4 0
BBX 3 4 0 0
BITMAP
40
A0
E0
E0
ENDCHAR
STARTCHAR uni0278
ENCODING 632
SWIDTH 500 0
DWIDTH 4 0
BBX 3 6 0 -1
BITMAP
40
E0
E0
E0
E0
40
ENDCHAR
STARTCHAR circumflex
ENCODING 710
SWIDTH 500 0
DWIDTH 4 0
BBX 3 2 0 3
BITMAP
40
A0
ENDCHAR
STARTCHAR caron
ENCODING 711
SWIDTH 500 0
DWIDTH 4 0
BBX 3 2 0 4
BITMAP
A0
40
ENDCHAR
STARTCHAR breve
ENCODING 728
SWIDTH 500 0
DWIDTH 4 0
BBX 3 1 0 5
BITMAP
E0
ENDCHAR
STARTCHAR dotaccent
ENCODING 729
SWIDTH 500 0
DWIDTH 4 0
BBX 1 1 1 5
BITMAP
80
ENDCHAR
STARTCHAR ring
ENCODING 730
SWIDTH 500 0
DWIDTH 4 0
BBX 3 3 0 3
BITMAP
E0
A0
E0
ENDCHAR
STARTCHAR ogonek
ENCODING 731
SWIDTH 500 0
DWIDTH 4 0
BBX 2 2 1 -2
BITMAP
80
40
ENDCHAR
STARTCHAR tilde
ENCODING 732
SWIDTH 500 0
DWIDTH 4 0
BBX 3 2 0 3
BITMAP
60
C0
ENDCHAR
STARTCHAR hungarumlaut
ENCODING 733
SWIDTH 500 0
DWIDTH 4 0
BBX 3 2 0 4
BITMAP
A0
A0
ENDCHAR
STARTCHAR tonos
ENCODING 900
SWIDTH 500 0
DWIDTH 4 0
BBX 2 2 1 4
BITMAP
40
80
ENDCHAR
STARTCHAR dieresistonos
ENCODING 901
SWIDTH 500 0
DWIDTH 4 0
BBX 3 3 0 3
BITMAP
60
00
A0
ENDCHAR
STARTCHAR Alphatonos
ENCODING 902
SWIDTH 500 0
DWIDTH 4 0
BBX 3 6 0 0
BITMAP
80
E0
A0
E0
A0
A0
ENDCHAR
STARTCHAR Epsilontonos
ENCODING 904
SWIDTH 500 0
DWIDTH 4 0
BBX 3 6 0 0
BITMAP
80
E0
80
E0
80
E0
ENDCHAR
STARTCHAR Etatonos
ENCODING 905
SWIDTH 500 0
DWIDTH 4 0
BBX 3 5 0 0
BITMAP
A0
A0
E0
A0
A0
ENDCHAR
STARTCHAR Iotatonos
ENCODING 906
SWIDTH 500 0
DWIDTH 4 0
BBX 3 6 0 0
BITMAP
80
E0
40
40
40
E0
ENDCHAR
STARTCHAR Omicrontonos
ENCODING 908
SWIDTH 500 0
DWIDTH 4 0
BBX 3 6 0 0
BITMAP
80
E0
A0
A0
A0
E0
ENDCHAR
STARTCHAR Upsilontonos
ENCODING 910
SWIDTH 500 0
DWIDTH 4 0
BBX 3 6 0 0
BITMAP
80
00
A0
A0
40
40
ENDCHAR
STARTCHAR Omegatonos
ENCODING 911
SWIDTH 500 0
DWIDTH 4 0
BBX 3 6 0 0
BITMAP
80
E0
A0
A0
40
A0
ENDCHAR
STARTCHAR iotadieresistonos
ENCODING 912
SWIDTH 500 0
DWIDTH 4 0
BBX 3 6 0 0
BITMAP
60
A0
40
40
40
60
ENDCHAR
STARTCHAR Alpha
ENCODING 913
SWIDTH 500 0
DWIDTH 4 0
BBX 3 5 0 0
BITMAP
E0
A0
E0
A0
A0
ENDCHAR
STARTCHAR Beta
ENCODING 914
SWIDTH 500 0
DWIDTH 4 0
BBX 3 5 0 0
BITMAP
E0
A0
C0
A0
E0
ENDCHAR
STARTCHAR Gamma
ENCODING 915
SWIDTH 500 0
DWIDTH 4 0
BBX 3 5 0 0
BITMAP
E0
80
80
80
80
ENDCHAR
STARTCHAR uni0394
ENCODING 916
SWIDTH 500 0
DWIDTH 4 0
BBX 3 5 0 0
BITMAP
40
A0
A0
A0
E0
ENDCHAR
STARTCHAR Epsilon
ENCODING 917
SWIDTH 500 0
DWIDTH 4 0
BBX 3 5 0 0
BITMAP
E0
80
E0
80
E0
ENDCHAR
STARTCHAR Zeta
ENCODING 918
SWIDTH 500 0
DWIDTH 4 0
BBX 3 5 0 0
BITMAP
E0
20
40
80
E0
ENDCHAR
STARTCHAR Eta
ENCODING 919
SWIDTH 500 0
DWIDTH 4 0
BBX 3 5 0 0
BITMAP
A0
A0
E0
A0
A0
ENDCHAR
STARTCHAR Theta
ENCODING 920
SWIDTH 500 0
DWIDTH 4 0
BBX 3 5 0 0
BITMAP
E0
A0
40
A0
E0
ENDCHAR
STARTCHAR Iota
ENCODING 921
SWIDTH 500 0
DWIDTH 4 0
BBX 3 5 0 0
BITMAP
E0
40
40
40
E0
ENDCHAR
STARTCHAR Kappa
ENCODING 922
SWIDTH 500 0
DWIDTH 4 0
BBX 3 5 0 0
BITMAP
A0
A0
C0
A0
A0
ENDCHAR
STARTCHAR Lambda
ENCODING 923
SWIDTH 500 0
DWIDTH 4 0
BBX 3 5 0 0
BITMAP
40
A0
A0
A0
A0
ENDCHAR
STARTCHAR Mu
ENCODING 924
SWIDTH 500 0
DWIDTH 4 0
BBX 3 5 0 0
BITMAP
E0
E0
E0
A0
A0
ENDCHAR
STARTCHAR Nu
ENCODING 925
SWIDTH 500 0
DWIDTH 4 0
BBX 3 5 0 0
BITMAP
A0
E0
E0
E0
A0
ENDCHAR
STARTCHAR Xi
ENCODING 926
SWIDTH 500 0
DWIDTH 4 0
BBX 3 5 0 0
BITMAP
E0
00
40
00
E0
ENDCHAR
STARTCHAR Omicron
ENCODING 927
SWIDTH 500 0
DWIDTH 4 0
BBX 3 5 0 0
BITMAP
E0
A0
A0
A0
E0
ENDCHAR
STARTCHAR Pi
ENCODING 928
SWIDTH 500 0
DWIDTH 4 0
BBX 3 5 0 0
BITMAP
E0
A0
A0
A0
A0
ENDCHAR
STARTCHAR Rho
ENCODING 929
SWIDTH 500 0
DWIDTH 4 0
BBX 3 5 0 0
BITMAP
E0
A0
E0
80
80
ENDCHAR
STARTCHAR Sigma
ENCODING 931
SWIDTH 500 0
DWIDTH 4 0
BBX 3 5 0 0
BITMAP
E0
80
40
80
E0
ENDCHAR
STARTCHAR Tau
ENCODING 932
SWIDTH 500 0
DWIDTH 4 0
BBX 3 5 0 0
BITMAP
E0
40
40
40
40
ENDCHAR
STARTCHAR Upsilon
ENCODING 933
SWIDTH 500 0
DWIDTH 4 0
BBX 3 5 0 0
BITMAP
A0
A0
40
40
40
ENDCHAR
STARTCHAR Phi
ENCODING 934
SWIDTH 500 0
DWIDTH 4 0
BBX 3 6 0 0
BITMAP
40
E0
E0
E0
E0
40
ENDCHAR
STARTCHAR Chi
ENCODING 935
SWIDTH 500 0
DWIDTH 4 0
BBX 3 5 0 0
BITMAP
A0
A0
40
A0
A0
ENDCHAR
STARTCHAR Psi
ENCODING 936
SWIDTH 500 0
DWIDTH 4 0
BBX 3 5 0 0
BITMAP
A0
E0
E0
40
40
ENDCHAR
STARTCHAR uni03A9
ENCODING 937
SWIDTH 500 0
DWIDTH 4 0
BBX 3 5 0 0
BITMAP
E0
A0
A0
40
A0
ENDCHAR
STARTCHAR Iotadieresis
ENCODING 938
SWIDTH 500 0
DWIDTH 4 0
BBX 3 6 0 0
BITMAP
A0
E0
40
40
40
E0
ENDCHAR
STARTCHAR Upsilondieresis
ENCODING 939
SWIDTH 500 0
DWIDTH 4 0
BBX 3 6 0 0
BITMAP
A0
00
A0
A0
40
40
ENDCHAR
STARTCHAR alphatonos
ENCODING 940
SWIDTH 500 0
DWIDTH 4 0
BBX 3 6 0 0
BITMAP
60
00
E0
C0
C0
E0
ENDCHAR
STARTCHAR epsilontonos
ENCODING 941
SWIDTH 500 0
DWIDTH 4 0
BBX 3 7 0 -1
BITMAP
60
00
60
80
40
80
60
ENDCHAR
STARTCHAR etatonos
ENCODING 942
SWIDTH 500 0
DWIDTH 4 0
BBX 3 8 0 -2
BITMAP
60
00
E0
A0
A0
A0
20
20
ENDCHAR
STARTCHAR iotatonos
ENCODING 943
SWIDTH 500 0
DWIDTH 4 0
BBX 2 6 1 0
BITMAP
C0
00
80
80
80
C0
ENDCHAR
STARTCHAR upsilondieresistonos
ENCODING 944
SWIDTH 500 0
DWIDTH 4 0
BBX 3 6 0 0
BITMAP
60
A0
00
A0
A0
E0
ENDCHAR
STARTCHAR alpha
ENCODING 945
SWIDTH 500 0
DWIDTH 4 0
BBX 3 4 0 0
BITMAP
E0
C0
C0
E0
ENDCHAR
STARTCHAR beta
ENCODING 946
SWIDTH 500 0
DWIDTH 4 0
BBX 3 6 0 -1
BITMAP
40
A0
C0
A0
E0
80
ENDCHAR
STARTCHAR gamma
ENCODING 947
SWIDTH 500 0
DWIDTH 4 0
BBX 3 6 0 -2
BITMAP
A0
A0
A0
E0
20
E0
ENDCHAR
STARTCHAR delta
ENCODING 948
SWIDTH 500 0
DWIDTH 4 0
BBX 3 6 0 0
BITMAP
E0
80
40
E0
A0
E0
ENDCHAR
STARTCHAR epsilon
ENCODING 949
SWIDTH 500 0
DWIDTH 4 0
BBX 3 5 0 -1
BITMAP
60
80
40
80
60
ENDCHAR
STARTCHAR zeta
ENCODING 950
SWIDTH 500 0
DWIDTH 4 0
BBX 3 8 0 -2
BITMAP
E0
20
40
80
80
E0
20
40
ENDCHAR
STARTCHAR eta
ENCODING 951
SWIDTH 500 0
DWIDTH 4 0
BBX 3 6 0 -2
BITMAP
E0
A0
A0
A0
20
20
ENDCHAR
STARTCHAR theta
ENCODING 952
SWIDTH 500 0
DWIDTH 4 0
BBX 3 5 0 0
BITMAP
60
A0
E0
A0
C0
ENDCHAR
STARTCHAR iota
ENCODING 953
SWIDTH 500 0
DWIDTH 4 0
BBX 2 4 1 0
BITMAP
80
80
80
C0
ENDCHAR
STARTCHAR kappa
ENCODING 954
SWIDTH 500 0
DWIDTH 4 0
BBX 3 4 0 0
BITMAP
A0
C0
C0
A0
ENDCHAR
STARTCHAR lambda
ENCODING 955
SWIDTH 500 0
DWIDTH 4 0
BBX 3 6 0 0
BITMAP
80
40
20
60
A0
A0
ENDCHAR
STARTCHAR uni03BC
ENCODING 956
SWIDTH 500 0
DWIDTH 4 0
BBX 3 6 0 -2
BITMAP
A0
A0
A0
E0
80
80
ENDCHAR
STARTCHAR nu
ENCODING 957
SWIDTH 500 0
DWIDTH 4 0
BBX 3 4 0 0
BITMAP
A0
A0
A0
60
ENDCHAR
STARTCHAR xi
ENCODING 958
SWIDTH 500 0
DWIDTH 4 0
BBX 3 7 0 -2
BITMAP
E0
80
40
80
E0
20
40
ENDCHAR
STARTCHAR omicron
ENCODING 959
SWIDTH 500 0
DWIDTH 4 0
BBX 3 4 0 0
BITMAP
E0
A0
A0
E0
ENDCHAR
STARTCHAR pi
ENCODING 960
SWIDTH 500 0
DWIDTH 4 0
BBX 4 4 0 0
BITMAP
E0
A0
A0
90
ENDCHAR
STARTCHAR rho
ENCODING 961
SWIDTH 500 0
DWIDTH 4 0
BBX 3 6 0 -2
BITMAP
60
A0
A0
E0
80
80
ENDCHAR
STARTCHAR sigma1
ENCODING 962
SWIDTH 500 0
DWIDTH 4 0
BBX 3 6 0 -2
BITMAP
E0
80
80
E0
20
40
ENDCHAR
STARTCHAR sigma
ENCODING 963
SWIDTH 500 0
DWIDTH 4 0
BBX 4 4 0 0
BITMAP
F0
A0
A0
E0
ENDCHAR
STARTCHAR tau
ENCODING 964
SWIDTH 500 0
DWIDTH 4 0
BBX 3 4 0 0
BITMAP
E0
40
40
60
ENDCHAR
STARTCHAR upsilon
ENCODING 965
SWIDTH 500 0
DWIDTH 4 0
BBX 3 4 0 0
BITMAP
A0
A0
A0
C0
ENDCHAR
STARTCHAR phi
ENCODING 966
SWIDTH 500 0
DWIDTH 4 0
BBX 3 5 0 -1
BITMAP
60
E0
E0
E0
40
ENDCHAR
STARTCHAR chi
ENCODING 967
SWIDTH 500 0
DWIDTH 4 0
BBX 3 6 0 -2
BITMAP
A0
A0
40
40
A0
A0
ENDCHAR
STARTCHAR psi
ENCODING 968
SWIDTH 500 0
DWIDTH 4 0
BBX 3 4 0 0
BITMAP
A0
E0
E0
40
ENDCHAR
STARTCHAR omega
ENCODING 969
SWIDTH 500 0
DWIDTH 4 0
BBX 3 4 0 0
BITMAP
A0
A0
E0
E0
ENDCHAR
STARTCHAR iotadieresis
ENCODING 970
SWIDTH 500 0
DWIDTH 4 0
BBX 3 6 0 0
BITMAP
A0
00
40
40
40
60
ENDCHAR
STARTCHAR upsilondieresis
ENCODING 971
SWIDTH 500 0
DWIDTH 4 0
BBX 3 6 0 0
BITMAP
A0
00
A0
A0
A0
C0
ENDCHAR
STARTCHAR omicrontonos
ENCODING 972
SWIDTH 500 0
DWIDTH 4 0
BBX 3 6 0 0
BITMAP
60
00
E0
A0
A0
E0
ENDCHAR
STARTCHAR upsilontonos
ENCODING 973
SWIDTH 500 0
DWIDTH 4 0
BBX 3 6 0 0
BITMAP
60
00
A0
A0
A0
C0
ENDCHAR
STARTCHAR omegatonos
ENCODING 974
SWIDTH 500 0
DWIDTH 4 0
BBX 3 6 0 0
BITMAP
60
00
A0
A0
E0
E0
ENDCHAR
STARTCHAR theta1
ENCODING 977
SWIDTH 500 0
DWIDTH 4 0
BBX 3 5 0 0
BITMAP
E0
E0
20
A0
60
ENDCHAR
STARTCHAR Upsilon1
ENCODING 978
SWIDTH 500 0
DWIDTH 4 0
BBX 3 5 0 0
BITMAP
A0
40
40
40
40
ENDCHAR
STARTCHAR phi1
ENCODING 981
SWIDTH 500 0
DWIDTH 4 0
BBX 3 8 0 -2
BITMAP
40
40
E0
E0
E0
E0
40
40
ENDCHAR
STARTCHAR omega1
ENCODING 982
SWIDTH 500 0
DWIDTH 4 0
BBX 3 4 0 0
BITMAP
E0
A0
E0
E0
ENDCHAR
STARTCHAR uni0401
ENCODING 1025
SWIDTH 500 0
DWIDTH 4 0
BBX 3 6 0 0
BITMAP
A0
E0
80
E0
80
E0
ENDCHAR
STARTCHAR uni0402
ENCODING 1026
SWIDTH 500 0
DWIDTH 4 0
BBX 3 8 0 -2
BITMAP
C0
80
E0
A0
A0
A0
20
60
ENDCHAR
STARTCHAR uni0403
ENCODING 1027
SWIDTH 500 0
DWIDTH 4 0
BBX 3 6 0 0
BITMAP
60
E0
80
80
80
80
ENDCHAR
STARTCHAR uni0404
ENCODING 1028
SWIDTH 500 0
DWIDTH 4 0
BBX 3 5 0 0
BITMAP
60
80
E0
80
60
ENDCHAR
STARTCHAR uni0405
ENCODING 1029
SWIDTH 500 0
DWIDTH 4 0
BBX 3 5 0 0
BITMAP
E0
80
40
20
E0
ENDCHAR
STARTCHAR uni0406
ENCODING 1030
SWIDTH 500 0
DWIDTH 4 0
BBX 3 5 0 0
BITMAP
E0
40
40
40
E0
ENDCHAR
STARTCHAR uni0407
ENCODING 1031
SWIDTH 500 0
DWIDTH 4 0
BBX 3 6 0 0
BITMAP
A0
E0
40
40
40
E0
ENDCHAR
STARTCHAR uni0408
ENCODING 1032
SWIDTH 500 0
DWIDTH 4 0
BBX 3 5 0 0
BITMAP
20
20
20
A0
E0
ENDCHAR
STARTCHAR uni0409
ENCODING 1033
SWIDTH 500 0
DWIDTH 4 0
BBX 4 5 0 0
BITMAP
E0
A0
B0
B0
B0
ENDCHAR
STARTCHAR uni040A
ENCODING 1034
SWIDTH 500 0
DWIDTH 4 0
BBX 4 5 0 0
BITMAP
A0
A0
F0
B0
B0
ENDCHAR
STARTCHAR uni040B
ENCODING 1035
SWIDTH 500 0
DWIDTH 4 0
BBX 3 6 0 0
BITMAP
C0
80
E0
A0
A0
A0
ENDCHAR
STARTCHAR uni040C
ENCODING 1036
SWIDTH 500 0
DWIDTH 4 0
BBX 3 6 0 0
BITMAP
60
00
A0
A0
C0
A0
ENDCHAR
STARTCHAR uni040E
ENCODING 1038
SWIDTH 500 0
DWIDTH 4 0
BBX 3 8 0 -2
BITMAP
E0
00
A0
A0
A0
E0
20
E0
ENDCHAR
STARTCHAR uni040F
ENCODING 1039
SWIDTH 500 0
DWIDTH 4 0
BBX 3 5 0 0
BITMAP
A0
A0
A0
E0
40
ENDCHAR
STARTCHAR uni0410
ENCODING 1040
SWIDTH 500 0
DWIDTH 4 0
BBX 3 5 0 0
BITMAP
E0
A0
E0
A0
A0
ENDCHAR
STARTCHAR uni0411
ENCODING 1041
SWIDTH 500 0
DWIDTH 4 0
BBX 3 5 0 0
BITMAP
E0
80
E0
A0
E0
ENDCHAR
STARTCHAR uni0412
ENCODING 1042
SWIDTH 500 0
DWIDTH 4 0
BBX 3 5 0 0
BITMAP
E0
A0
C0
A0
E0
ENDCHAR
STARTCHAR uni0413
ENCODING 1043
SWIDTH 500 0
DWIDTH 4 0
BBX 3 5 0 0
BITMAP
E0
A0
80
80
80
ENDCHAR
STARTCHAR uni0414
ENCODING 1044
SWIDTH 500 0
DWIDTH 4 0
BBX 3 5 0 0
BITMAP
60
60
60
E0
A0
ENDCHAR
STARTCHAR uni0415
ENCODING 1045
SWIDTH 500 0
DWIDTH 4 0
BBX 3 5 0 0
BITMAP
E0
80
E0
80
E0
ENDCHAR
STARTCHAR uni0416
ENCODING 1046
SWIDTH 500 0
DWIDTH 4 0
BBX 3 5 0 0
BITMAP
A0
E0
40
E0
A0
ENDCHAR
STARTCHAR uni0417
ENCODING 1047
SWIDTH 500 0
DWIDTH 4 0
BBX 3 5 0 0
BITMAP
C0
20
40
20
C0
ENDCHAR
STARTCHAR uni0418
ENCODING 1048
SWIDTH 500 0
DWIDTH 4 0
BBX 3 5 0 0
BITMAP
A0
E0
E0
E0
A0
ENDCHAR
STARTCHAR uni0419
ENCODING 1049
SWIDTH 500 0
DWIDTH 4 0
BBX 3 6 0 0
BITMAP
E0
00
A0
E0
E0
A0
ENDCHAR
STARTCHAR uni041A
ENCODING 1050
SWIDTH 500 0
DWIDTH 4 0
BBX 3 5 0 0
BITMAP
A0
A0
C0
A0
A0
ENDCHAR
STARTCHAR uni041B
ENCODING 1051
SWIDTH 500 0
DWIDTH 4 0
BBX 3 5 0 0
BITMAP
60
60
60
60
A0
ENDCHAR
STARTCHAR uni041C
ENCODING 1052
SWIDTH 500 0
DWIDTH 4 0
BBX 3 5 0 0
BITMAP
E0
E0
E0
A0
A0
ENDCHAR
STARTCHAR uni041D
ENCODING 1053
SWIDTH 500 0
DWIDTH 4 0
BBX 3 5 0 0
BITMAP
A0
A0
E0
A0
A0
ENDCHAR
STARTCHAR uni041E
ENCODING 1054
SWIDTH 500 0
DWIDTH 4 0
BBX 3 5 0 0
BITMAP
E0
A0
A0
A0
E0
ENDCHAR
STARTCHAR uni041F
ENCODING 1055
SWIDTH 500 0
DWIDTH 4 0
BBX 3 5 0 0
BITMAP
E0
A0
A0
A0
A0
ENDCHAR
STARTCHAR uni0420
ENCODING 1056
SWIDTH 500 0
DWIDTH 4 0
BBX 3 5 0 0
BITMAP
E0
A0
E0
80
80
ENDCHAR
STARTCHAR uni0421
ENCODING 1057
SWIDTH 500 0
DWIDTH 4 0
BBX 3 5 0 0
BITMAP
E0
80
80
80
E0
ENDCHAR
STARTCHAR uni0422
ENCODING 1058
SWIDTH 500 0
DWIDTH 4 0
BBX 3 5 0 0
BITMAP
E0
40
40
40
40
ENDCHAR
STARTCHAR uni0423
ENCODING 1059
SWIDTH 500 0
DWIDTH 4 0
BBX 3 5 0 0
BITMAP
A0
A0
E0
20
E0
ENDCHAR
STARTCHAR uni0424
ENCODING 1060
SWIDTH 500 0
DWIDTH 4 0
BBX 3 5 0 0
BITMAP
40
E0
E0
E0
40
ENDCHAR
STARTCHAR uni0425
ENCODING 1061
SWIDTH 500 0
DWIDTH 4 0
BBX 3 5 0 0
BITMAP
A0
A0
40
A0
A0
ENDCHAR
STARTCHAR uni0426
ENCODING 1062
SWIDTH 500 0
DWIDTH 4 0
BBX 4 6 0 -1
BITMAP
A0
A0
A0
A0
F0
10
ENDCHAR
STARTCHAR uni0427
ENCODING 1063
SWIDTH 500 0
DWIDTH 4 0
BBX 3 5 0 0
BITMAP
A0
A0
60
20
20
ENDCHAR
STARTCHAR uni0428
ENCODING 1064
SWIDTH 500 0
DWIDTH 4 0
BBX 3 5 0 0
BITMAP
A0
E0
E0
E0
E0
ENDCHAR
STARTCHAR uni0429
ENCODING 1065
SWIDTH 500 0
DWIDTH 4 0
BBX 4 6 0 -1
BITMAP
A0
E0
E0
E0
F0
10
ENDCHAR
STARTCHAR uni042A
ENCODING 1066
SWIDTH 500 0
DWIDTH 4 0
BBX 3 5 0 0
BITMAP
C0
40
60
60
60
ENDCHAR
STARTCHAR uni042B
ENCODING 1067
SWIDTH 500 0
DWIDTH 4 0
BBX 4 5 0 0
BITMAP
90
90
D0
D0
D0
ENDCHAR
STARTCHAR uni042C
ENCODING 1068
SWIDTH 500 0
DWIDTH 4 0
BBX 3 5 0 0
BITMAP
80
80
E0
A0
E0
ENDCHAR
STARTCHAR uni042D
ENCODING 1069
SWIDTH 500 0
DWIDTH 4 0
BBX 3 5 0 0
BITMAP
C0
20
60
20
C0
ENDCHAR
STARTCHAR uni042E
ENCODING 1070
SWIDTH 500 0
DWIDTH 4 0
BBX 4 5 0 0
BITMAP
B0
B0
F0
B0
B0
ENDCHAR
STARTCHAR uni042F
ENCODING 1071
SWIDTH 500 0
DWIDTH 4 0
BBX 3 5 0 0
BITMAP
E0
A0
60
A0
A0
ENDCHAR
STARTCHAR uni0430
ENCODING 1072
SWIDTH 500 0
DWIDTH 4 0
BBX 3 4 0 0
BITMAP
E0
20
E0
E0
ENDCHAR
STARTCHAR uni0431
ENCODING 1073
SWIDTH 500 0
DWIDTH 4 0
BBX 3 5 0 0
BITMAP
60
80
E0
A0
E0
ENDCHAR
STARTCHAR uni0432
ENCODING 1074
SWIDTH 500 0
DWIDTH 4 0
BBX 3 5 0 -1
BITMAP
E0
A0
C0
A0
E0
ENDCHAR
STARTCHAR uni0433
ENCODING 1075
SWIDTH 500 0
DWIDTH 4 0
BBX 3 4 0 0
BITMAP
E0
80
80
80
ENDCHAR
STARTCHAR uni0434
ENCODING 1076
SWIDTH 500 0
DWIDTH 4 0
BBX 3 4 0 0
BITMAP
60
60
E0
A0
ENDCHAR
STARTCHAR uni0435
ENCODING 1077
SWIDTH 500 0
DWIDTH 4 0
BBX 3 4 0 0
BITMAP
E0
E0
80
E0
ENDCHAR
STARTCHAR uni0436
ENCODING 1078
SWIDTH 500 0
DWIDTH 4 0
BBX 3 5 0 -1
BITMAP
A0
E0
40
E0
A0
ENDCHAR
STARTCHAR uni0437
ENCODING 1079
SWIDTH 500 0
DWIDTH 4 0
BBX 3 5 0 0
BITMAP
C0
20
40
20
C0
ENDCHAR
STARTCHAR uni0438
ENCODING 1080
SWIDTH 500 0
DWIDTH 4 0
BBX 3 4 0 0
BITMAP
A0
E0
E0
A0
ENDCHAR
STARTCHAR uni0439
ENCODING 1081
SWIDTH 500 0
DWIDTH 4 0
BBX 3 6 0 0
BITMAP
E0
00
A0
E0
E0
A0
ENDCHAR
STARTCHAR uni043A
ENCODING 1082
SWIDTH 500 0
DWIDTH 4 0
BBX 3 5 0 0
BITMAP
A0
A0
C0
A0
A0
ENDCHAR
STARTCHAR uni043B
ENCODING 1083
SWIDTH 500 0
DWIDTH 4 0
BBX 3 5 0 0
BITMAP
60
60
60
60
A0
ENDCHAR
STARTCHAR uni043C
ENCODING 1084
SWIDTH 500 0
DWIDTH 4 0
BBX 3 5 0 0
BITMAP
E0
E0
E0
A0
A0
ENDCHAR
STARTCHAR uni043D
ENCODING 1085
SWIDTH 500 0
DWIDTH 4 0
BBX 3 5 0 0
BITMAP
A0
A0
E0
A0
A0
ENDCHAR
STARTCHAR uni043E
ENCODING 1086
SWIDTH 500 0
DWIDTH 4 0
BBX 3 5 0 0
BITMAP
E0
A0
A0
A0
E0
ENDCHAR
STARTCHAR uni043F
ENCODING 1087
SWIDTH 500 0
DWIDTH 4 0
BBX 3 5 0 0
BITMAP
E0
A0
A0
A0
A0
ENDCHAR
STARTCHAR uni0440
ENCODING 1088
SWIDTH 500 0
DWIDTH 4 0
BBX 3 6 0 -2
BITMAP
E0
A0
A0
E0
80
80
ENDCHAR
STARTCHAR uni0441
ENCODING 1089
SWIDTH 500 0
DWIDTH 4 0
BBX 3 4 0 0
BITMAP
E0
80
80
E0
ENDCHAR
STARTCHAR uni0442
ENCODING 1090
SWIDTH 500 0
DWIDTH 4 0
BBX 3 4 0 0
BITMAP
E0
40
40
40
ENDCHAR
STARTCHAR uni0443
ENCODING 1091
SWIDTH 500 0
DWIDTH 4 0
BBX 3 6 0 -2
BITMAP
A0
A0
A0
E0
20
E0
ENDCHAR
STARTCHAR uni0444
ENCODING 1092
SWIDTH 500 0
DWIDTH 4 0
BBX 3 8 0 -2
BITMAP
40
40
E0
E0
E0
E0
40
40
ENDCHAR
STARTCHAR uni0445
ENCODING 1093
SWIDTH 500 0
DWIDTH 4 0
BBX 3 4 0 0
BITMAP
A0
40
40
A0
ENDCHAR
STARTCHAR uni0446
ENCODING 1094
SWIDTH 500 0
DWIDTH 4 0
BBX 4 5 0 -1
BITMAP
A0
A0
A0
F0
10
ENDCHAR
STARTCHAR uni0447
ENCODING 1095
SWIDTH 500 0
DWIDTH 4 0
BBX 3 4 0 0
BITMAP
A0
A0
E0
20
ENDCHAR
STARTCHAR uni0448
ENCODING 1096
SWIDTH 500 0
DWIDTH 4 0
BBX 4 5 0 -1
BITMAP
A0
E0
E0
F0
10
ENDCHAR
STARTCHAR uni0449
ENCODING 1097
SWIDTH 500 0
DWIDTH 4 0
BBX 4 5 0 -1
BITMAP
A0
E0
E0
F0
10
ENDCHAR
STARTCHAR uni044A
ENCODING 1098
SWIDTH 500 0
DWIDTH 4 0
BBX 3 4 0 0
BITMAP
C0
40
60
60
ENDCHAR
STARTCHAR uni044B
ENCODING 1099
SWIDTH 500 0
DWIDTH 4 0
BBX 4 4 0 0
BITMAP
90
90
D0
D0
ENDCHAR
STARTCHAR uni044C
ENCODING 1100
SWIDTH 500 0
DWIDTH 4 0
BBX 3 4 0 0
BITMAP
80
80
E0
E0
ENDCHAR
STARTCHAR uni044D
ENCODING 1101
SWIDTH 500 0
DWIDTH 4 0
BBX 3 5 0 -1
BITMAP
C0
20
60
20
C0
ENDCHAR
STARTCHAR uni044E
ENCODING 1102
SWIDTH 500 0
DWIDTH 4 0
BBX 4 4 0 0
BITMAP
B0
B0
F0
B0
ENDCHAR
STARTCHAR uni044F
ENCODING 1103
SWIDTH 500 0
DWIDTH 4 0
BBX 3 4 0 0
BITMAP
60
A0
60
A0
ENDCHAR
STARTCHAR uni0450
ENCODING 1104
SWIDTH 1000 0
DWIDTH 8 0
BBX 3 4 0 0
BITMAP
E0
E0
80
E0
ENDCHAR
STARTCHAR uni0451
ENCODING 1105
SWIDTH 500 0
DWIDTH 4 0
BBX 3 6 0 0
BITMAP
A0
00
E0
E0
80
E0
ENDCHAR
STARTCHAR uni0452
ENCODING 1106
SWIDTH 500 0
DWIDTH 4 0
BBX 3 6 0 0
BITMAP
80
C0
80
E0
A0
A0
ENDCHAR
STARTCHAR uni0453
ENCODING 1107
SWIDTH 500 0
DWIDTH 4 0
BBX 3 7 0 -1
BITMAP
60
00
E0
80
80
80
60
ENDCHAR
STARTCHAR uni0454
ENCODING 1108
SWIDTH 500 0
DWIDTH 4 0
BBX 3 5 0 -1
BITMAP
60
80
C0
80
60
ENDCHAR
STARTCHAR uni0455
ENCODING 1109
SWIDTH 500 0
DWIDTH 4 0
BBX 3 5 0 0
BITMAP
E0
80
40
20
E0
ENDCHAR
STARTCHAR uni0456
ENCODING 1110
SWIDTH 500 0
DWIDTH 4 0
BBX 1 6 1 0
BITMAP
80
00
80
80
80
80
ENDCHAR
STARTCHAR uni0457
ENCODING 1111
SWIDTH 500 0
DWIDTH 4 0
BBX 3 6 0 0
BITMAP
A0
00
40
40
40
40
ENDCHAR
STARTCHAR uni0458
ENCODING 1112
SWIDTH 500 0
DWIDTH 4 0
BBX 3 8 0 -2
BITMAP
A0
00
40
40
40
40
40
C0
ENDCHAR
STARTCHAR uni0459
ENCODING 1113
SWIDTH 500 0
DWIDTH 4 0
BBX 4 4 0 0
BITMAP
60
60
70
B0
ENDCHAR
STARTCHAR uni045A
ENCODING 1114
SWIDTH 500 0
DWIDTH 4 0
BBX 4 4 0 0
BITMAP
A0
A0
F0
B0
ENDCHAR
STARTCHAR uni045B
ENCODING 1115
SWIDTH 500 0
DWIDTH 4 0
BBX 3 6 0 0
BITMAP
80
C0
80
E0
A0
A0
ENDCHAR
STARTCHAR uni045C
ENCODING 1116
SWIDTH 500 0
DWIDTH 4 0
BBX 3 6 0 0
BITMAP
60
00
A0
C0
C0
A0
ENDCHAR
STARTCHAR uni045D
ENCODING 1117
SWIDTH 1000 0
DWIDTH 8 0
BBX 3 6 0 0
BITMAP
C0
00
A0
E0
E0
A0
ENDCHAR
STARTCHAR uni045E
ENCODING 1118
SWIDTH 500 0
DWIDTH 4 0
BBX 3 8 0 -2
BITMAP
E0
00
A0
A0
A0
E0
20
E0
ENDCHAR
STARTCHAR uni045F
ENCODING 1119
SWIDTH 500 0
DWIDTH 4 0
BBX 3 4 0 0
BITMAP
A0
A0
E0
40
ENDCHAR
STARTCHAR uni0460
ENCODING 1120
SWIDTH 500 0
DWIDTH 4 0
BBX 3 5 0 0
BITMAP
A0
A0
A0
E0
E0
ENDCHAR
STARTCHAR uni0461
ENCODING 1121
SWIDTH 500 0
DWIDTH 4 0
BBX 3 4 0 0
BITMAP
A0
A0
E0
E0
ENDCHAR
STARTCHAR uni05D0
ENCODING 1488
SWIDTH 500 0
DWIDTH 4 0
BBX 3 5 0 0
BITMAP
A0
60
40
C0
A0
ENDCHAR
STARTCHAR uni05D1
ENCODING 1489
SWIDTH 500 0
DWIDTH 4 0
BBX 4 5 0 0
BITMAP
C0
20
20
20
F0
ENDCHAR
STARTCHAR uni05D2
ENCODING 1490
SWIDTH 500 0
DWIDTH 4 0
BBX 3 5 0 0
BITMAP
80
40
40
40
A0
ENDCHAR
STARTCHAR uni05D3
ENCODING 1491
SWIDTH 500 0
DWIDTH 4 0
BBX 4 5 0 0
BITMAP
F0
20
20
20
20
ENDCHAR
STARTCHAR uni05D4
ENCODING 1492
SWIDTH 500 0
DWIDTH 4 0
BBX 3 5 0 0
BITMAP
C0
20
A0
A0
A0
ENDCHAR
STARTCHAR uni05D5
ENCODING 1493
SWIDTH 500 0
DWIDTH 4 0
BBX 1 5 1 0
BITMAP
80
80
80
80
80
ENDCHAR
STARTCHAR uni05D6
ENCODING 1494
SWIDTH 500 0
DWIDTH 4 0
BBX 3 5 0 0
BITMAP
E0
20
40
40
40
ENDCHAR
STARTCHAR uni05D7
ENCODING 1495
SWIDTH 500 0
DWIDTH 4 0
BBX 3 5 0 0
BITMAP
C0
A0
A0
A0
A0
ENDCHAR
STARTCHAR uni05D8
ENCODING 1496
SWIDTH 500 0
DWIDTH 4 0
BBX 3 5 0 0
BITMAP
40
20
A0
A0
40
ENDCHAR
STARTCHAR uni05D9
ENCODING 1497
SWIDTH 500 0
DWIDTH 4 0
BBX 1 3 1 2
BITMAP
80
80
80
ENDCHAR
STARTCHAR uni05DA
ENCODING 1498
SWIDTH 500 0
DWIDTH 4 0
BBX 3 7 0 -2
BITMAP
C0
20
20
20
20
20
20
ENDCHAR
STARTCHAR uni05DB
ENCODING 1499
SWIDTH 500 0
DWIDTH 4 0
BBX 3 5 0 0
BITMAP
C0
20
20
20
C0
ENDCHAR
STARTCHAR uni05DC
ENCODING 1500
SWIDTH 500 0
DWIDTH 4 0
BBX 3 6 0 0
BITMAP
80
E0
20
40
40
80
ENDCHAR
STARTCHAR uni05DD
ENCODING 1501
SWIDTH 500 0
DWIDTH 4 0
BBX 3 5 0 0
BITMAP
C0
A0
A0
A0
E0
ENDCHAR
STARTCHAR uni05DE
ENCODING 1502
SWIDTH 500 0
DWIDTH 4 0
BBX 3 6 0 0
BITMAP
80
60
A0
A0
A0
A0
ENDCHAR
STARTCHAR uni05DF
ENCODING 1503
SWIDTH 500 0
DWIDTH 4 0
BBX 1 7 1 -2
BITMAP
80
80
80
80
80
80
80
ENDCHAR
STARTCHAR uni05E0
ENCODING 1504
SWIDTH 500 0
DWIDTH 4 0
BBX 2 5 0 0
BITMAP
80
40
40
40
C0
ENDCHAR
STARTCHAR uni05E1
ENCODING 1505
SWIDTH 500 0
DWIDTH 4 0
BBX 3 5 0 0
BITMAP
C0
A0
A0
A0
40
ENDCHAR
STARTCHAR uni05E2
ENCODING 1506
SWIDTH 500 0
DWIDTH 4 0
BBX 3 6 0 -1
BITMAP
A0
A0
A0
A0
40
80
ENDCHAR
STARTCHAR uni05E3
ENCODING 1507
SWIDTH 500 0
DWIDTH 4 0
BBX 3 5 0 0
BITMAP
C0
A0
A0
20
20
ENDCHAR
STARTCHAR uni05E4
ENCODING 1508
SWIDTH 500 0
DWIDTH 4 0
BBX 3 5 0 0
BITMAP
E0
A0
20
20
E0
ENDCHAR
STARTCHAR uni05E5
ENCODING 1509
SWIDTH 500 0
DWIDTH 4 0
BBX 3 5 0 0
BITMAP
A0
A0
60
40
40
ENDCHAR
STARTCHAR uni05E6
ENCODING 1510
SWIDTH 500 0
DWIDTH 4 0
BBX 3 5 0 0
BITMAP
A0
A0
40
20
E0
ENDCHAR
STARTCHAR uni05E7
ENCODING 1511
SWIDTH 500 0
DWIDTH 4 0
BBX 3 5 0 0
BITMAP
E0
20
A0
A0
80
ENDCHAR
STARTCHAR uni05E8
ENCODING 1512
SWIDTH 500 0
DWIDTH 4 0
BBX 3 5 0 0
BITMAP
C0
20
20
20
20
ENDCHAR
STARTCHAR uni05E9
ENCODING 1513
SWIDTH 500 0
DWIDTH 4 0
BBX 4 4 0 0
BITMAP
D0
D0
90
E0
ENDCHAR
STARTCHAR uni05EA
ENCODING 1514
SWIDTH 500 0
DWIDTH 4 0
BBX 4 5 0 0
BITMAP
E0
50
50
50
90
ENDCHAR
STARTCHAR uni060C
ENCODING 1548
SWIDTH 500 0
DWIDTH 4 0
BBX 1 2 1 -1
BITMAP
80
80
ENDCHAR
STARTCHAR uni061B
ENCODING 1563
SWIDTH 500 0
DWIDTH 4 0
BBX 1 4 1 0
BITMAP
80
80
00
80
ENDCHAR
STARTCHAR uni061F
ENCODING 1567
SWIDTH 500 0
DWIDTH 4 0
BBX 3 5 0 0
BITMAP
E0
80
40
00
40
ENDCHAR
STARTCHAR uni0621
ENCODING 1569
SWIDTH 500 0
DWIDTH 4 0
BBX 3 4 0 -1
BITMAP
E0
80
60
80
ENDCHAR
STARTCHAR uni0622
ENCODING 1570
SWIDTH 500 0
DWIDTH 4 0
BBX 3 6 0 0
BITMAP
E0
40
40
40
40
40
ENDCHAR
STARTCHAR uni0623
ENCODING 1571
SWIDTH 500 0
DWIDTH 4 0
BBX 3 6 0 0
BITMAP
60
E0
40
40
40
40
ENDCHAR
STARTCHAR uni0624
ENCODING 1572
SWIDTH 500 0
DWIDTH 4 0
BBX 4 8 0 -2
BITMAP
30
70
00
70
50
70
10
F0
ENDCHAR
STARTCHAR uni0625
ENCODING 1573
SWIDTH 500 0
DWIDTH 4 0
BBX 3 8 0 -2
BITMAP
40
40
40
40
40
40
60
E0
ENDCHAR
STARTCHAR uni0626
ENCODING 1574
SWIDTH 500 0
DWIDTH 4 0
BBX 4 7 0 -1
BITMAP
60
E0
00
30
20
A0
E0
ENDCHAR
STARTCHAR uni0627
ENCODING 1575
SWIDTH 500 0
DWIDTH 4 0
BBX 1 6 1 0
BITMAP
80
80
80
80
80
80
ENDCHAR
STARTCHAR uni0628
ENCODING 1576
SWIDTH 500 0
DWIDTH 4 0
BBX 4 5 0 -2
BITMAP
90
90
F0
00
40
ENDCHAR
STARTCHAR uni0629
ENCODING 1577
SWIDTH 500 0
DWIDTH 4 0
BBX 3 5 0 0
BITMAP
A0
00
E0
A0
E0
ENDCHAR
STARTCHAR uni062A
ENCODING 1578
SWIDTH 500 0
DWIDTH 4 0
BBX 4 5 0 0
BITMAP
A0
00
90
90
F0
ENDCHAR
STARTCHAR uni062B
ENCODING 1579
SWIDTH 500 0
DWIDTH 4 0
BBX 4 6 0 0
BITMAP
40
A0
00
90
90
F0
ENDCHAR
STARTCHAR uni062C
ENCODING 1580
SWIDTH 500 0
DWIDTH 4 0
BBX 4 5 0 -2
BITMAP
F0
40
A0
80
70
ENDCHAR
STARTCHAR uni062D
ENCODING 1581
SWIDTH 500 0
DWIDTH 4 0
BBX 4 5 0 -2
BITMAP
F0
40
80
80
70
ENDCHAR
STARTCHAR uni062E
ENCODING 1582
SWIDTH 500 0
DWIDTH 4 0
BBX 4 7 0 -2
BITMAP
40
00
F0
40
80
80
70
ENDCHAR
STARTCHAR uni062F
ENCODING 1583
SWIDTH 500 0
DWIDTH 4 0
BBX 3 3 0 0
BITMAP
20
20
E0
ENDCHAR
STARTCHAR uni0630
ENCODING 1584
SWIDTH 500 0
DWIDTH 4 0
BBX 3 5 0 0
BITMAP
40
00
20
20
E0
ENDCHAR
STARTCHAR uni0631
ENCODING 1585
SWIDTH 500 0
DWIDTH 4 0
BBX 4 5 0 -2
BITMAP
10
10
10
10
E0
ENDCHAR
STARTCHAR uni0632
ENCODING 1586
SWIDTH 500 0
DWIDTH 4 0
BBX 4 7 0 -2
BITMAP
20
00
10
10
10
10
E0
ENDCHAR
STARTCHAR uni0633
ENCODING 1587
SWIDTH 500 0
DWIDTH 4 0
BBX 4 4 0 -1
BITMAP
50
70
F0
C0
ENDCHAR
STARTCHAR uni0634
ENCODING 1588
SWIDTH 500 0
DWIDTH 4 0
BBX 4 7 0 -1
BITMAP
20
50
00
50
70
F0
C0
ENDCHAR
STARTCHAR uni0635
ENCODING 1589
SWIDTH 500 0
DWIDTH 4 0
BBX 4 4 0 -1
BITMAP
70
50
F0
C0
ENDCHAR
STARTCHAR uni0636
ENCODING 1590
SWIDTH 500 0
DWIDTH 4 0
BBX 4 6 0 -1
BITMAP
40
00
70
50
F0
C0
ENDCHAR
STARTCHAR uni0637
ENCODING 1591
SWIDTH 500 0
DWIDTH 4 0
BBX 4 6 0 0
BITMAP
40
40
40
70
50
F0
ENDCHAR
STARTCHAR uni0638
ENCODING 1592
SWIDTH 500 0
DWIDTH 4 0
BBX 4 6 0 0
BITMAP
40
50
40
70
50
F0
ENDCHAR
STARTCHAR uni0639
ENCODING 1593
SWIDTH 500 0
DWIDTH 4 0
BBX 3 6 0 -2
BITMAP
60
40
E0
80
80
E0
ENDCHAR
STARTCHAR uni063A
ENCODING 1594
SWIDTH 500 0
DWIDTH 4 0
BBX 3 8 0 -2
BITMAP
40
00
60
40
E0
80
80
E0
ENDCHAR
STARTCHAR uni0640
ENCODING 1600
SWIDTH 500 0
DWIDTH 4 0
BBX 4 1 0 0
BITMAP
F0
ENDCHAR
STARTCHAR uni0641
ENCODING 1601
SWIDTH 500 0
DWIDTH 4 0
BBX 4 5 0 0
BITMAP
20
00
30
90
F0
ENDCHAR
STARTCHAR uni0642
ENCODING 1602
SWIDTH 500 0
DWIDTH 4 0
BBX 4 7 0 -2
BITMAP
A0
00
30
30
90
90
F0
ENDCHAR
STARTCHAR uni0643
ENCODING 1603
SWIDTH 500 0
DWIDTH 4 0
BBX 4 6 0 0
BITMAP
10
50
D0
10
90
F0
ENDCHAR
STARTCHAR uni0644
ENCODING 1604
SWIDTH 500 0
DWIDTH 4 0
BBX 4 8 0 -2
BITMAP
10
10
10
10
10
10
90
F0
ENDCHAR
STARTCHAR uni0645
ENCODING 1605
SWIDTH 500 0
DWIDTH 4 0
BBX 4 5 0 -2
BITMAP
70
50
F0
80
80
ENDCHAR
STARTCHAR uni0646
ENCODING 1606
SWIDTH 500 0
DWIDTH 4 0
BBX 4 3 0 0
BITMAP
10
90
F0
ENDCHAR
STARTCHAR uni0647
ENCODING 1607
SWIDTH 500 0
DWIDTH 4 0
BBX 3 3 0 0
BITMAP
E0
A0
E0
ENDCHAR
STARTCHAR uni0648
ENCODING 1608
SWIDTH 500 0
DWIDTH 4 0
BBX 4 5 0 -2
BITMAP
70
50
70
10
F0
ENDCHAR
STARTCHAR uni0649
ENCODING 1609
SWIDTH 500 0
DWIDTH 4 0
BBX 4 4 0 -1
BITMAP
30
20
A0
E0
ENDCHAR
STARTCHAR uni064A
ENCODING 1610
SWIDTH 500 0
DWIDTH 4 0
BBX 4 5 0 -2
BITMAP
30
20
A0
E0
50
ENDCHAR
STARTCHAR uni064B
ENCODING 1611
SWIDTH 500 0
DWIDTH 4 0
BBX 3 2 1 4
BITMAP
60
E0
ENDCHAR
STARTCHAR uni064C
ENCODING 1612
SWIDTH 500 0
DWIDTH 4 0
BBX 4 4 0 2
BITMAP
30
B0
70
20
ENDCHAR
STARTCHAR uni064D
ENCODING 1613
SWIDTH 500 0
DWIDTH 4 0
BBX 3 2 1 -2
BITMAP
60
E0
ENDCHAR
STARTCHAR uni064E
ENCODING 1614
SWIDTH 500 0
DWIDTH 4 0
BBX 3 1 1 3
BITMAP
E0
ENDCHAR
STARTCHAR uni064F
ENCODING 1615
SWIDTH 500 0
DWIDTH 4 0
BBX 4 4 0 2
BITMAP
30
30
F0
20
ENDCHAR
STARTCHAR uni0650
ENCODING 1616
SWIDTH 500 0
DWIDTH 4 0
BBX 3 1 1 -1
BITMAP
E0
ENDCHAR
STARTCHAR uni0651
ENCODING 1617
SWIDTH 500 0
DWIDTH 4 0
BBX 3 3 1 3
BITMAP
A0
E0
E0
ENDCHAR
STARTCHAR uni0652
ENCODING 1618
SWIDTH 500 0
DWIDTH 4 0
BBX 3 3 1 3
BITMAP
E0
A0
E0
ENDCHAR
STARTCHAR uni1E02
ENCODING 7682
SWIDTH 500 0
DWIDTH 4 0
BBX 3 6 0 0
BITMAP
40
E0
A0
C0
A0
E0
ENDCHAR
STARTCHAR uni1E03
ENCODING 7683
SWIDTH 500 0
DWIDTH 4 0
BBX 3 6 0 0
BITMAP
80
80
E0
A0
A0
E0
ENDCHAR
STARTCHAR uni1E0A
ENCODING 7690
SWIDTH 500 0
DWIDTH 4 0
BBX 3 6 0 0
BITMAP
40
C0
A0
A0
A0
C0
ENDCHAR
STARTCHAR uni1E0B
ENCODING 7691
SWIDTH 500 0
DWIDTH 4 0
BBX 3 6 0 0
BITMAP
40
00
20
E0
A0
E0
ENDCHAR
STARTCHAR uni1E1E
ENCODING 7710
SWIDTH 500 0
DWIDTH 4 0
BBX 3 6 0 0
BITMAP
40
E0
80
E0
80
80
ENDCHAR
STARTCHAR uni1E1F
ENCODING 7711
SWIDTH 500 0
DWIDTH 4 0
BBX 3 6 0 0
BITMAP
40
00
60
40
E0
40
ENDCHAR
STARTCHAR uni1E40
ENCODING 7744
SWIDTH 500 0
DWIDTH 4 0
BBX 3 6 0 0
BITMAP
40
00
E0
E0
A0
A0
ENDCHAR
STARTCHAR uni1E41
ENCODING 7745
SWIDTH 500 0
DWIDTH 4 0
BBX 3 6 0 0
BITMAP
40
00
E0
E0
A0
A0
ENDCHAR
STARTCHAR uni1E56
ENCODING 7766
SWIDTH 500 0
DWIDTH 4 0
BBX 3 6 0 0
BITMAP
40
E0
A0
E0
80
80
ENDCHAR
STARTCHAR uni1E57
ENCODING 7767
SWIDTH 500 0
DWIDTH 4 0
BBX 3 8 0 -2
BITMAP
40
00
E0
A0
A0
E0
80
80
ENDCHAR
STARTCHAR uni1E60
ENCODING 7776
SWIDTH 500 0
DWIDTH 4 0
BBX 3 6 0 0
BITMAP
40
E0
80
40
20
E0
ENDCHAR
STARTCHAR uni1E61
ENCODING 7777
SWIDTH 500 0
DWIDTH 4 0
BBX 3 6 0 0
BITMAP
40
00
E0
80
20
E0
ENDCHAR
STARTCHAR uni1E6A
ENCODING 7786
SWIDTH 500 0
DWIDTH 4 0
BBX 3 6 0 0
BITMAP
40
E0
40
40
40
40
ENDCHAR
STARTCHAR uni1E6B
ENCODING 7787
SWIDTH 500 0
DWIDTH 4 0
BBX 3 6 0 0
BITMAP
40
40
E0
40
40
60
ENDCHAR
STARTCHAR Wgrave
ENCODING 7808
SWIDTH 500 0
DWIDTH 4 0
BBX 3 6 0 0
BITMAP
C0
00
A0
E0
E0
E0
ENDCHAR
STARTCHAR wgrave
ENCODING 7809
SWIDTH 500 0
DWIDTH 4 0
BBX 3 6 0 0
BITMAP
C0
00
A0
E0
E0
E0
ENDCHAR
STARTCHAR Wacute
ENCODING 7810
SWIDTH 500 0
DWIDTH 4 0
BBX 3 6 0 0
BITMAP
C0
00
A0
E0
E0
E0
ENDCHAR
STARTCHAR wacute
ENCODING 7811
SWIDTH 500 0
DWIDTH 4 0
BBX 3 6 0 0
BITMAP
60
00
A0
E0
E0
E0
ENDCHAR
STARTCHAR Wdieresis
ENCODING 7812
SWIDTH 500 0
DWIDTH 4 0
BBX 3 6 0 0
BITMAP
A0
00
A0
E0
E0
E0
ENDCHAR
STARTCHAR wdieresis
ENCODING 7813
SWIDTH 500 0
DWIDTH 4 0
BBX 3 6 0 0
BITMAP
A0
00
A0
E0
E0
E0
ENDCHAR
STARTCHAR Ygrave
ENCODING 7922
SWIDTH 500 0
DWIDTH 4 0
BBX 3 6 0 0
BITMAP
C0
00
A0
A0
40
40
ENDCHAR
STARTCHAR ygrave
ENCODING 7923
SWIDTH 500 0
DWIDTH 4 0
BBX 3 8 0 -2
BITMAP
C0
00
A0
A0
A0
E0
20
E0
ENDCHAR
STARTCHAR endash
ENCODING 8211
SWIDTH 500 0
DWIDTH 4 0
BBX 2 1 1 2
BITMAP
C0
ENDCHAR
STARTCHAR emdash
ENCODING 8212
SWIDTH 500 0
DWIDTH 4 0
BBX 4 1 0 2
BITMAP
F0
ENDCHAR
STARTCHAR uni2015
ENCODING 8213
SWIDTH 500 0
DWIDTH 4 0
BBX 4 1 0 2
BITMAP
F0
ENDCHAR
STARTCHAR underscoredbl
ENCODING 8215
SWIDTH 500 0
DWIDTH 4 0
BBX 4 1 0 -1
BITMAP
F0
ENDCHAR
STARTCHAR quoteleft
ENCODING 8216
SWIDTH 500 0
DWIDTH 4 0
BBX 2 3 1 3
BITMAP
40
80
80
ENDCHAR
STARTCHAR quoteright
ENCODING 8217
SWIDTH 500 0
DWIDTH 4 0
BBX 2 3 0 3
BITMAP
40
40
80
ENDCHAR
STARTCHAR quotesinglbase
ENCODING 8218
SWIDTH 500 0
DWIDTH 4 0
BBX 2 3 0 -2
BITMAP
40
40
80
ENDCHAR
STARTCHAR quotedblleft
ENCODING 8220
SWIDTH 500 0
DWIDTH 4 0
BBX 4 3 0 3
BITMAP
50
A0
A0
ENDCHAR
STARTCHAR quotedblright
ENCODING 8221
SWIDTH 500 0
DWIDTH 4 0
BBX 4 3 0 3
BITMAP
50
50
A0
ENDCHAR
STARTCHAR quotedblbase
ENCODING 8222
SWIDTH 500 0
DWIDTH 4 0
BBX 4 3 0 -2
BITMAP
50
50
A0
ENDCHAR
STARTCHAR dagger
ENCODING 8224
SWIDTH 500 0
DWIDTH 4 0
BBX 3 6 0 -1
BITMAP
40
E0
40
40
40
40
ENDCHAR
STARTCHAR daggerdbl
ENCODING 8225
SWIDTH 500 0
DWIDTH 4 0
BBX 3 8 0 -2
BITMAP
40
40
E0
40
40
E0
40
40
ENDCHAR
STARTCHAR bullet
ENCODING 8226
SWIDTH 500 0
DWIDTH 4 0
BBX 4 4 0 0
BITMAP
60
F0
F0
60
ENDCHAR
STARTCHAR ellipsis
ENCODING 8230
SWIDTH 500 0
DWIDTH 4 0
BBX 3 5 0 0
BITMAP
20
00
40
00
80
ENDCHAR
STARTCHAR perthousand
ENCODING 8240
SWIDTH 500 0
DWIDTH 4 0
BBX 4 5 0 0
BITMAP
A0
20
40
80
B0
ENDCHAR
STARTCHAR minute
ENCODING 8242
SWIDTH 500 0
DWIDTH 4 0
BBX 1 2 1 3
BITMAP
80
80
ENDCHAR
STARTCHAR second
ENCODING 8243
SWIDTH 500 0
DWIDTH 4 0
BBX 3 2 0 3
BITMAP
A0
A0
ENDCHAR
STARTCHAR guilsinglleft
ENCODING 8249
SWIDTH 500 0
DWIDTH 4 0
BBX 2 3 0 1
BITMAP
40
80
40
ENDCHAR
STARTCHAR guilsinglright
ENCODING 8250
SWIDTH 500 0
DWIDTH 4 0
BBX 2 3 1 1
BITMAP
80
40
80
ENDCHAR
STARTCHAR fraction
ENCODING 8260
SWIDTH 500 0
DWIDTH 4 0
BBX 3 6 0 0
BITMAP
20
20
40
40
80
80
ENDCHAR
STARTCHAR Euro
ENCODING 8364
SWIDTH 500 0
DWIDTH 4 0
BBX 4 6 0 0
BITMAP
30
40
E0
E0
40
30
ENDCHAR
STARTCHAR uni20AF
ENCODING 8367
SWIDTH 500 0
DWIDTH 4 0
BBX 4 7 0 -2
BITMAP
C0
A0
B0
B0
F0
20
20
ENDCHAR
STARTCHAR Ifraktur
ENCODING 8465
SWIDTH 500 0
DWIDTH 4 0
BBX 3 5 0 0
BITMAP
E0
20
20
20
C0
ENDCHAR
STARTCHAR uni2116
ENCODING 8470
SWIDTH 500 0
DWIDTH 4 0
BBX 4 5 0 0
BITMAP
A0
F0
F0
E0
B0
ENDCHAR
STARTCHAR weierstrass
ENCODING 8472
SWIDTH 500 0
DWIDTH 4 0
BBX 3 7 0 -2
BITMAP
80
60
A0
A0
C0
80
80
ENDCHAR
STARTCHAR Rfraktur
ENCODING 8476
SWIDTH 500 0
DWIDTH 4 0
BBX 3 5 0 0
BITMAP
E0
A0
C0
E0
A0
ENDCHAR
STARTCHAR trademark
ENCODING 8482
SWIDTH 500 0
DWIDTH 4 0
BBX 3 7 0 -2
BITMAP
E0
40
40
00
E0
E0
A0
ENDCHAR
STARTCHAR Omega
ENCODING 8486
SWIDTH 500 0
DWIDTH 4 0
BBX 3 5 0 0
BITMAP
E0
A0
A0
40
A0
ENDCHAR
STARTCHAR aleph
ENCODING 8501
SWIDTH 500 0
DWIDTH 4 0
BBX 3 6 0 0
BITMAP
A0
A0
C0
60
A0
A0
ENDCHAR
STARTCHAR arrowleft
ENCODING 8592
SWIDTH 500 0
DWIDTH 4 0
BBX 4 3 0 1
BITMAP
40
F0
40
ENDCHAR
STARTCHAR arrowup
ENCODING 8593
SWIDTH 500 0
DWIDTH 4 0
BBX 3 5 0 0
BITMAP
40
E0
40
40
40
ENDCHAR
STARTCHAR arrowright
ENCODING 8594
SWIDTH 500 0
DWIDTH 4 0
BBX 4 3 0 1
BITMAP
20
F0
20
ENDCHAR
STARTCHAR arrowdown
ENCODING 8595
SWIDTH 500 0
DWIDTH 4 0
BBX 3 5 0 0
BITMAP
40
40
40
E0
40
ENDCHAR
STARTCHAR arrowboth
ENCODING 8596
SWIDTH 500 0
DWIDTH 4 0
BBX 4 3 0 1
BITMAP
90
F0
90
ENDCHAR
STARTCHAR carriagereturn
ENCODING 8629
SWIDTH 500 0
DWIDTH 4 0
BBX 4 4 0 0
BITMAP
10
50
F0
40
ENDCHAR
STARTCHAR arrowdblleft
ENCODING 8656
SWIDTH 500 0
DWIDTH 4 0
BBX 4 5 0 0
BITMAP
20
70
C0
70
20
ENDCHAR
STARTCHAR arrowdblup
ENCODING 8657
SWIDTH 500 0
DWIDTH 4 0
BBX 3 5 0 1
BITMAP
40
E0
A0
A0
A0
ENDCHAR
STARTCHAR arrowdblright
ENCODING 8658
SWIDTH 500 0
DWIDTH 4 0
BBX 4 5 0 0
BITMAP
40
E0
10
E0
40
ENDCHAR
STARTCHAR arrowdbldown
ENCODING 8659
SWIDTH 500 0
DWIDTH 4 0
BBX 3 5 0 0
BITMAP
A0
A0
A0
E0
40
ENDCHAR
STARTCHAR arrowdblboth
ENCODING 8660
SWIDTH 500 0
DWIDTH 4 0
BBX 4 5 0 0
BITMAP
90
F0
90
F0
90
ENDCHAR
STARTCHAR universal
ENCODING 8704
SWIDTH 500 0
DWIDTH 4 0
BBX 3 5 0 0
BITMAP
A0
A0
E0
A0
E0
ENDCHAR
STARTCHAR uni2201
ENCODING 8705
SWIDTH 500 0
DWIDTH 4 0
BBX 3 5 0 0
BITMAP
E0
80
80
80
E0
ENDCHAR
STARTCHAR partialdiff
ENCODING 8706
SWIDTH 500 0
DWIDTH 4 0
BBX 3 5 0 0
BITMAP
C0
20
E0
A0
E0
ENDCHAR
STARTCHAR existential
ENCODING 8707
SWIDTH 500 0
DWIDTH 4 0
BBX 3 5 0 0
BITMAP
E0
20
E0
20
E0
ENDCHAR
STARTCHAR uni2204
ENCODING 8708
SWIDTH 500 0
DWIDTH 4 0
BBX 3 7 0 -1
BITMAP
20
E0
60
E0
60
E0
80
ENDCHAR
STARTCHAR emptyset
ENCODING 8709
SWIDTH 500 0
DWIDTH 4 0
BBX 3 7 0 -1
BITMAP
20
E0
E0
E0
E0
E0
80
ENDCHAR
STARTCHAR Delta
ENCODING 8710
SWIDTH 500 0
DWIDTH 4 0
BBX 3 5 0 0
BITMAP
40
A0
A0
A0
E0
ENDCHAR
STARTCHAR gradient
ENCODING 8711
SWIDTH 500 0
DWIDTH 4 0
BBX 3 5 0 0
BITMAP
E0
A0
A0
A0
40
ENDCHAR
STARTCHAR element
ENCODING 8712
SWIDTH 500 0
DWIDTH 4 0
BBX 4 5 0 0
BITMAP
70
80
F0
80
70
ENDCHAR
STARTCHAR notelement
ENCODING 8713
SWIDTH 500 0
DWIDTH 4 0
BBX 4 7 0 -1
BITMAP
20
70
A0
F0
A0
70
20
ENDCHAR
STARTCHAR uni220A
ENCODING 8714
SWIDTH 500 0
DWIDTH 4 0
BBX 4 5 0 -1
BITMAP
70
80
F0
80
70
ENDCHAR
STARTCHAR suchthat
ENCODING 8715
SWIDTH 500 0
DWIDTH 4 0
BBX 4 5 0 0
BITMAP
E0
10
F0
10
E0
ENDCHAR
STARTCHAR uni220C
ENCODING 8716
SWIDTH 500 0
DWIDTH 4 0
BBX 4 7 0 -1
BITMAP
40
E0
50
F0
50
E0
40
ENDCHAR
STARTCHAR uni220D
ENCODING 8717
SWIDTH 500 0
DWIDTH 4 0
BBX 4 5 0 -1
BITMAP
E0
10
F0
10
E0
ENDCHAR
STARTCHAR uni220E
ENCODING 8718
SWIDTH 500 0
DWIDTH 4 0
BBX 3 4 0 0
BITMAP
E0
E0
E0
E0
ENDCHAR
STARTCHAR product
ENCODING 8719
SWIDTH 500 0
DWIDTH 4 0
BBX 3 7 0 -2
BITMAP
E0
A0
A0
A0
A0
A0
A0
ENDCHAR
STARTCHAR uni2210
ENCODING 8720
SWIDTH 500 0
DWIDTH 4 0
BBX 3 7 0 -2
BITMAP
A0
A0
A0
A0
A0
A0
E0
ENDCHAR
STARTCHAR summation
ENCODING 8721
SWIDTH 500 0
DWIDTH 4 0
BBX 3 5 0 0
BITMAP
E0
80
40
80
E0
ENDCHAR
STARTCHAR minus
ENCODING 8722
SWIDTH 500 0
DWIDTH 4 0
BBX 3 1 0 2
BITMAP
E0
ENDCHAR
STARTCHAR uni2213
ENCODING 8723
SWIDTH 500 0
DWIDTH 4 0
BBX 3 5 0 0
BITMAP
E0
00
40
E0
40
ENDCHAR
STARTCHAR uni2214
ENCODING 8724
SWIDTH 500 0
DWIDTH 4 0
BBX 3 5 0 0
BITMAP
40
00
40
E0
40
ENDCHAR
STARTCHAR uni2215
ENCODING 8725
SWIDTH 500 0
DWIDTH 4 0
BBX 3 6 0 -1
BITMAP
20
20
40
40
80
80
ENDCHAR
STARTCHAR uni2216
ENCODING 8726
SWIDTH 500 0
DWIDTH 4 0
BBX 3 6 0 -1
BITMAP
80
80
40
40
20
20
ENDCHAR
STARTCHAR asteriskmath
ENCODING 8727
SWIDTH 500 0
DWIDTH 4 0
BBX 3 5 0 0
BITMAP
A0
40
E0
40
A0
ENDCHAR
STARTCHAR uni2218
ENCODING 8728
SWIDTH 500 0
DWIDTH 4 0
BBX 4 4 0 0
BITMAP
60
90
90
60
ENDCHAR
STARTCHAR uni2219
ENCODING 8729
SWIDTH 500 0
DWIDTH 4 0
BBX 4 4 0 0
BITMAP
60
F0
F0
60
ENDCHAR
STARTCHAR radical
ENCODING 8730
SWIDTH 500 0
DWIDTH 4 0
BBX 4 6 0 0
BITMAP
30
20
20
A0
60
20
ENDCHAR
STARTCHAR uni221B
ENCODING 8731
SWIDTH 500 0
DWIDTH 4 0
BBX 4 6 0 0
BITMAP
F0
60
E0
60
E0
20
ENDCHAR
STARTCHAR uni221C
ENCODING 8732
SWIDTH 500 0
DWIDTH 4 0
BBX 4 6 0 0
BITMAP
F0
E0
60
A0
60
20
ENDCHAR
STARTCHAR proportional
ENCODING 8733
SWIDTH 500 0
DWIDTH 4 0
BBX 4 3 0 0
BITMAP
F0
A0
F0
ENDCHAR
STARTCHAR infinity
ENCODING 8734
SWIDTH 500 0
DWIDTH 4 0
BBX 4 3 0 0
BITMAP
F0
B0
F0
ENDCHAR
STARTCHAR orthogonal
ENCODING 8735
SWIDTH 500 0
DWIDTH 4 0
BBX 3 5 0 0
BITMAP
80
80
80
80
E0
ENDCHAR
STARTCHAR angle
ENCODING 8736
SWIDTH 500 0
DWIDTH 4 0
BBX 3 5 0 0
BITMAP
20
40
40
80
E0
ENDCHAR
STARTCHAR uni2221
ENCODING 8737
SWIDTH 500 0
DWIDTH 4 0
BBX 3 5 0 0
BITMAP
20
40
40
C0
E0
ENDCHAR
STARTCHAR uni2222
ENCODING 8738
SWIDTH 500 0
DWIDTH 4 0
BBX 3 5 0 0
BITMAP
20
40
A0
40
20
ENDCHAR
STARTCHAR uni2223
ENCODING 8739
SWIDTH 500 0
DWIDTH 4 0
BBX 1 7 1 -2
BITMAP
80
80
80
80
80
80
80
ENDCHAR
STARTCHAR uni2224
ENCODING 8740
SWIDTH 500 0
DWIDTH 4 0
BBX 1 7 1 -2
BITMAP
80
80
80
80
80
80
80
ENDCHAR
STARTCHAR uni2225
ENCODING 8741
SWIDTH 500 0
DWIDTH 4 0
BBX 3 8 0 -2
BITMAP
A0
A0
A0
A0
A0
A0
A0
A0
ENDCHAR
STARTCHAR uni2226
ENCODING 8742
SWIDTH 500 0
DWIDTH 4 0
BBX 3 8 0 -2
BITMAP
A0
A0
A0
E0
E0
A0
A0
A0
ENDCHAR
STARTCHAR logicaland
ENCODING 8743
SWIDTH 500 0
DWIDTH 4 0
BBX 3 3 0 1
BITMAP
40
A0
A0
ENDCHAR
STARTCHAR logicalor
ENCODING 8744
SWIDTH 500 0
DWIDTH 4 0
BBX 3 3 0 1
BITMAP
A0
A0
40
ENDCHAR
STARTCHAR intersection
ENCODING 8745
SWIDTH 500 0
DWIDTH 4 0
BBX 3 3 0 1
BITMAP
E0
A0
A0
ENDCHAR
STARTCHAR union
ENCODING 8746
SWIDTH 500 0
DWIDTH 4 0
BBX 3 3 0 1
BITMAP
A0
A0
E0
ENDCHAR
STARTCHAR integral
ENCODING 8747
SWIDTH 500 0
DWIDTH 4 0
BBX 3 8 0 -2
BITMAP
60
60
40
40
40
40
C0
C0
ENDCHAR
STARTCHAR uni222C
ENCODING 8748
SWIDTH 500 0
DWIDTH 4 0
BBX 4 8 0 -2
BITMAP
70
70
60
60
60
60
E0
E0
ENDCHAR
STARTCHAR uni222D
ENCODING 8749
SWIDTH 500 0
DWIDTH 4 0
BBX 4 8 0 -2
BITMAP
F0
F0
E0
E0
E0
E0
E0
E0
ENDCHAR
STARTCHAR uni222E
ENCODING 8750
SWIDTH 500 0
DWIDTH 4 0
BBX 3 8 0 -2
BITMAP
60
60
40
E0
E0
40
C0
C0
ENDCHAR
STARTCHAR uni222F
ENCODING 8751
SWIDTH 500 0
DWIDTH 4 0
BBX 4 8 0 -2
BITMAP
70
70
60
F0
F0
60
E0
E0
ENDCHAR
STARTCHAR uni2230
ENCODING 8752
SWIDTH 500 0
DWIDTH 4 0
BBX 4 8 0 -2
BITMAP
F0
F0
E0
F0
F0
E0
E0
E0
ENDCHAR
STARTCHAR uni2231
ENCODING 8753
SWIDTH 500 0
DWIDTH 4 0
BBX 4 8 0 -2
BITMAP
60
60
40
E0
50
40
C0
C0
ENDCHAR
STARTCHAR uni2232
ENCODING 8754
SWIDTH 500 0
DWIDTH 4 0
BBX 4 8 0 -2
BITMAP
60
60
40
E0
F0
40
C0
C0
ENDCHAR
STARTCHAR uni2233
ENCODING 8755
SWIDTH 500 0
DWIDTH 4 0
BBX 4 8 0 -2
BITMAP
60
60
40
F0
E0
40
C0
C0
ENDCHAR
STARTCHAR therefore
ENCODING 8756
SWIDTH 500 0
DWIDTH 4 0
BBX 3 3 0 1
BITMAP
40
00
A0
ENDCHAR
STARTCHAR uni2235
ENCODING 8757
SWIDTH 500 0
DWIDTH 4 0
BBX 3 3 0 1
BITMAP
A0
00
40
ENDCHAR
STARTCHAR uni2236
ENCODING 8758
SWIDTH 500 0
DWIDTH 4 0
BBX 1 3 1 1
BITMAP
80
00
80
ENDCHAR
STARTCHAR uni2237
ENCODING 8759
SWIDTH 500 0
DWIDTH 4 0
BBX 3 3 0 1
BITMAP
A0
00
A0
ENDCHAR
STARTCHAR uni2238
ENCODING 8760
SWIDTH 500 0
DWIDTH 4 0
BBX 3 3 0 1
BITMAP
40
00
E0
ENDCHAR
STARTCHAR uni2239
ENCODING 8761
SWIDTH 500 0
DWIDTH 4 0
BBX 3 5 0 -1
BITMAP
20
00
C0
00
20
ENDCHAR
STARTCHAR uni223A
ENCODING 8762
SWIDTH 500 0
DWIDTH 4 0
BBX 3 5 0 -1
BITMAP
A0
00
E0
00
A0
ENDCHAR
STARTCHAR uni223B
ENCODING 8763
SWIDTH 500 0
DWIDTH 4 0
BBX 3 6 0 -1
BITMAP
40
00
C0
60
00
40
ENDCHAR
STARTCHAR similar
ENCODING 8764
SWIDTH 500 0
DWIDTH 4 0
BBX 3 2 0 1
BITMAP
60
C0
ENDCHAR
STARTCHAR uni223D
ENCODING 8765
SWIDTH 500 0
DWIDTH 4 0
BBX 3 2 0 1
BITMAP
C0
60
ENDCHAR
STARTCHAR uni223E
ENCODING 8766
SWIDTH 500 0
DWIDTH 4 0
BBX 4 2 0 1
BITMAP
D0
B0
ENDCHAR
STARTCHAR uni223F
ENCODING 8767
SWIDTH 500 0
DWIDTH 4 0
BBX 4 5 0 0
BITMAP
C0
C0
F0
30
30
ENDCHAR
STARTCHAR uni2240
ENCODING 8768
SWIDTH 500 0
DWIDTH 4 0
BBX 2 5 1 0
BITMAP
C0
40
40
80
C0
ENDCHAR
STARTCHAR uni2241
ENCODING 8769
SWIDTH 500 0
DWIDTH 4 0
BBX 3 4 0 0
BITMAP
20
C0
60
80
ENDCHAR
STARTCHAR uni2242
ENCODING 8770
SWIDTH 500 0
DWIDTH 4 0
BBX 3 4 0 0
BITMAP
E0
00
60
C0
ENDCHAR
STARTCHAR uni2243
ENCODING 8771
SWIDTH 500 0
DWIDTH 4 0
BBX 3 4 0 0
BITMAP
60
C0
00
E0
ENDCHAR
STARTCHAR uni2244
ENCODING 8772
SWIDTH 500 0
DWIDTH 4 0
BBX 3 6 0 -1
BITMAP
20
60
C0
40
E0
80
ENDCHAR
STARTCHAR congruent
ENCODING 8773
SWIDTH 500 0
DWIDTH 4 0
BBX 3 6 0 0
BITMAP
60
C0
00
E0
00
E0
ENDCHAR
STARTCHAR uni2246
ENCODING 8774
SWIDTH 500 0
DWIDTH 4 0
BBX 3 7 0 -1
BITMAP
60
C0
00
E0
40
E0
40
ENDCHAR
STARTCHAR uni2247
ENCODING 8775
SWIDTH 500 0
DWIDTH 4 0
BBX 3 7 0 -1
BITMAP
60
C0
40
E0
40
E0
40
ENDCHAR
STARTCHAR approxequal
ENCODING 8776
SWIDTH 500 0
DWIDTH 4 0
BBX 3 5 0 0
BITMAP
60
C0
00
60
C0
ENDCHAR
STARTCHAR uni2249
ENCODING 8777
SWIDTH 500 0
DWIDTH 4 0
BBX 3 7 0 -1
BITMAP
40
60
C0
40
60
C0
40
ENDCHAR
STARTCHAR uni224A
ENCODING 8778
SWIDTH 500 0
DWIDTH 4 0
BBX 3 7 0 -1
BITMAP
60
C0
00
60
C0
00
E0
ENDCHAR
STARTCHAR uni224B
ENCODING 8779
SWIDTH 500 0
DWIDTH 4 0
BBX 3 8 0 -2
BITMAP
60
C0
00
60
C0
00
60
C0
ENDCHAR
STARTCHAR uni224C
ENCODING 8780
SWIDTH 500 0
DWIDTH 4 0
BBX 3 6 0 0
BITMAP
60
C0
00
E0
00
E0
ENDCHAR
STARTCHAR uni224D
ENCODING 8781
SWIDTH 500 0
DWIDTH 4 0
BBX 3 5 0 0
BITMAP
A0
40
00
40
A0
ENDCHAR
STARTCHAR uni224E
ENCODING 8782
SWIDTH 500 0
DWIDTH 4 0
BBX 3 5 0 0
BITMAP
40
A0
00
A0
40
ENDCHAR
STARTCHAR uni224F
ENCODING 8783
SWIDTH 500 0
DWIDTH 4 0
BBX 3 4 0 1
BITMAP
40
A0
00
E0
ENDCHAR
STARTCHAR uni2250
ENCODING 8784
SWIDTH 500 0
DWIDTH 4 0
BBX 3 5 0 1
BITMAP
40
00
E0
00
E0
ENDCHAR
STARTCHAR uni2251
ENCODING 8785
SWIDTH 500 0
DWIDTH 4 0
BBX 3 7 0 -1
BITMAP
40
00
E0
00
E0
00
40
ENDCHAR
STARTCHAR uni2252
ENCODING 8786
SWIDTH 500 0
DWIDTH 4 0
BBX 3 7 0 -1
BITMAP
80
00
E0
00
E0
00
20
ENDCHAR
STARTCHAR uni2253
ENCODING 8787
SWIDTH 500 0
DWIDTH 4 0
BBX 3 7 0 -1
BITMAP
20
00
E0
00
E0
00
80
ENDCHAR
STARTCHAR uni2254
ENCODING 8788
SWIDTH 500 0
DWIDTH 4 0
BBX 4 3 0 1
BITMAP
B0
00
B0
ENDCHAR
STARTCHAR uni2255
ENCODING 8789
SWIDTH 500 0
DWIDTH 4 0
BBX 4 3 0 1
BITMAP
D0
00
D0
ENDCHAR
STARTCHAR uni2256
ENCODING 8790
SWIDTH 500 0
DWIDTH 4 0
BBX 4 3 0 1
BITMAP
F0
A0
F0
ENDCHAR
STARTCHAR uni2257
ENCODING 8791
SWIDTH 500 0
DWIDTH 4 0
BBX 3 7 0 -1
BITMAP
E0
A0
E0
00
E0
00
E0
ENDCHAR
STARTCHAR uni2258
ENCODING 8792
SWIDTH 500 0
DWIDTH 4 0
BBX 3 5 0 1
BITMAP
C0
00
E0
00
E0
ENDCHAR
STARTCHAR uni2259
ENCODING 8793
SWIDTH 500 0
DWIDTH 4 0
BBX 3 6 0 0
BITMAP
40
A0
00
E0
00
E0
ENDCHAR
STARTCHAR uni225A
ENCODING 8794
SWIDTH 500 0
DWIDTH 4 0
BBX 3 6 0 0
BITMAP
A0
40
00
E0
00
E0
ENDCHAR
STARTCHAR uni225B
ENCODING 8795
SWIDTH 500 0
DWIDTH 4 0
BBX 3 7 0 -1
BITMAP
E0
40
A0
00
E0
00
E0
ENDCHAR
STARTCHAR uni225C
ENCODING 8796
SWIDTH 500 0
DWIDTH 4 0
BBX 3 6 0 0
BITMAP
40
E0
00
E0
00
E0
ENDCHAR
STARTCHAR uni225D
ENCODING 8797
SWIDTH 500 0
DWIDTH 4 0
BBX 4 8 0 -2
BITMAP
70
60
F0
E0
00
E0
00
E0
ENDCHAR
STARTCHAR uni225E
ENCODING 8798
SWIDTH 500 0
DWIDTH 4 0
BBX 3 7 0 -1
BITMAP
E0
E0
A0
00
E0
00
E0
ENDCHAR
STARTCHAR uni225F
ENCODING 8799
SWIDTH 500 0
DWIDTH 4 0
BBX 3 8 0 -2
BITMAP
E0
20
40
00
40
E0
00
E0
ENDCHAR
STARTCHAR notequal
ENCODING 8800
SWIDTH 500 0
DWIDTH 4 0
BBX 3 5 0 0
BITMAP
20
E0
40
E0
80
ENDCHAR
STARTCHAR equivalence
ENCODING 8801
SWIDTH 500 0
DWIDTH 4 0
BBX 3 5 0 0
BITMAP
E0
00
E0
00
E0
ENDCHAR
STARTCHAR uni2262
ENCODING 8802
SWIDTH 500 0
DWIDTH 4 0
BBX 3 7 0 -1
BITMAP
20
E0
40
E0
40
E0
80
ENDCHAR
STARTCHAR uni2263
ENCODING 8803
SWIDTH 500 0
DWIDTH 4 0
BBX 3 7 0 -1
BITMAP
E0
00
E0
00
E0
00
E0
ENDCHAR
STARTCHAR lessequal
ENCODING 8804
SWIDTH 500 0
DWIDTH 4 0
BBX 3 7 0 -1
BITMAP
20
40
80
40
20
00
E0
ENDCHAR
STARTCHAR greaterequal
ENCODING 8805
SWIDTH 500 0
DWIDTH 4 0
BBX 3 7 0 -1
BITMAP
80
40
20
40
80
00
E0
ENDCHAR
STARTCHAR uni2266
ENCODING 8806
SWIDTH 500 0
DWIDTH 4 0
BBX 3 8 0 -2
BITMAP
20
40
80
40
20
E0
00
E0
ENDCHAR
STARTCHAR uni2267
ENCODING 8807
SWIDTH 500 0
DWIDTH 4 0
BBX 3 8 0 -2
BITMAP
80
40
20
40
80
E0
00
E0
ENDCHAR
STARTCHAR uni2268
ENCODING 8808
SWIDTH 500 0
DWIDTH 4 0
BBX 3 8 0 -2
BITMAP
20
40
80
40
20
E0
40
E0
ENDCHAR
STARTCHAR uni2269
ENCODING 8809
SWIDTH 500 0
DWIDTH 4 0
BBX 3 8 0 -2
BITMAP
80
40
20
40
80
E0
40
E0
ENDCHAR
STARTCHAR uni226A
ENCODING 8810
SWIDTH 500 0
DWIDTH 4 0
BBX 4 4 0 1
BITMAP
50
A0
A0
50
ENDCHAR
STARTCHAR uni226B
ENCODING 8811
SWIDTH 500 0
DWIDTH 4 0
BBX 4 4 0 1
BITMAP
A0
50
50
A0
ENDCHAR
STARTCHAR propersubset
ENCODING 8834
SWIDTH 500 0
DWIDTH 4 0
BBX 3 3 0 1
BITMAP
E0
80
E0
ENDCHAR
STARTCHAR propersuperset
ENCODING 8835
SWIDTH 500 0
DWIDTH 4 0
BBX 3 3 0 1
BITMAP
E0
20
E0
ENDCHAR
STARTCHAR notsubset
ENCODING 8836
SWIDTH 500 0
DWIDTH 4 0
BBX 3 5 0 0
BITMAP
40
E0
C0
E0
40
ENDCHAR
STARTCHAR reflexsubset
ENCODING 8838
SWIDTH 500 0
DWIDTH 4 0
BBX 3 5 0 -1
BITMAP
E0
80
E0
00
E0
ENDCHAR
STARTCHAR reflexsuperset
ENCODING 8839
SWIDTH 500 0
DWIDTH 4 0
BBX 3 5 0 -1
BITMAP
E0
20
E0
00
E0
ENDCHAR
STARTCHAR circleplus
ENCODING 8853
SWIDTH 500 0
DWIDTH 4 0
BBX 3 7 0 -2
BITMAP
E0
00
40
E0
40
00
E0
ENDCHAR
STARTCHAR circlemultiply
ENCODING 8855
SWIDTH 500 0
DWIDTH 4 0
BBX 3 7 0 -2
BITMAP
E0
00
A0
40
A0
00
E0
ENDCHAR
STARTCHAR perpendicular
ENCODING 8869
SWIDTH 500 0
DWIDTH 4 0
BBX 3 5 0 0
BITMAP
40
40
40
40
E0
ENDCHAR
STARTCHAR uni22C4
ENCODING 8900
SWIDTH 500 0
DWIDTH 4 0
BBX 3 7 0 -1
BITMAP
40
40
A0
A0
A0
40
40
ENDCHAR
STARTCHAR dotmath
ENCODING 8901
SWIDTH 500 0
DWIDTH 4 0
BBX 1 1 1 2
BITMAP
80
ENDCHAR
STARTCHAR integraltp
ENCODING 8992
SWIDTH 500 0
DWIDTH 4 0
BBX 2 6 1 0
BITMAP
C0
C0
80
80
80
80
ENDCHAR
STARTCHAR integralbt
ENCODING 8993
SWIDTH 500 0
DWIDTH 4 0
BBX 2 7 0 -2
BITMAP
40
40
40
40
40
C0
C0
ENDCHAR
STARTCHAR angleleft
ENCODING 9001
SWIDTH 500 0
DWIDTH 4 0
BBX 2 7 0 -1
BITMAP
40
40
80
80
80
40
40
ENDCHAR
STARTCHAR angleright
ENCODING 9002
SWIDTH 500 0
DWIDTH 4 0
BBX 2 7 1 -1
BITMAP
80
80
40
40
40
80
80
ENDCHAR
STARTCHAR uni2460
ENCODING 9312
SWIDTH 500 0
DWIDTH 4 0
BBX 4 8 0 -2
BITMAP
60
90
20
60
20
20
90
60
ENDCHAR
STARTCHAR uni2461
ENCODING 9313
SWIDTH 500 0
DWIDTH 4 0
BBX 4 8 0 -2
BITMAP
60
90
60
20
40
60
90
60
ENDCHAR
STARTCHAR uni2462
ENCODING 9314
SWIDTH 500 0
DWIDTH 4 0
BBX 4 8 0 -2
BITMAP
60
90
60
20
60
20
D0
60
ENDCHAR
STARTCHAR uni2463
ENCODING 9315
SWIDTH 500 0
DWIDTH 4 0
BBX 4 8 0 -2
BITMAP
60
90
60
60
60
20
90
60
ENDCHAR
STARTCHAR uni2464
ENCODING 9316
SWIDTH 500 0
DWIDTH 4 0
BBX 4 8 0 -2
BITMAP
60
90
60
40
20
60
90
60
ENDCHAR
STARTCHAR uni2465
ENCODING 9317
SWIDTH 500 0
DWIDTH 4 0
BBX 4 8 0 -2
BITMAP
60
90
60
40
60
60
90
60
ENDCHAR
STARTCHAR uni2466
ENCODING 9318
SWIDTH 500 0
DWIDTH 4 0
BBX 4 8 0 -2
BITMAP
60
90
60
20
20
20
90
60
ENDCHAR
STARTCHAR uni2467
ENCODING 9319
SWIDTH 500 0
DWIDTH 4 0
BBX 4 8 0 -2
BITMAP
60
90
60
60
20
60
F0
60
ENDCHAR
STARTCHAR uni2468
ENCODING 9320
SWIDTH 500 0
DWIDTH 4 0
BBX 4 8 0 -2
BITMAP
60
90
60
60
20
60
90
60
ENDCHAR
STARTCHAR uni2469
ENCODING 9321
SWIDTH 500 0
DWIDTH 4 0
BBX 4 8 0 -2
BITMAP
60
00
B0
B0
B0
B0
00
60
ENDCHAR
STARTCHAR uni246A
ENCODING 9322
SWIDTH 500 0
DWIDTH 4 0
BBX 3 8 0 -2
BITMAP
60
00
A0
A0
A0
A0
00
60
ENDCHAR
STARTCHAR uni246B
ENCODING 9323
SWIDTH 500 0
DWIDTH 4 0
BBX 4 8 0 -2
BITMAP
60
00
B0
90
A0
B0
00
60
ENDCHAR
STARTCHAR uni246C
ENCODING 9324
SWIDTH 500 0
DWIDTH 4 0
BBX 4 8 0 -2
BITMAP
60
00
B0
90
B0
90
30
60
ENDCHAR
STARTCHAR uni246D
ENCODING 9325
SWIDTH 500 0
DWIDTH 4 0
BBX 4 8 0 -2
BITMAP
60
00
B0
B0
B0
90
00
60
ENDCHAR
STARTCHAR uni246E
ENCODING 9326
SWIDTH 500 0
DWIDTH 4 0
BBX 4 8 0 -2
BITMAP
60
00
B0
A0
90
B0
00
60
ENDCHAR
STARTCHAR uni246F
ENCODING 9327
SWIDTH 500 0
DWIDTH 4 0
BBX 4 8 0 -2
BITMAP
60
00
B0
A0
B0
B0
00
60
ENDCHAR
STARTCHAR uni2470
ENCODING 9328
SWIDTH 500 0
DWIDTH 4 0
BBX 4 8 0 -2
BITMAP
60
00
B0
90
90
90
00
60
ENDCHAR
STARTCHAR uni2471
ENCODING 9329
SWIDTH 500 0
DWIDTH 4 0
BBX 4 8 0 -2
BITMAP
60
00
B0
B0
A0
B0
30
60
ENDCHAR
STARTCHAR uni2472
ENCODING 9330
SWIDTH 500 0
DWIDTH 4 0
BBX 4 8 0 -2
BITMAP
60
00
B0
B0
90
B0
00
60
ENDCHAR
STARTCHAR uni2473
ENCODING 9331
SWIDTH 500 0
DWIDTH 4 0
BBX 4 8 0 -2
BITMAP
60
00
F0
70
B0
F0
00
60
ENDCHAR
STARTCHAR uni2474
ENCODING 9332
SWIDTH 500 0
DWIDTH 4 0
BBX 4 8 0 -2
BITMAP
40
90
B0
F0
B0
B0
90
20
ENDCHAR
STARTCHAR uni2475
ENCODING 9333
SWIDTH 500 0
DWIDTH 4 0
BBX 4 8 0 -2
BITMAP
40
90
F0
B0
D0
F0
90
20
ENDCHAR
STARTCHAR uni2476
ENCODING 9334
SWIDTH 500 0
DWIDTH 4 0
BBX 4 8 0 -2
BITMAP
40
90
F0
B0
F0
B0
F0
20
ENDCHAR
STARTCHAR uni2477
ENCODING 9335
SWIDTH 500 0
DWIDTH 4 0
BBX 4 8 0 -2
BITMAP
40
90
F0
F0
F0
B0
B0
20
ENDCHAR
STARTCHAR uni2478
ENCODING 9336
SWIDTH 500 0
DWIDTH 4 0
BBX 4 8 0 -2
BITMAP
40
90
F0
D0
B0
F0
90
20
ENDCHAR
STARTCHAR uni2479
ENCODING 9337
SWIDTH 500 0
DWIDTH 4 0
BBX 4 8 0 -2
BITMAP
40
90
F0
D0
F0
F0
90
20
ENDCHAR
STARTCHAR uni247A
ENCODING 9338
SWIDTH 500 0
DWIDTH 4 0
BBX 4 8 0 -2
BITMAP
40
90
F0
B0
B0
B0
90
20
ENDCHAR
STARTCHAR uni247B
ENCODING 9339
SWIDTH 500 0
DWIDTH 4 0
BBX 4 8 0 -2
BITMAP
40
90
F0
F0
D0
F0
F0
20
ENDCHAR
STARTCHAR uni247C
ENCODING 9340
SWIDTH 500 0
DWIDTH 4 0
BBX 4 8 0 -2
BITMAP
40
90
F0
F0
B0
F0
90
20
ENDCHAR
STARTCHAR uni247D
ENCODING 9341
SWIDTH 500 0
DWIDTH 4 0
BBX 4 8 0 -2
BITMAP
90
00
B0
B0
B0
B0
00
90
ENDCHAR
STARTCHAR uni247E
ENCODING 9342
SWIDTH 500 0
DWIDTH 4 0
BBX 4 8 0 -2
BITMAP
90
00
A0
A0
A0
A0
00
90
ENDCHAR
STARTCHAR uni247F
ENCODING 9343
SWIDTH 500 0
DWIDTH 4 0
BBX 4 8 0 -2
BITMAP
90
00
B0
90
A0
B0
00
90
ENDCHAR
STARTCHAR uni2480
ENCODING 9344
SWIDTH 500 0
DWIDTH 4 0
BBX 4 8 0 -2
BITMAP
90
00
B0
90
B0
90
30
90
ENDCHAR
STARTCHAR uni2481
ENCODING 9345
SWIDTH 500 0
DWIDTH 4 0
BBX 4 8 0 -2
BITMAP
90
00
B0
B0
B0
90
00
90
ENDCHAR
STARTCHAR uni2482
ENCODING 9346
SWIDTH 1000 0
DWIDTH 4 0
BBX 4 8 0 -2
BITMAP
90
00
B0
A0
90
B0
00
90
ENDCHAR
STARTCHAR uni2483
ENCODING 9347
SWIDTH 500 0
DWIDTH 4 0
BBX 4 8 0 -2
BITMAP
90
00
B0
A0
B0
B0
00
90
ENDCHAR
STARTCHAR uni2484
ENCODING 9348
SWIDTH 500 0
DWIDTH 4 0
BBX 4 8 0 -2
BITMAP
90
00
B0
90
90
90
00
90
ENDCHAR
STARTCHAR uni2485
ENCODING 9349
SWIDTH 500 0
DWIDTH 4 0
BBX 4 8 0 -2
BITMAP
90
00
B0
B0
A0
B0
30
90
ENDCHAR
STARTCHAR uni2486
ENCODING 9350
SWIDTH 500 0
DWIDTH 4 0
BBX 4 8 0 -2
BITMAP
90
00
B0
B0
90
B0
00
90
ENDCHAR
STARTCHAR uni2487
ENCODING 9351
SWIDTH 500 0
DWIDTH 4 0
BBX 4 8 0 -2
BITMAP
90
00
F0
70
B0
F0
00
90
ENDCHAR
STARTCHAR uni2488
ENCODING 9352
SWIDTH 500 0
DWIDTH 4 0
BBX 4 5 0 0
BITMAP
40
C0
40
40
50
ENDCHAR
STARTCHAR uni2489
ENCODING 9353
SWIDTH 500 0
DWIDTH 4 0
BBX 4 5 0 0
BITMAP
C0
40
C0
80
D0
ENDCHAR
STARTCHAR uni248A
ENCODING 9354
SWIDTH 500 0
DWIDTH 4 0
BBX 4 5 0 0
BITMAP
C0
40
C0
40
D0
ENDCHAR
STARTCHAR uni248B
ENCODING 9355
SWIDTH 500 0
DWIDTH 4 0
BBX 4 5 0 0
BITMAP
C0
C0
C0
40
50
ENDCHAR
STARTCHAR uni248C
ENCODING 9356
SWIDTH 500 0
DWIDTH 4 0
BBX 4 5 0 0
BITMAP
C0
80
C0
40
D0
ENDCHAR
STARTCHAR uni248D
ENCODING 9357
SWIDTH 500 0
DWIDTH 4 0
BBX 4 5 0 0
BITMAP
C0
80
C0
C0
D0
ENDCHAR
STARTCHAR uni248E
ENCODING 9358
SWIDTH 500 0
DWIDTH 4 0
BBX 4 5 0 0
BITMAP
C0
40
40
40
50
ENDCHAR
STARTCHAR uni248F
ENCODING 9359
SWIDTH 500 0
DWIDTH 4 0
BBX 4 5 0 0
BITMAP
E0
A0
E0
A0
F0
ENDCHAR
STARTCHAR uni2490
ENCODING 9360
SWIDTH 500 0
DWIDTH 4 0
BBX 4 5 0 0
BITMAP
C0
C0
C0
40
D0
ENDCHAR
STARTCHAR uni2491
ENCODING 9361
SWIDTH 500 0
DWIDTH 4 0
BBX 4 7 0 -2
BITMAP
B0
B0
B0
B0
B0
00
10
ENDCHAR
STARTCHAR uni2492
ENCODING 9362
SWIDTH 500 0
DWIDTH 4 0
BBX 4 7 0 -2
BITMAP
A0
A0
A0
A0
A0
00
10
ENDCHAR
STARTCHAR uni2493
ENCODING 9363
SWIDTH 500 0
DWIDTH 4 0
BBX 4 7 0 -2
BITMAP
B0
90
B0
A0
B0
00
10
ENDCHAR
STARTCHAR uni2494
ENCODING 9364
SWIDTH 500 0
DWIDTH 4 0
BBX 4 7 0 -2
BITMAP
B0
90
B0
90
B0
00
10
ENDCHAR
STARTCHAR uni2495
ENCODING 9365
SWIDTH 500 0
DWIDTH 4 0
BBX 4 7 0 -2
BITMAP
B0
B0
B0
90
90
00
10
ENDCHAR
STARTCHAR uni2496
ENCODING 9366
SWIDTH 500 0
DWIDTH 4 0
BBX 4 7 0 -2
BITMAP
B0
A0
B0
90
B0
00
10
ENDCHAR
STARTCHAR uni2497
ENCODING 9367
SWIDTH 500 0
DWIDTH 4 0
BBX 4 7 0 -2
BITMAP
B0
A0
B0
B0
B0
00
10
ENDCHAR
STARTCHAR uni2498
ENCODING 9368
SWIDTH 500 0
DWIDTH 4 0
BBX 4 7 0 -2
BITMAP
B0
90
90
90
90
00
10
ENDCHAR
STARTCHAR uni2499
ENCODING 9369
SWIDTH 500 0
DWIDTH 4 0
BBX 4 5 0 0
BITMAP
B0
B0
A0
B0
B0
ENDCHAR
STARTCHAR uni249A
ENCODING 9370
SWIDTH 500 0
DWIDTH 4 0
BBX 4 7 0 -2
BITMAP
B0
B0
B0
90
B0
00
10
ENDCHAR
STARTCHAR uni249B
ENCODING 9371
SWIDTH 500 0
DWIDTH 4 0
BBX 4 7 0 -2
BITMAP
F0
70
F0
B0
F0
00
10
ENDCHAR
STARTCHAR uni249C
ENCODING 9372
SWIDTH 500 0
DWIDTH 4 0
BBX 3 8 0 -2
BITMAP
A0
00
E0
20
E0
E0
00
A0
ENDCHAR
STARTCHAR uni249D
ENCODING 9373
SWIDTH 500 0
DWIDTH 4 0
BBX 3 8 0 -2
BITMAP
A0
80
E0
A0
A0
E0
00
A0
ENDCHAR
STARTCHAR uni249E
ENCODING 9374
SWIDTH 500 0
DWIDTH 4 0
BBX 3 8 0 -2
BITMAP
A0
00
E0
80
80
E0
00
A0
ENDCHAR
STARTCHAR uni249F
ENCODING 9375
SWIDTH 500 0
DWIDTH 4 0
BBX 3 8 0 -2
BITMAP
A0
20
E0
A0
A0
E0
00
A0
ENDCHAR
STARTCHAR uni24A0
ENCODING 9376
SWIDTH 500 0
DWIDTH 4 0
BBX 3 8 0 -2
BITMAP
A0
00
E0
E0
80
E0
00
A0
ENDCHAR
STARTCHAR uni24A1
ENCODING 9377
SWIDTH 500 0
DWIDTH 4 0
BBX 3 8 0 -2
BITMAP
E0
40
E0
40
40
40
00
A0
ENDCHAR
STARTCHAR uni24A2
ENCODING 9378
SWIDTH 500 0
DWIDTH 4 0
BBX 3 8 0 -2
BITMAP
A0
00
E0
A0
A0
E0
20
E0
ENDCHAR
STARTCHAR uni24A3
ENCODING 9379
SWIDTH 500 0
DWIDTH 4 0
BBX 3 8 0 -2
BITMAP
A0
80
E0
A0
A0
A0
00
A0
ENDCHAR
STARTCHAR uni24A4
ENCODING 9380
SWIDTH 500 0
DWIDTH 4 0
BBX 3 8 0 -2
BITMAP
E0
00
40
40
40
40
00
A0
ENDCHAR
STARTCHAR uni24A5
ENCODING 9381
SWIDTH 500 0
DWIDTH 4 0
BBX 3 8 0 -2
BITMAP
A0
00
40
00
40
C0
00
A0
ENDCHAR
STARTCHAR uni24A6
ENCODING 9382
SWIDTH 500 0
DWIDTH 4 0
BBX 3 8 0 -2
BITMAP
A0
80
A0
C0
C0
A0
00
A0
ENDCHAR
STARTCHAR uni24A7
ENCODING 9383
SWIDTH 500 0
DWIDTH 4 0
BBX 3 8 0 -2
BITMAP
A0
40
40
40
40
60
00
A0
ENDCHAR
STARTCHAR uni24A8
ENCODING 9384
SWIDTH 500 0
DWIDTH 4 0
BBX 3 8 0 -2
BITMAP
A0
00
E0
E0
E0
A0
00
A0
ENDCHAR
STARTCHAR uni24A9
ENCODING 9385
SWIDTH 500 0
DWIDTH 4 0
BBX 3 8 0 -2
BITMAP
A0
00
E0
A0
A0
A0
00
A0
ENDCHAR
STARTCHAR uni24AA
ENCODING 9386
SWIDTH 500 0
DWIDTH 4 0
BBX 3 8 0 -2
BITMAP
A0
00
E0
A0
A0
E0
00
A0
ENDCHAR
STARTCHAR uni24AB
ENCODING 9387
SWIDTH 500 0
DWIDTH 4 0
BBX 3 8 0 -2
BITMAP
A0
00
E0
A0
A0
E0
80
A0
ENDCHAR
STARTCHAR uni24AC
ENCODING 9388
SWIDTH 500 0
DWIDTH 4 0
BBX 3 8 0 -2
BITMAP
A0
00
E0
A0
A0
E0
20
A0
ENDCHAR
STARTCHAR uni24AD
ENCODING 9389
SWIDTH 500 0
DWIDTH 4 0
BBX 3 8 0 -2
BITMAP
A0
00
E0
80
80
80
00
A0
ENDCHAR
STARTCHAR uni24AE
ENCODING 9390
SWIDTH 500 0
DWIDTH 4 0
BBX 3 8 0 -2
BITMAP
A0
00
E0
80
20
E0
00
A0
ENDCHAR
STARTCHAR uni24AF
ENCODING 9391
SWIDTH 500 0
DWIDTH 4 0
BBX 3 8 0 -2
BITMAP
A0
40
E0
40
40
60
00
A0
ENDCHAR
STARTCHAR uni24B0
ENCODING 9392
SWIDTH 500 0
DWIDTH 4 0
BBX 3 8 0 -2
BITMAP
A0
00
A0
A0
A0
E0
00
A0
ENDCHAR
STARTCHAR uni24B1
ENCODING 9393
SWIDTH 500 0
DWIDTH 4 0
BBX 3 8 0 -2
BITMAP
A0
00
A0
A0
A0
40
00
A0
ENDCHAR
STARTCHAR uni24B2
ENCODING 9394
SWIDTH 500 0
DWIDTH 4 0
BBX 3 8 0 -2
BITMAP
A0
00
A0
E0
E0
E0
00
A0
ENDCHAR
STARTCHAR uni24B3
ENCODING 9395
SWIDTH 500 0
DWIDTH 4 0
BBX 3 8 0 -2
BITMAP
A0
00
A0
40
40
A0
00
A0
ENDCHAR
STARTCHAR uni24B4
ENCODING 9396
SWIDTH 500 0
DWIDTH 4 0
BBX 3 8 0 -2
BITMAP
A0
00
A0
A0
A0
E0
20
E0
ENDCHAR
STARTCHAR uni24B5
ENCODING 9397
SWIDTH 500 0
DWIDTH 4 0
BBX 3 8 0 -2
BITMAP
A0
00
E0
20
80
E0
00
A0
ENDCHAR
STARTCHAR uni24B6
ENCODING 9398
SWIDTH 500 0
DWIDTH 4 0
BBX 3 8 0 -2
BITMAP
A0
E0
A0
A0
E0
A0
00
A0
ENDCHAR
STARTCHAR uni24B7
ENCODING 9399
SWIDTH 500 0
DWIDTH 4 0
BBX 3 8 0 -2
BITMAP
E0
C0
A0
C0
A0
C0
00
E0
ENDCHAR
STARTCHAR uni24B8
ENCODING 9400
SWIDTH 500 0
DWIDTH 4 0
BBX 3 8 0 -2
BITMAP
E0
E0
80
80
80
E0
00
E0
ENDCHAR
STARTCHAR uni24B9
ENCODING 9401
SWIDTH 500 0
DWIDTH 4 0
BBX 3 8 0 -2
BITMAP
E0
C0
A0
A0
A0
C0
00
E0
ENDCHAR
STARTCHAR uni24BA
ENCODING 9402
SWIDTH 500 0
DWIDTH 4 0
BBX 3 8 0 -2
BITMAP
E0
E0
80
E0
80
E0
00
E0
ENDCHAR
STARTCHAR uni24BB
ENCODING 9403
SWIDTH 500 0
DWIDTH 4 0
BBX 3 8 0 -2
BITMAP
E0
E0
80
E0
80
80
00
E0
ENDCHAR
STARTCHAR uni24BC
ENCODING 9404
SWIDTH 1000 0
DWIDTH 4 0
BBX 3 8 0 -2
BITMAP
E0
E0
80
80
A0
E0
00
E0
ENDCHAR
STARTCHAR uni24BD
ENCODING 9405
SWIDTH 1000 0
DWIDTH 4 0
BBX 3 8 0 -2
BITMAP
E0
00
A0
A0
E0
A0
00
E0
ENDCHAR
STARTCHAR uni24BE
ENCODING 9406
SWIDTH 1000 0
DWIDTH 4 0
BBX 3 8 0 -2
BITMAP
E0
E0
40
40
40
E0
00
E0
ENDCHAR
STARTCHAR uni24BF
ENCODING 9407
SWIDTH 1000 0
DWIDTH 4 0
BBX 3 8 0 -2
BITMAP
E0
00
20
20
A0
E0
00
E0
ENDCHAR
STARTCHAR uni24C0
ENCODING 9408
SWIDTH 1000 0
DWIDTH 4 0
BBX 3 8 0 -2
BITMAP
E0
00
A0
C0
C0
A0
00
E0
ENDCHAR
STARTCHAR uni24C1
ENCODING 9409
SWIDTH 1000 0
DWIDTH 4 0
BBX 3 8 0 -2
BITMAP
E0
00
80
80
80
E0
00
E0
ENDCHAR
STARTCHAR uni24C2
ENCODING 9410
SWIDTH 1000 0
DWIDTH 4 0
BBX 3 8 0 -2
BITMAP
E0
00
E0
E0
A0
A0
00
E0
ENDCHAR
STARTCHAR uni24C3
ENCODING 9411
SWIDTH 1000 0
DWIDTH 4 0
BBX 3 8 0 -2
BITMAP
E0
00
A0
E0
E0
A0
00
E0
ENDCHAR
STARTCHAR uni24C4
ENCODING 9412
SWIDTH 1000 0
DWIDTH 4 0
BBX 3 8 0 -2
BITMAP
E0
00
E0
A0
A0
E0
00
E0
ENDCHAR
STARTCHAR uni24C5
ENCODING 9413
SWIDTH 1000 0
DWIDTH 4 0
BBX 3 8 0 -2
BITMAP
E0
E0
A0
E0
80
80
00
E0
ENDCHAR
STARTCHAR uni24C6
ENCODING 9414
SWIDTH 1000 0
DWIDTH 4 0
BBX 4 8 0 -2
BITMAP
E0
00
E0
A0
E0
E0
10
E0
ENDCHAR
STARTCHAR uni24C7
ENCODING 9415
SWIDTH 1000 0
DWIDTH 4 0
BBX 3 8 0 -2
BITMAP
E0
E0
A0
C0
A0
A0
00
E0
ENDCHAR
STARTCHAR uni24C8
ENCODING 9416
SWIDTH 1000 0
DWIDTH 4 0
BBX 3 8 0 -2
BITMAP
E0
E0
80
40
20
E0
00
E0
ENDCHAR
STARTCHAR uni24C9
ENCODING 9417
SWIDTH 1000 0
DWIDTH 4 0
BBX 3 8 0 -2
BITMAP
E0
E0
40
40
40
40
00
E0
ENDCHAR
STARTCHAR uni24CA
ENCODING 9418
SWIDTH 1000 0
DWIDTH 4 0
BBX 3 8 0 -2
BITMAP
E0
00
A0
A0
A0
E0
00
E0
ENDCHAR
STARTCHAR uni24CB
ENCODING 9419
SWIDTH 1000 0
DWIDTH 4 0
BBX 3 8 0 -2
BITMAP
E0
00
A0
A0
A0
40
00
E0
ENDCHAR
STARTCHAR uni24CC
ENCODING 9420
SWIDTH 1000 0
DWIDTH 4 0
BBX 3 8 0 -2
BITMAP
E0
00
A0
E0
E0
E0
00
E0
ENDCHAR
STARTCHAR uni24CD
ENCODING 9421
SWIDTH 1000 0
DWIDTH 4 0
BBX 3 8 0 -2
BITMAP
E0
00
A0
40
40
A0
00
E0
ENDCHAR
STARTCHAR uni24CE
ENCODING 9422
SWIDTH 1000 0
DWIDTH 4 0
BBX 3 8 0 -2
BITMAP
E0
00
A0
A0
40
40
00
E0
ENDCHAR
STARTCHAR uni24CF
ENCODING 9423
SWIDTH 1000 0
DWIDTH 4 0
BBX 3 8 0 -2
BITMAP
E0
E0
20
40
80
E0
00
E0
ENDCHAR
STARTCHAR uni24D0
ENCODING 9424
SWIDTH 500 0
DWIDTH 4 0
BBX 3 8 0 -2
BITMAP
E0
00
E0
20
E0
E0
00
E0
ENDCHAR
STARTCHAR uni24D1
ENCODING 9425
SWIDTH 500 0
DWIDTH 4 0
BBX 3 8 0 -2
BITMAP
E0
80
E0
A0
A0
E0
00
E0
ENDCHAR
STARTCHAR uni24D2
ENCODING 9426
SWIDTH 500 0
DWIDTH 4 0
BBX 3 8 0 -2
BITMAP
E0
00
E0
80
80
E0
00
E0
ENDCHAR
STARTCHAR uni24D3
ENCODING 9427
SWIDTH 500 0
DWIDTH 4 0
BBX 3 8 0 -2
BITMAP
E0
20
E0
A0
A0
E0
00
E0
ENDCHAR
STARTCHAR uni24D4
ENCODING 9428
SWIDTH 500 0
DWIDTH 4 0
BBX 3 8 0 -2
BITMAP
E0
00
E0
E0
80
E0
00
E0
ENDCHAR
STARTCHAR uni24D5
ENCODING 9429
SWIDTH 500 0
DWIDTH 4 0
BBX 3 8 0 -2
BITMAP
E0
40
E0
40
40
40
00
E0
ENDCHAR
STARTCHAR uni24D6
ENCODING 9430
SWIDTH 500 0
DWIDTH 4 0
BBX 3 8 0 -2
BITMAP
E0
00
E0
A0
A0
E0
20
E0
ENDCHAR
STARTCHAR uni24D7
ENCODING 9431
SWIDTH 500 0
DWIDTH 4 0
BBX 3 8 0 -2
BITMAP
E0
80
E0
A0
A0
A0
00
E0
ENDCHAR
STARTCHAR uni24D8
ENCODING 9432
SWIDTH 500 0
DWIDTH 4 0
BBX 3 8 0 -2
BITMAP
E0
00
40
40
40
40
00
E0
ENDCHAR
STARTCHAR uni24D9
ENCODING 9433
SWIDTH 500 0
DWIDTH 4 0
BBX 3 8 0 -2
BITMAP
E0
00
40
40
40
40
40
E0
ENDCHAR
STARTCHAR uni24DA
ENCODING 9434
SWIDTH 500 0
DWIDTH 4 0
BBX 3 8 0 -2
BITMAP
A0
80
A0
C0
C0
A0
00
A0
ENDCHAR
STARTCHAR uni24DB
ENCODING 9435
SWIDTH 500 0
DWIDTH 4 0
BBX 3 8 0 -2
BITMAP
E0
40
40
40
40
60
00
E0
ENDCHAR
STARTCHAR uni24DC
ENCODING 9436
SWIDTH 500 0
DWIDTH 4 0
BBX 3 8 0 -2
BITMAP
E0
00
E0
E0
E0
A0
00
E0
ENDCHAR
STARTCHAR uni24DD
ENCODING 9437
SWIDTH 500 0
DWIDTH 4 0
BBX 3 8 0 -2
BITMAP
E0
00
E0
A0
A0
A0
00
E0
ENDCHAR
STARTCHAR uni24DE
ENCODING 9438
SWIDTH 500 0
DWIDTH 4 0
BBX 3 8 0 -2
BITMAP
E0
00
E0
A0
A0
E0
00
E0
ENDCHAR
STARTCHAR uni24DF
ENCODING 9439
SWIDTH 500 0
DWIDTH 4 0
BBX 3 8 0 -2
BITMAP
E0
00
E0
A0
A0
E0
80
E0
ENDCHAR
STARTCHAR uni24E0
ENCODING 9440
SWIDTH 500 0
DWIDTH 4 0
BBX 3 8 0 -2
BITMAP
E0
00
E0
A0
E0
20
00
E0
ENDCHAR
STARTCHAR uni24E1
ENCODING 9441
SWIDTH 500 0
DWIDTH 4 0
BBX 3 8 0 -2
BITMAP
E0
00
E0
80
80
80
00
E0
ENDCHAR
STARTCHAR uni24E2
ENCODING 9442
SWIDTH 500 0
DWIDTH 4 0
BBX 3 8 0 -2
BITMAP
E0
00
E0
80
20
E0
00
E0
ENDCHAR
STARTCHAR uni24E3
ENCODING 9443
SWIDTH 500 0
DWIDTH 4 0
BBX 3 8 0 -2
BITMAP
E0
40
E0
40
40
60
00
E0
ENDCHAR
STARTCHAR uni24E4
ENCODING 9444
SWIDTH 500 0
DWIDTH 4 0
BBX 3 8 0 -2
BITMAP
E0
00
A0
A0
A0
E0
00
E0
ENDCHAR
STARTCHAR uni24E5
ENCODING 9445
SWIDTH 500 0
DWIDTH 4 0
BBX 3 8 0 -2
BITMAP
E0
00
A0
A0
A0
40
00
E0
ENDCHAR
STARTCHAR uni24E6
ENCODING 9446
SWIDTH 500 0
DWIDTH 4 0
BBX 3 8 0 -2
BITMAP
E0
00
A0
E0
E0
E0
00
E0
ENDCHAR
STARTCHAR uni24E7
ENCODING 9447
SWIDTH 500 0
DWIDTH 4 0
BBX 3 8 0 -2
BITMAP
E0
00
A0
40
40
A0
00
E0
ENDCHAR
STARTCHAR uni24E8
ENCODING 9448
SWIDTH 500 0
DWIDTH 4 0
BBX 3 8 0 -2
BITMAP
E0
00
A0
A0
A0
E0
20
E0
ENDCHAR
STARTCHAR uni24E9
ENCODING 9449
SWIDTH 500 0
DWIDTH 4 0
BBX 3 8 0 -2
BITMAP
E0
00
E0
20
80
E0
00
E0
ENDCHAR
STARTCHAR uni24EA
ENCODING 9450
SWIDTH 500 0
DWIDTH 4 0
BBX 3 8 0 -2
BITMAP
E0
E0
E0
A0
E0
E0
00
E0
ENDCHAR
STARTCHAR uni24EB
ENCODING 9451
SWIDTH 500 0
DWIDTH 4 0
BBX 4 8 0 -2
BITMAP
60
F0
A0
00
A0
A0
F0
60
ENDCHAR
STARTCHAR uni24EC
ENCODING 9452
SWIDTH 500 0
DWIDTH 4 0
BBX 4 8 0 -2
BITMAP
60
F0
80
20
90
80
F0
60
ENDCHAR
STARTCHAR uni24ED
ENCODING 9453
SWIDTH 1000 0
DWIDTH 8 0
BBX 4 8 0 -2
BITMAP
60
F0
80
20
80
A0
D0
60
ENDCHAR
STARTCHAR uni24EE
ENCODING 9454
SWIDTH 1000 0
DWIDTH 8 0
BBX 4 8 0 -2
BITMAP
60
F0
40
40
40
60
F0
60
ENDCHAR
STARTCHAR uni24EF
ENCODING 9455
SWIDTH 1000 0
DWIDTH 8 0
BBX 4 8 0 -2
BITMAP
60
F0
40
50
60
40
F0
60
ENDCHAR
STARTCHAR uni24F0
ENCODING 9456
SWIDTH 1000 0
DWIDTH 8 0
BBX 4 8 0 -2
BITMAP
60
F0
40
50
40
40
F0
60
ENDCHAR
STARTCHAR uni24F1
ENCODING 9457
SWIDTH 1000 0
DWIDTH 8 0
BBX 4 8 0 -2
BITMAP
60
F0
40
60
60
60
F0
60
ENDCHAR
STARTCHAR uni24F2
ENCODING 9458
SWIDTH 1000 0
DWIDTH 8 0
BBX 4 8 0 -2
BITMAP
60
F0
40
40
50
40
C0
60
ENDCHAR
STARTCHAR uni24F3
ENCODING 9459
SWIDTH 1000 0
DWIDTH 8 0
BBX 4 8 0 -2
BITMAP
60
F0
40
40
60
40
F0
60
ENDCHAR
STARTCHAR uni24F4
ENCODING 9460
SWIDTH 1000 0
DWIDTH 8 0
BBX 4 8 0 -2
BITMAP
60
F0
00
80
40
00
F0
60
ENDCHAR
STARTCHAR uni24F5
ENCODING 9461
SWIDTH 1000 0
DWIDTH 8 0
BBX 4 8 0 -2
BITMAP
F0
F0
20
60
20
20
F0
F0
ENDCHAR
STARTCHAR uni24F6
ENCODING 9462
SWIDTH 1000 0
DWIDTH 8 0
BBX 4 8 0 -2
BITMAP
F0
F0
60
20
40
60
F0
F0
ENDCHAR
STARTCHAR uni24F7
ENCODING 9463
SWIDTH 1000 0
DWIDTH 8 0
BBX 4 8 0 -2
BITMAP
F0
F0
60
20
40
20
F0
F0
ENDCHAR
STARTCHAR uni24F8
ENCODING 9464
SWIDTH 1000 0
DWIDTH 8 0
BBX 4 8 0 -2
BITMAP
F0
F0
60
60
60
20
F0
F0
ENDCHAR
STARTCHAR uni24F9
ENCODING 9465
SWIDTH 1000 0
DWIDTH 8 0
BBX 4 8 0 -2
BITMAP
F0
F0
60
40
20
60
F0
F0
ENDCHAR
STARTCHAR uni24FA
ENCODING 9466
SWIDTH 1000 0
DWIDTH 8 0
BBX 4 8 0 -2
BITMAP
F0
F0
60
40
60
60
F0
F0
ENDCHAR
STARTCHAR uni24FB
ENCODING 9467
SWIDTH 1000 0
DWIDTH 8 0
BBX 4 8 0 -2
BITMAP
F0
F0
60
20
20
20
F0
F0
ENDCHAR
STARTCHAR uni24FC
ENCODING 9468
SWIDTH 1000 0
DWIDTH 8 0
BBX 4 8 0 -2
BITMAP
F0
F0
E0
E0
40
E0
F0
F0
ENDCHAR
STARTCHAR uni24FD
ENCODING 9469
SWIDTH 1000 0
DWIDTH 8 0
BBX 4 8 0 -2
BITMAP
F0
F0
60
60
20
60
F0
F0
ENDCHAR
STARTCHAR uni24FE
ENCODING 9470
SWIDTH 1000 0
DWIDTH 8 0
BBX 4 8 0 -2
BITMAP
F0
F0
B0
B0
B0
B0
F0
F0
ENDCHAR
STARTCHAR uni24FF
ENCODING 9471
SWIDTH 1000 0
DWIDTH 8 0
BBX 4 8 0 -2
BITMAP
F0
F0
00
00
00
00
F0
F0
ENDCHAR
STARTCHAR SF100000
ENCODING 9472
SWIDTH 500 0
DWIDTH 4 0
BBX 4 1 0 1
BITMAP
F0
ENDCHAR
STARTCHAR uni2501
ENCODING 9473
SWIDTH 500 0
DWIDTH 4 0
BBX 4 2 0 1
BITMAP
F0
F0
ENDCHAR
STARTCHAR SF110000
ENCODING 9474
SWIDTH 500 0
DWIDTH 4 0
BBX 1 8 1 -2
BITMAP
80
80
80
80
80
80
80
80
ENDCHAR
STARTCHAR uni2503
ENCODING 9475
SWIDTH 500 0
DWIDTH 4 0
BBX 2 8 1 -2
BITMAP
C0
C0
C0
C0
C0
C0
C0
C0
ENDCHAR
STARTCHAR uni2504
ENCODING 9476
SWIDTH 500 0
DWIDTH 4 0
BBX 2 1 0 1
BITMAP
C0
ENDCHAR
STARTCHAR uni2505
ENCODING 9477
SWIDTH 500 0
DWIDTH 4 0
BBX 2 2 0 1
BITMAP
C0
C0
ENDCHAR
STARTCHAR uni2506
ENCODING 9478
SWIDTH 500 0
DWIDTH 4 0
BBX 1 6 1 0
BITMAP
80
80
00
00
80
80
ENDCHAR
STARTCHAR uni2507
ENCODING 9479
SWIDTH 500 0
DWIDTH 4 0
BBX 2 6 1 0
BITMAP
C0
C0
00
00
C0
C0
ENDCHAR
STARTCHAR uni2508
ENCODING 9480
SWIDTH 500 0
DWIDTH 4 0
BBX 3 1 0 1
BITMAP
A0
ENDCHAR
STARTCHAR uni2509
ENCODING 9481
SWIDTH 500 0
DWIDTH 4 0
BBX 3 2 0 1
BITMAP
A0
A0
ENDCHAR
STARTCHAR uni250A
ENCODING 9482
SWIDTH 500 0
DWIDTH 4 0
BBX 1 7 1 -1
BITMAP
80
00
80
00
80
00
80
ENDCHAR
STARTCHAR uni250B
ENCODING 9483
SWIDTH 500 0
DWIDTH 4 0
BBX 2 7 1 -1
BITMAP
C0
00
C0
00
C0
00
C0
ENDCHAR
STARTCHAR SF010000
ENCODING 9484
SWIDTH 500 0
DWIDTH 4 0
BBX 3 4 1 -2
BITMAP
E0
80
80
80
ENDCHAR
STARTCHAR uni250D
ENCODING 9485
SWIDTH 500 0
DWIDTH 4 0
BBX 3 5 1 -2
BITMAP
E0
E0
80
80
80
ENDCHAR
STARTCHAR uni250E
ENCODING 9486
SWIDTH 500 0
DWIDTH 4 0
BBX 3 4 1 -2
BITMAP
E0
C0
C0
C0
ENDCHAR
STARTCHAR uni250F
ENCODING 9487
SWIDTH 500 0
DWIDTH 4 0
BBX 3 5 1 -2
BITMAP
E0
E0
80
80
80
ENDCHAR
STARTCHAR SF030000
ENCODING 9488
SWIDTH 500 0
DWIDTH 4 0
BBX 2 4 0 -2
BITMAP
C0
40
40
40
ENDCHAR
STARTCHAR uni2511
ENCODING 9489
SWIDTH 500 0
DWIDTH 4 0
BBX 2 5 0 -2
BITMAP
C0
C0
40
40
40
ENDCHAR
STARTCHAR uni2512
ENCODING 9490
SWIDTH 500 0
DWIDTH 4 0
BBX 3 4 0 -2
BITMAP
E0
60
60
60
ENDCHAR
STARTCHAR uni2513
ENCODING 9491
SWIDTH 500 0
DWIDTH 4 0
BBX 3 5 0 -2
BITMAP
E0
E0
60
60
60
ENDCHAR
STARTCHAR SF020000
ENCODING 9492
SWIDTH 500 0
DWIDTH 4 0
BBX 3 5 1 1
BITMAP
80
80
80
80
E0
ENDCHAR
STARTCHAR uni2515
ENCODING 9493
SWIDTH 500 0
DWIDTH 4 0
BBX 3 5 1 1
BITMAP
80
80
80
E0
E0
ENDCHAR
STARTCHAR uni2516
ENCODING 9494
SWIDTH 500 0
DWIDTH 4 0
BBX 3 5 1 1
BITMAP
C0
C0
C0
C0
E0
ENDCHAR
STARTCHAR uni2517
ENCODING 9495
SWIDTH 500 0
DWIDTH 4 0
BBX 3 5 1 1
BITMAP
C0
C0
C0
E0
E0
ENDCHAR
STARTCHAR SF040000
ENCODING 9496
SWIDTH 500 0
DWIDTH 4 0
BBX 2 5 0 1
BITMAP
40
40
40
40
C0
ENDCHAR
STARTCHAR uni2519
ENCODING 9497
SWIDTH 500 0
DWIDTH 4 0
BBX 2 5 0 1
BITMAP
40
40
40
C0
C0
ENDCHAR
STARTCHAR uni251A
ENCODING 9498
SWIDTH 500 0
DWIDTH 4 0
BBX 3 5 0 1
BITMAP
60
60
60
60
E0
ENDCHAR
STARTCHAR uni251B
ENCODING 9499
SWIDTH 500 0
DWIDTH 4 0
BBX 3 5 0 1
BITMAP
60
60
60
E0
E0
ENDCHAR
STARTCHAR SF080000
ENCODING 9500
SWIDTH 500 0
DWIDTH 4 0
BBX 3 8 1 -2
BITMAP
80
80
80
80
E0
80
80
80
ENDCHAR
STARTCHAR uni251D
ENCODING 9501
SWIDTH 500 0
DWIDTH 4 0
BBX 3 8 1 -2
BITMAP
80
80
80
E0
E0
80
80
80
ENDCHAR
STARTCHAR uni251E
ENCODING 9502
SWIDTH 500 0
DWIDTH 4 0
BBX 3 8 1 -2
BITMAP
C0
C0
C0
C0
E0
80
80
80
ENDCHAR
STARTCHAR uni251F
ENCODING 9503
SWIDTH 500 0
DWIDTH 4 0
BBX 3 8 1 -2
BITMAP
80
80
80
80
E0
C0
C0
C0
ENDCHAR
STARTCHAR uni2520
ENCODING 9504
SWIDTH 500 0
DWIDTH 4 0
BBX 3 8 1 -2
BITMAP
C0
C0
C0
C0
E0
C0
C0
C0
ENDCHAR
STARTCHAR uni2521
ENCODING 9505
SWIDTH 500 0
DWIDTH 4 0
BBX 3 8 1 -2
BITMAP
C0
C0
C0
E0
E0
80
80
80
ENDCHAR
STARTCHAR uni2522
ENCODING 9506
SWIDTH 500 0
DWIDTH 4 0
BBX 3 8 1 -2
BITMAP
80
80
80
E0
E0
C0
C0
C0
ENDCHAR
STARTCHAR uni2523
ENCODING 9507
SWIDTH 500 0
DWIDTH 4 0
BBX 3 8 1 -2
BITMAP
C0
C0
C0
E0
E0
C0
C0
C0
ENDCHAR
STARTCHAR SF090000
ENCODING 9508
SWIDTH 500 0
DWIDTH 4 0
BBX 2 8 0 -2
BITMAP
40
40
40
40
C0
40
40
40
ENDCHAR
STARTCHAR uni2525
ENCODING 9509
SWIDTH 500 0
DWIDTH 4 0
BBX 2 8 0 -2
BITMAP
40
40
40
C0
C0
40
40
40
ENDCHAR
STARTCHAR uni2526
ENCODING 9510
SWIDTH 500 0
DWIDTH 4 0
BBX 3 8 0 -2
BITMAP
60
60
60
60
E0
40
40
40
ENDCHAR
STARTCHAR uni2527
ENCODING 9511
SWIDTH 500 0
DWIDTH 4 0
BBX 3 8 0 -2
BITMAP
40
40
40
40
E0
60
60
60
ENDCHAR
STARTCHAR uni2528
ENCODING 9512
SWIDTH 500 0
DWIDTH 4 0
BBX 3 8 0 -2
BITMAP
60
60
60
60
E0
60
60
60
ENDCHAR
STARTCHAR uni2529
ENCODING 9513
SWIDTH 500 0
DWIDTH 4 0
BBX 3 8 0 -2
BITMAP
60
60
60
E0
E0
40
40
40
ENDCHAR
STARTCHAR uni252A
ENCODING 9514
SWIDTH 500 0
DWIDTH 4 0
BBX 3 8 0 -2
BITMAP
40
40
40
E0
E0
60
60
60
ENDCHAR
STARTCHAR uni252B
ENCODING 9515
SWIDTH 500 0
DWIDTH 4 0
BBX 3 8 0 -2
BITMAP
60
60
60
E0
E0
60
60
60
ENDCHAR
STARTCHAR SF060000
ENCODING 9516
SWIDTH 500 0
DWIDTH 4 0
BBX 4 4 0 -2
BITMAP
F0
40
40
40
ENDCHAR
STARTCHAR uni252D
ENCODING 9517
SWIDTH 500 0
DWIDTH 4 0
BBX 4 5 0 -2
BITMAP
C0
F0
40
40
40
ENDCHAR
STARTCHAR uni252E
ENCODING 9518
SWIDTH 500 0
DWIDTH 4 0
BBX 4 5 0 -2
BITMAP
70
F0
40
40
40
ENDCHAR
STARTCHAR uni252F
ENCODING 9519
SWIDTH 500 0
DWIDTH 4 0
BBX 4 5 0 -2
BITMAP
F0
F0
40
40
40
ENDCHAR
STARTCHAR uni2530
ENCODING 9520
SWIDTH 500 0
DWIDTH 4 0
BBX 4 4 0 -2
BITMAP
F0
60
60
60
ENDCHAR
STARTCHAR uni2531
ENCODING 9521
SWIDTH 500 0
DWIDTH 4 0
BBX 4 5 0 -2
BITMAP
C0
F0
60
60
60
ENDCHAR
STARTCHAR uni2532
ENCODING 9522
SWIDTH 500 0
DWIDTH 4 0
BBX 4 5 0 -2
BITMAP
70
F0
60
60
60
ENDCHAR
STARTCHAR uni2533
ENCODING 9523
SWIDTH 500 0
DWIDTH 4 0
BBX 4 5 0 -2
BITMAP
F0
F0
60
60
60
ENDCHAR
STARTCHAR SF070000
ENCODING 9524
SWIDTH 500 0
DWIDTH 4 0
BBX 4 5 0 1
BITMAP
40
40
40
40
F0
ENDCHAR
STARTCHAR uni2535
ENCODING 9525
SWIDTH 500 0
DWIDTH 4 0
BBX 4 5 0 1
BITMAP
40
40
40
F0
C0
ENDCHAR
STARTCHAR uni2536
ENCODING 9526
SWIDTH 500 0
DWIDTH 4 0
BBX 4 5 0 1
BITMAP
40
40
40
70
F0
ENDCHAR
STARTCHAR uni2537
ENCODING 9527
SWIDTH 500 0
DWIDTH 4 0
BBX 4 5 0 1
BITMAP
40
40
40
F0
F0
ENDCHAR
STARTCHAR uni2538
ENCODING 9528
SWIDTH 500 0
DWIDTH 4 0
BBX 4 5 0 1
BITMAP
60
60
60
60
F0
ENDCHAR
STARTCHAR uni2539
ENCODING 9529
SWIDTH 500 0
DWIDTH 4 0
BBX 4 5 0 1
BITMAP
60
60
60
E0
F0
ENDCHAR
STARTCHAR uni253A
ENCODING 9530
SWIDTH 500 0
DWIDTH 4 0
BBX 4 5 0 1
BITMAP
60
60
60
70
F0
ENDCHAR
STARTCHAR uni253B
ENCODING 9531
SWIDTH 500 0
DWIDTH 4 0
BBX 4 5 0 1
BITMAP
60
60
60
F0
F0
ENDCHAR
STARTCHAR SF050000
ENCODING 9532
SWIDTH 500 0
DWIDTH 4 0
BBX 4 8 0 -2
BITMAP
40
40
40
40
F0
40
40
40
ENDCHAR
STARTCHAR uni253D
ENCODING 9533
SWIDTH 500 0
DWIDTH 4 0
BBX 4 8 0 -2
BITMAP
40
40
40
C0
F0
40
40
40
ENDCHAR
STARTCHAR uni253E
ENCODING 9534
SWIDTH 500 0
DWIDTH 4 0
BBX 4 8 0 -2
BITMAP
40
40
40
70
F0
40
40
40
ENDCHAR
STARTCHAR uni253F
ENCODING 9535
SWIDTH 500 0
DWIDTH 4 0
BBX 4 8 0 -2
BITMAP
40
40
40
F0
F0
40
40
40
ENDCHAR
STARTCHAR uni2540
ENCODING 9536
SWIDTH 500 0
DWIDTH 4 0
BBX 4 8 0 -2
BITMAP
60
60
60
60
F0
40
40
40
ENDCHAR
STARTCHAR uni2541
ENCODING 9537
SWIDTH 500 0
DWIDTH 4 0
BBX 4 8 0 -2
BITMAP
40
40
40
40
F0
60
60
60
ENDCHAR
STARTCHAR uni2542
ENCODING 9538
SWIDTH 500 0
DWIDTH 4 0
BBX 4 8 0 -2
BITMAP
60
60
60
60
F0
60
60
60
ENDCHAR
STARTCHAR uni2543
ENCODING 9539
SWIDTH 500 0
DWIDTH 4 0
BBX 3 8 0 -2
BITMAP
60
60
60
E0
E0
40
40
40
ENDCHAR
STARTCHAR uni2544
ENCODING 9540
SWIDTH 500 0
DWIDTH 4 0
BBX 4 8 0 -2
BITMAP
60
60
60
60
F0
40
40
40
ENDCHAR
STARTCHAR uni2545
ENCODING 9541
SWIDTH 500 0
DWIDTH 4 0
BBX 4 8 0 -2
BITMAP
40
40
40
E0
F0
60
60
60
ENDCHAR
STARTCHAR uni2546
ENCODING 9542
SWIDTH 500 0
DWIDTH 4 0
BBX 4 8 0 -2
BITMAP
40
40
40
70
F0
60
60
60
ENDCHAR
STARTCHAR uni2547
ENCODING 9543
SWIDTH 500 0
DWIDTH 4 0
BBX 4 8 0 -2
BITMAP
60
60
60
F0
F0
40
40
40
ENDCHAR
STARTCHAR uni2548
ENCODING 9544
SWIDTH 500 0
DWIDTH 4 0
BBX 4 8 0 -2
BITMAP
40
40
40
F0
F0
60
60
60
ENDCHAR
STARTCHAR uni2549
ENCODING 9545
SWIDTH 500 0
DWIDTH 4 0
BBX 4 8 0 -2
BITMAP
60
60
60
E0
F0
60
60
60
ENDCHAR
STARTCHAR uni254A
ENCODING 9546
SWIDTH 500 0
DWIDTH 4 0
BBX 4 8 0 -2
BITMAP
60
60
60
70
F0
60
60
60
ENDCHAR
STARTCHAR uni254B
ENCODING 9547
SWIDTH 500 0
DWIDTH 4 0
BBX 4 8 0 -2
BITMAP
60
60
60
F0
F0
60
60
60
ENDCHAR
STARTCHAR uni254C
ENCODING 9548
SWIDTH 500 0
DWIDTH 4 0
BBX 2 1 0 1
BITMAP
C0
ENDCHAR
STARTCHAR uni254D
ENCODING 9549
SWIDTH 500 0
DWIDTH 4 0
BBX 2 2 0 1
BITMAP
C0
C0
ENDCHAR
STARTCHAR uni254E
ENCODING 9550
SWIDTH 500 0
DWIDTH 4 0
BBX 1 4 1 2
BITMAP
80
80
80
80
ENDCHAR
STARTCHAR uni254F
ENCODING 9551
SWIDTH 500 0
DWIDTH 4 0
BBX 2 4 1 2
BITMAP
C0
C0
C0
C0
ENDCHAR
STARTCHAR SF430000
ENCODING 9552
SWIDTH 500 0
DWIDTH 4 0
BBX 4 3 0 0
BITMAP
F0
00
F0
ENDCHAR
STARTCHAR SF240000
ENCODING 9553
SWIDTH 500 0
DWIDTH 4 0
BBX 3 8 0 -2
BITMAP
A0
A0
A0
A0
A0
A0
A0
A0
ENDCHAR
STARTCHAR SF510000
ENCODING 9554
SWIDTH 500 0
DWIDTH 4 0
BBX 3 5 1 -2
BITMAP
E0
80
E0
80
80
ENDCHAR
STARTCHAR SF520000
ENCODING 9555
SWIDTH 500 0
DWIDTH 4 0
BBX 4 4 0 -2
BITMAP
F0
A0
A0
A0
ENDCHAR
STARTCHAR SF390000
ENCODING 9556
SWIDTH 500 0
DWIDTH 4 0
BBX 4 5 0 -2
BITMAP
F0
80
B0
A0
A0
ENDCHAR
STARTCHAR SF220000
ENCODING 9557
SWIDTH 500 0
DWIDTH 4 0
BBX 2 5 0 -2
BITMAP
C0
40
C0
40
40
ENDCHAR
STARTCHAR SF210000
ENCODING 9558
SWIDTH 500 0
DWIDTH 4 0
BBX 3 4 0 -2
BITMAP
E0
A0
A0
A0
ENDCHAR
STARTCHAR SF250000
ENCODING 9559
SWIDTH 500 0
DWIDTH 4 0
BBX 3 5 0 -2
BITMAP
E0
20
A0
A0
A0
ENDCHAR
STARTCHAR SF500000
ENCODING 9560
SWIDTH 500 0
DWIDTH 4 0
BBX 3 6 1 0
BITMAP
80
80
80
E0
80
E0
ENDCHAR
STARTCHAR SF490000
ENCODING 9561
SWIDTH 500 0
DWIDTH 4 0
BBX 4 5 0 1
BITMAP
A0
A0
A0
A0
F0
ENDCHAR
STARTCHAR SF380000
ENCODING 9562
SWIDTH 500 0
DWIDTH 4 0
BBX 4 6 0 0
BITMAP
A0
A0
A0
B0
80
F0
ENDCHAR
STARTCHAR SF280000
ENCODING 9563
SWIDTH 500 0
DWIDTH 4 0
BBX 2 6 0 0
BITMAP
40
40
40
C0
40
C0
ENDCHAR
STARTCHAR SF270000
ENCODING 9564
SWIDTH 500 0
DWIDTH 4 0
BBX 3 5 0 1
BITMAP
A0
A0
A0
A0
E0
ENDCHAR
STARTCHAR SF260000
ENCODING 9565
SWIDTH 500 0
DWIDTH 4 0
BBX 3 6 0 0
BITMAP
A0
A0
A0
A0
20
E0
ENDCHAR
STARTCHAR SF360000
ENCODING 9566
SWIDTH 500 0
DWIDTH 4 0
BBX 3 8 1 -2
BITMAP
80
80
80
E0
80
E0
80
80
ENDCHAR
STARTCHAR SF370000
ENCODING 9567
SWIDTH 500 0
DWIDTH 4 0
BBX 4 8 0 -2
BITMAP
A0
A0
A0
A0
B0
A0
A0
A0
ENDCHAR
STARTCHAR SF420000
ENCODING 9568
SWIDTH 500 0
DWIDTH 4 0
BBX 4 8 0 -2
BITMAP
A0
A0
A0
B0
80
B0
A0
A0
ENDCHAR
STARTCHAR SF190000
ENCODING 9569
SWIDTH 500 0
DWIDTH 4 0
BBX 2 8 0 -2
BITMAP
40
40
40
C0
40
C0
40
40
ENDCHAR
STARTCHAR SF200000
ENCODING 9570
SWIDTH 500 0
DWIDTH 4 0
BBX 3 8 0 -2
BITMAP
A0
A0
A0
A0
A0
A0
A0
A0
ENDCHAR
STARTCHAR SF230000
ENCODING 9571
SWIDTH 500 0
DWIDTH 4 0
BBX 3 8 0 -2
BITMAP
A0
A0
A0
A0
20
A0
A0
A0
ENDCHAR
STARTCHAR SF470000
ENCODING 9572
SWIDTH 500 0
DWIDTH 4 0
BBX 4 5 0 -2
BITMAP
F0
00
F0
40
40
ENDCHAR
STARTCHAR SF480000
ENCODING 9573
SWIDTH 500 0
DWIDTH 4 0
BBX 4 4 0 -2
BITMAP
F0
A0
A0
A0
ENDCHAR
STARTCHAR SF410000
ENCODING 9574
SWIDTH 500 0
DWIDTH 4 0
BBX 4 5 0 -2
BITMAP
F0
00
B0
A0
A0
ENDCHAR
STARTCHAR SF450000
ENCODING 9575
SWIDTH 500 0
DWIDTH 4 0
BBX 4 6 0 0
BITMAP
40
40
40
F0
00
F0
ENDCHAR
STARTCHAR SF460000
ENCODING 9576
SWIDTH 500 0
DWIDTH 4 0
BBX 4 5 0 1
BITMAP
A0
A0
A0
A0
F0
ENDCHAR
STARTCHAR SF400000
ENCODING 9577
SWIDTH 500 0
DWIDTH 4 0
BBX 4 6 0 0
BITMAP
A0
A0
A0
B0
00
F0
ENDCHAR
STARTCHAR SF540000
ENCODING 9578
SWIDTH 500 0
DWIDTH 4 0
BBX 4 8 0 -2
BITMAP
40
40
40
F0
00
F0
40
40
ENDCHAR
STARTCHAR SF530000
ENCODING 9579
SWIDTH 500 0
DWIDTH 4 0
BBX 4 8 0 -2
BITMAP
A0
A0
A0
A0
B0
A0
A0
A0
ENDCHAR
STARTCHAR SF440000
ENCODING 9580
SWIDTH 500 0
DWIDTH 4 0
BBX 4 8 0 -2
BITMAP
A0
A0
A0
B0
00
B0
A0
A0
ENDCHAR
STARTCHAR uni256D
ENCODING 9581
SWIDTH 500 0
DWIDTH 4 0
BBX 3 4 1 -2
BITMAP
20
40
80
80
ENDCHAR
STARTCHAR uni256E
ENCODING 9582
SWIDTH 500 0
DWIDTH 4 0
BBX 2 3 0 -2
BITMAP
80
40
40
ENDCHAR
STARTCHAR uni256F
ENCODING 9583
SWIDTH 500 0
DWIDTH 4 0
BBX 2 4 0 2
BITMAP
40
40
40
80
ENDCHAR
STARTCHAR uni2570
ENCODING 9584
SWIDTH 500 0
DWIDTH 4 0
BBX 3 5 1 1
BITMAP
80
80
80
40
20
ENDCHAR
STARTCHAR uni2571
ENCODING 9585
SWIDTH 500 0
DWIDTH 4 0
BBX 4 8 0 -2
BITMAP
10
10
20
20
40
40
80
80
ENDCHAR
STARTCHAR uni2572
ENCODING 9586
SWIDTH 500 0
DWIDTH 4 0
BBX 4 8 0 -2
BITMAP
80
80
40
40
20
20
10
10
ENDCHAR
STARTCHAR uni2573
ENCODING 9587
SWIDTH 500 0
DWIDTH 4 0
BBX 4 8 0 -2
BITMAP
90
90
60
60
60
60
90
90
ENDCHAR
STARTCHAR uni2574
ENCODING 9588
SWIDTH 500 0
DWIDTH 4 0
BBX 3 1 1 1
BITMAP
E0
ENDCHAR
STARTCHAR uni2575
ENCODING 9589
SWIDTH 500 0
DWIDTH 4 0
BBX 1 5 1 1
BITMAP
80
80
80
80
80
ENDCHAR
STARTCHAR uni2576
ENCODING 9590
SWIDTH 500 0
DWIDTH 4 0
BBX 2 1 0 1
BITMAP
C0
ENDCHAR
STARTCHAR uni2577
ENCODING 9591
SWIDTH 500 0
DWIDTH 4 0
BBX 1 4 1 -2
BITMAP
80
80
80
80
ENDCHAR
STARTCHAR uni2578
ENCODING 9592
SWIDTH 500 0
DWIDTH 4 0
BBX 3 2 1 1
BITMAP
E0
E0
ENDCHAR
STARTCHAR uni2579
ENCODING 9593
SWIDTH 500 0
DWIDTH 4 0
BBX 2 5 1 1
BITMAP
C0
C0
C0
C0
C0
ENDCHAR
STARTCHAR uni257A
ENCODING 9594
SWIDTH 500 0
DWIDTH 4 0
BBX 2 2 0 1
BITMAP
C0
C0
ENDCHAR
STARTCHAR uni257B
ENCODING 9595
SWIDTH 500 0
DWIDTH 4 0
BBX 2 4 1 -2
BITMAP
C0
C0
C0
C0
ENDCHAR
STARTCHAR uni257C
ENCODING 9596
SWIDTH 500 0
DWIDTH 4 0
BBX 4 2 0 1
BITMAP
70
F0
ENDCHAR
STARTCHAR uni257D
ENCODING 9597
SWIDTH 500 0
DWIDTH 4 0
BBX 2 8 1 -2
BITMAP
80
80
80
80
C0
C0
C0
C0
ENDCHAR
STARTCHAR uni257E
ENCODING 9598
SWIDTH 500 0
DWIDTH 4 0
BBX 4 2 0 1
BITMAP
C0
F0
ENDCHAR
STARTCHAR uni257F
ENCODING 9599
SWIDTH 500 0
DWIDTH 4 0
BBX 2 8 1 -2
BITMAP
C0
C0
C0
C0
C0
80
80
80
ENDCHAR
STARTCHAR upblock
ENCODING 9600
SWIDTH 500 0
DWIDTH 4 0
BBX 4 4 0 2
BITMAP
F0
F0
F0
F0
ENDCHAR
STARTCHAR uni2581
ENCODING 9601
SWIDTH 500 0
DWIDTH 4 0
BBX 4 1 0 -2
BITMAP
F0
ENDCHAR
STARTCHAR uni2582
ENCODING 9602
SWIDTH 500 0
DWIDTH 4 0
BBX 4 2 0 -2
BITMAP
F0
F0
ENDCHAR
STARTCHAR uni2583
ENCODING 9603
SWIDTH 500 0
DWIDTH 4 0
BBX 4 3 0 -2
BITMAP
F0
F0
F0
ENDCHAR
STARTCHAR dnblock
ENCODING 9604
SWIDTH 500 0
DWIDTH 4 0
BBX 4 4 0 -2
BITMAP
F0
F0
F0
F0
ENDCHAR
STARTCHAR uni2585
ENCODING 9605
SWIDTH 500 0
DWIDTH 4 0
BBX 4 5 0 -2
BITMAP
F0
F0
F0
F0
F0
ENDCHAR
STARTCHAR uni2586
ENCODING 9606
SWIDTH 500 0
DWIDTH 4 0
BBX 4 6 0 -2
BITMAP
F0
F0
F0
F0
F0
F0
ENDCHAR
STARTCHAR uni2587
ENCODING 9607
SWIDTH 500 0
DWIDTH 4 0
BBX 4 7 0 -2
BITMAP
F0
F0
F0
F0
F0
F0
F0
ENDCHAR
STARTCHAR block
ENCODING 9608
SWIDTH 500 0
DWIDTH 4 0
BBX 4 8 0 -2
BITMAP
F0
F0
F0
F0
F0
F0
F0
F0
ENDCHAR
STARTCHAR uni2589
ENCODING 9609
SWIDTH 500 0
DWIDTH 4 0
BBX 4 8 0 -2
BITMAP
F0
E0
F0
E0
F0
E0
F0
E0
ENDCHAR
STARTCHAR uni258A
ENCODING 9610
SWIDTH 500 0
DWIDTH 4 0
BBX 3 8 0 -2
BITMAP
E0
E0
E0
E0
E0
E0
E0
E0
ENDCHAR
STARTCHAR uni258B
ENCODING 9611
SWIDTH 500 0
DWIDTH 4 0
BBX 3 8 0 -2
BITMAP
E0
C0
E0
C0
E0
C0
E0
C0
ENDCHAR
STARTCHAR lfblock
ENCODING 9612
SWIDTH 500 0
DWIDTH 4 0
BBX 2 8 0 -2
BITMAP
C0
C0
C0
C0
C0
C0
C0
C0
ENDCHAR
STARTCHAR uni258D
ENCODING 9613
SWIDTH 500 0
DWIDTH 4 0
BBX 2 8 0 -2
BITMAP
C0
80
C0
80
C0
80
C0
80
ENDCHAR
STARTCHAR uni258E
ENCODING 9614
SWIDTH 500 0
DWIDTH 4 0
BBX 1 8 0 -2
BITMAP
80
80
80
80
80
80
80
80
ENDCHAR
STARTCHAR uni258F
ENCODING 9615
SWIDTH 500 0
DWIDTH 4 0
BBX 1 7 0 -1
BITMAP
80
00
80
00
80
00
80
ENDCHAR
STARTCHAR rtblock
ENCODING 9616
SWIDTH 500 0
DWIDTH 4 0
BBX 2 8 2 -2
BITMAP
C0
C0
C0
C0
C0
C0
C0
C0
ENDCHAR
STARTCHAR ltshade
ENCODING 9617
SWIDTH 500 0
DWIDTH 4 0
BBX 3 8 1 -2
BITMAP
80
20
80
20
80
20
80
20
ENDCHAR
STARTCHAR shade
ENCODING 9618
SWIDTH 500 0
DWIDTH 4 0
BBX 4 8 0 -2
BITMAP
A0
50
A0
50
A0
50
A0
50
ENDCHAR
STARTCHAR dkshade
ENCODING 9619
SWIDTH 500 0
DWIDTH 4 0
BBX 4 8 0 -2
BITMAP
70
D0
70
D0
70
D0
70
D0
ENDCHAR
STARTCHAR uni2594
ENCODING 9620
SWIDTH 500 0
DWIDTH 4 0
BBX 4 2 0 4
BITMAP
F0
F0
ENDCHAR
STARTCHAR uni2595
ENCODING 9621
SWIDTH 500 0
DWIDTH 4 0
BBX 1 8 3 -2
BITMAP
80
80
80
80
80
80
80
80
ENDCHAR
STARTCHAR uni2596
ENCODING 9622
SWIDTH 500 0
DWIDTH 4 0
BBX 2 4 0 -2
BITMAP
C0
C0
C0
C0
ENDCHAR
STARTCHAR uni2597
ENCODING 9623
SWIDTH 500 0
DWIDTH 4 0
BBX 2 4 2 -2
BITMAP
C0
C0
C0
C0
ENDCHAR
STARTCHAR uni2598
ENCODING 9624
SWIDTH 500 0
DWIDTH 4 0
BBX 2 4 0 2
BITMAP
C0
C0
C0
C0
ENDCHAR
STARTCHAR uni2599
ENCODING 9625
SWIDTH 500 0
DWIDTH 4 0
BBX 4 8 0 -2
BITMAP
C0
C0
C0
C0
F0
F0
F0
F0
ENDCHAR
STARTCHAR uni259A
ENCODING 9626
SWIDTH 500 0
DWIDTH 4 0
BBX 4 8 0 -2
BITMAP
C0
C0
C0
C0
30
30
30
30
ENDCHAR
STARTCHAR uni259B
ENCODING 9627
SWIDTH 500 0
DWIDTH 4 0
BBX 4 8 0 -2
BITMAP
F0
F0
F0
F0
C0
C0
C0
C0
ENDCHAR
STARTCHAR uni259C
ENCODING 9628
SWIDTH 500 0
DWIDTH 4 0
BBX 4 8 0 -2
BITMAP
F0
F0
F0
F0
30
30
30
30
ENDCHAR
STARTCHAR uni259D
ENCODING 9629
SWIDTH 500 0
DWIDTH 4 0
BBX 2 4 2 2
BITMAP
C0
C0
C0
C0
ENDCHAR
STARTCHAR uni259E
ENCODING 9630
SWIDTH 500 0
DWIDTH 4 0
BBX 4 8 0 -2
BITMAP
30
30
30
30
C0
C0
C0
C0
ENDCHAR
STARTCHAR uni259F
ENCODING 9631
SWIDTH 500 0
DWIDTH 4 0
BBX 4 8 0 -2
BITMAP
30
30
30
30
F0
F0
F0
F0
ENDCHAR
STARTCHAR filledbox
ENCODING 9632
SWIDTH 500 0
DWIDTH 4 0
BBX 4 4 0 0
BITMAP
F0
F0
F0
F0
ENDCHAR
STARTCHAR lozenge
ENCODING 9674
SWIDTH 500 0
DWIDTH 4 0
BBX 3 8 0 -2
BITMAP
40
40
A0
A0
A0
A0
40
40
ENDCHAR
STARTCHAR spade
ENCODING 9824
SWIDTH 500 0
DWIDTH 4 0
BBX 3 5 0 0
BITMAP
40
E0
E0
A0
40
ENDCHAR
STARTCHAR club
ENCODING 9827
SWIDTH 500 0
DWIDTH 4 0
BBX 3 5 0 0
BITMAP
40
E0
A0
40
40
ENDCHAR
STARTCHAR heart
ENCODING 9829
SWIDTH 500 0
DWIDTH 4 0
BBX 3 5 0 0
BITMAP
A0
E0
E0
E0
40
ENDCHAR
STARTCHAR diamond
ENCODING 9830
SWIDTH 500 0
DWIDTH 4 0
BBX 3 5 0 0
BITMAP
40
E0
E0
E0
40
ENDCHAR
STARTCHAR uni2801
ENCODING 10241
SWIDTH 500 0
DWIDTH 4 0
BBX 1 1 0 5
BITMAP
80
ENDCHAR
STARTCHAR uni2802
ENCODING 10242
SWIDTH 500 0
DWIDTH 4 0
BBX 1 1 0 3
BITMAP
80
ENDCHAR
STARTCHAR uni2803
ENCODING 10243
SWIDTH 500 0
DWIDTH 4 0
BBX 1 3 0 3
BITMAP
80
00
80
ENDCHAR
STARTCHAR uni2804
ENCODING 10244
SWIDTH 500 0
DWIDTH 4 0
BBX 1 1 0 1
BITMAP
80
ENDCHAR
STARTCHAR uni2805
ENCODING 10245
SWIDTH 500 0
DWIDTH 4 0
BBX 1 5 0 1
BITMAP
80
00
00
00
80
ENDCHAR
STARTCHAR uni2806
ENCODING 10246
SWIDTH 500 0
DWIDTH 4 0
BBX 1 3 0 1
BITMAP
80
00
80
ENDCHAR
STARTCHAR uni2807
ENCODING 10247
SWIDTH 500 0
DWIDTH 4 0
BBX 1 5 0 1
BITMAP
80
00
80
00
80
ENDCHAR
STARTCHAR uni2808
ENCODING 10248
SWIDTH 500 0
DWIDTH 4 0
BBX 1 1 2 5
BITMAP
80
ENDCHAR
STARTCHAR uni2809
ENCODING 10249
SWIDTH 500 0
DWIDTH 4 0
BBX 3 1 0 5
BITMAP
A0
ENDCHAR
STARTCHAR uni280A
ENCODING 10250
SWIDTH 500 0
DWIDTH 4 0
BBX 3 3 0 3
BITMAP
20
00
80
ENDCHAR
STARTCHAR uni280B
ENCODING 10251
SWIDTH 500 0
DWIDTH 4 0
BBX 3 3 0 3
BITMAP
A0
00
80
ENDCHAR
STARTCHAR uni280C
ENCODING 10252
SWIDTH 500 0
DWIDTH 4 0
BBX 3 5 0 1
BITMAP
20
00
00
00
80
ENDCHAR
STARTCHAR uni280D
ENCODING 10253
SWIDTH 500 0
DWIDTH 4 0
BBX 3 5 0 1
BITMAP
A0
00
00
00
80
ENDCHAR
STARTCHAR uni280E
ENCODING 10254
SWIDTH 500 0
DWIDTH 4 0
BBX 3 5 0 1
BITMAP
20
00
80
00
80
ENDCHAR
STARTCHAR uni280F
ENCODING 10255
SWIDTH 500 0
DWIDTH 4 0
BBX 3 5 0 1
BITMAP
A0
00
80
00
80
ENDCHAR
STARTCHAR uni2810
ENCODING 10256
SWIDTH 500 0
DWIDTH 4 0
BBX 1 1 2 3
BITMAP
80
ENDCHAR
STARTCHAR uni2811
ENCODING 10257
SWIDTH 500 0
DWIDTH 4 0
BBX 3 3 0 3
BITMAP
80
00
20
ENDCHAR
STARTCHAR uni2812
ENCODING 10258
SWIDTH 500 0
DWIDTH 4 0
BBX 3 1 0 3
BITMAP
A0
ENDCHAR
STARTCHAR uni2813
ENCODING 10259
SWIDTH 500 0
DWIDTH 4 0
BBX 3 3 0 3
BITMAP
80
00
A0
ENDCHAR
STARTCHAR uni2814
ENCODING 10260
SWIDTH 500 0
DWIDTH 4 0
BBX 3 3 0 1
BITMAP
20
00
80
ENDCHAR
STARTCHAR uni2815
ENCODING 10261
SWIDTH 500 0
DWIDTH 4 0
BBX 3 5 0 1
BITMAP
80
00
20
00
80
ENDCHAR
STARTCHAR uni2816
ENCODING 10262
SWIDTH 500 0
DWIDTH 4 0
BBX 3 5 0 1
BITMAP
80
00
A0
00
80
ENDCHAR
STARTCHAR uni2817
ENCODING 10263
SWIDTH 500 0
DWIDTH 4 0
BBX 3 5 0 1
BITMAP
80
00
A0
00
80
ENDCHAR
STARTCHAR uni2818
ENCODING 10264
SWIDTH 500 0
DWIDTH 4 0
BBX 1 3 0 3
BITMAP
80
00
80
ENDCHAR
STARTCHAR uni2819
ENCODING 10265
SWIDTH 500 0
DWIDTH 4 0
BBX 3 3 0 3
BITMAP
A0
00
20
ENDCHAR
STARTCHAR uni281A
ENCODING 10266
SWIDTH 500 0
DWIDTH 4 0
BBX 3 3 0 3
BITMAP
20
00
A0
ENDCHAR
STARTCHAR uni281B
ENCODING 10267
SWIDTH 500 0
DWIDTH 4 0
BBX 3 3 0 3
BITMAP
A0
00
A0
ENDCHAR
STARTCHAR uni281C
ENCODING 10268
SWIDTH 500 0
DWIDTH 4 0
BBX 3 5 0 1
BITMAP
20
00
20
00
80
ENDCHAR
STARTCHAR uni281D
ENCODING 10269
SWIDTH 500 0
DWIDTH 4 0
BBX 3 5 0 1
BITMAP
A0
00
20
00
80
ENDCHAR
STARTCHAR uni281E
ENCODING 10270
SWIDTH 500 0
DWIDTH 4 0
BBX 3 5 0 1
BITMAP
20
00
A0
00
80
ENDCHAR
STARTCHAR uni281F
ENCODING 10271
SWIDTH 500 0
DWIDTH 4 0
BBX 3 5 0 1
BITMAP
A0
00
A0
00
80
ENDCHAR
STARTCHAR uni2820
ENCODING 10272
SWIDTH 500 0
DWIDTH 4 0
BBX 1 1 2 1
BITMAP
80
ENDCHAR
STARTCHAR uni2821
ENCODING 10273
SWIDTH 500 0
DWIDTH 4 0
BBX 3 5 0 1
BITMAP
80
00
00
00
20
ENDCHAR
STARTCHAR uni2822
ENCODING 10274
SWIDTH 500 0
DWIDTH 4 0
BBX 3 3 0 1
BITMAP
80
00
20
ENDCHAR
STARTCHAR uni2823
ENCODING 10275
SWIDTH 500 0
DWIDTH 4 0
BBX 3 5 0 1
BITMAP
80
00
80
00
20
ENDCHAR
STARTCHAR uni2824
ENCODING 10276
SWIDTH 500 0
DWIDTH 4 0
BBX 3 1 0 1
BITMAP
A0
ENDCHAR
STARTCHAR uni2825
ENCODING 10277
SWIDTH 500 0
DWIDTH 4 0
BBX 3 5 0 1
BITMAP
80
00
00
00
A0
ENDCHAR
STARTCHAR uni2826
ENCODING 10278
SWIDTH 500 0
DWIDTH 4 0
BBX 3 3 0 1
BITMAP
80
00
A0
ENDCHAR
STARTCHAR uni2827
ENCODING 10279
SWIDTH 500 0
DWIDTH 4 0
BBX 3 5 0 1
BITMAP
80
00
80
00
A0
ENDCHAR
STARTCHAR uni2828
ENCODING 10280
SWIDTH 500 0
DWIDTH 4 0
BBX 1 5 2 1
BITMAP
80
00
00
00
80
ENDCHAR
STARTCHAR uni2829
ENCODING 10281
SWIDTH 500 0
DWIDTH 4 0
BBX 3 4 0 2
BITMAP
A0
00
00
20
ENDCHAR
STARTCHAR uni282A
ENCODING 10282
SWIDTH 500 0
DWIDTH 4 0
BBX 3 5 0 1
BITMAP
20
00
80
00
20
ENDCHAR
STARTCHAR uni282B
ENCODING 10283
SWIDTH 500 0
DWIDTH 4 0
BBX 3 5 0 1
BITMAP
A0
00
80
00
20
ENDCHAR
STARTCHAR uni282C
ENCODING 10284
SWIDTH 500 0
DWIDTH 4 0
BBX 3 5 0 1
BITMAP
20
00
00
00
A0
ENDCHAR
STARTCHAR uni282D
ENCODING 10285
SWIDTH 500 0
DWIDTH 4 0
BBX 3 5 0 1
BITMAP
A0
00
00
00
A0
ENDCHAR
STARTCHAR uni282E
ENCODING 10286
SWIDTH 500 0
DWIDTH 4 0
BBX 3 5 0 1
BITMAP
20
00
80
00
A0
ENDCHAR
STARTCHAR uni282F
ENCODING 10287
SWIDTH 500 0
DWIDTH 4 0
BBX 3 5 0 1
BITMAP
A0
00
80
00
A0
ENDCHAR
STARTCHAR uni2830
ENCODING 10288
SWIDTH 500 0
DWIDTH 4 0
BBX 1 3 2 1
BITMAP
80
00
80
ENDCHAR
STARTCHAR uni2831
ENCODING 10289
SWIDTH 500 0
DWIDTH 4 0
BBX 3 5 0 1
BITMAP
80
00
20
00
20
ENDCHAR
STARTCHAR uni2832
ENCODING 10290
SWIDTH 500 0
DWIDTH 4 0
BBX 3 3 0 1
BITMAP
A0
00
20
ENDCHAR
STARTCHAR uni2833
ENCODING 10291
SWIDTH 500 0
DWIDTH 4 0
BBX 3 5 0 1
BITMAP
80
00
A0
00
20
ENDCHAR
STARTCHAR uni2834
ENCODING 10292
SWIDTH 500 0
DWIDTH 4 0
BBX 3 3 0 1
BITMAP
20
00
A0
ENDCHAR
STARTCHAR uni2835
ENCODING 10293
SWIDTH 500 0
DWIDTH 4 0
BBX 3 5 0 1
BITMAP
80
00
20
00
A0
ENDCHAR
STARTCHAR uni2836
ENCODING 10294
SWIDTH 500 0
DWIDTH 4 0
BBX 3 3 0 1
BITMAP
A0
00
A0
ENDCHAR
STARTCHAR uni2837
ENCODING 10295
SWIDTH 500 0
DWIDTH 4 0
BBX 3 5 0 1
BITMAP
80
00
A0
00
A0
ENDCHAR
STARTCHAR uni2838
ENCODING 10296
SWIDTH 500 0
DWIDTH 4 0
BBX 1 5 2 1
BITMAP
80
00
80
00
80
ENDCHAR
STARTCHAR uni2839
ENCODING 10297
SWIDTH 500 0
DWIDTH 4 0
BBX 3 5 0 1
BITMAP
A0
00
20
00
20
ENDCHAR
STARTCHAR uni283A
ENCODING 10298
SWIDTH 500 0
DWIDTH 4 0
BBX 3 5 0 1
BITMAP
20
00
A0
00
20
ENDCHAR
STARTCHAR uni283B
ENCODING 10299
SWIDTH 500 0
DWIDTH 4 0
BBX 3 5 0 1
BITMAP
A0
00
A0
00
20
ENDCHAR
STARTCHAR uni283C
ENCODING 10300
SWIDTH 500 0
DWIDTH 4 0
BBX 3 5 0 1
BITMAP
20
00
20
00
A0
ENDCHAR
STARTCHAR uni283D
ENCODING 10301
SWIDTH 500 0
DWIDTH 4 0
BBX 3 5 0 1
BITMAP
A0
00
20
00
A0
ENDCHAR
STARTCHAR uni283E
ENCODING 10302
SWIDTH 500 0
DWIDTH 4 0
BBX 3 5 0 1
BITMAP
20
00
A0
00
A0
ENDCHAR
STARTCHAR uni283F
ENCODING 10303
SWIDTH 500 0
DWIDTH 4 0
BBX 3 7 0 -1
BITMAP
A0
00
A0
00
A0
00
A0
ENDCHAR
STARTCHAR uni2840
ENCODING 10304
SWIDTH 500 0
DWIDTH 4 0
BBX 1 1 0 -1
BITMAP
80
ENDCHAR
STARTCHAR uni2841
ENCODING 10305
SWIDTH 500 0
DWIDTH 4 0
BBX 1 7 0 -1
BITMAP
80
00
00
00
00
00
80
ENDCHAR
STARTCHAR uni2842
ENCODING 10306
SWIDTH 500 0
DWIDTH 4 0
BBX 1 5 0 -1
BITMAP
80
00
00
00
80
ENDCHAR
STARTCHAR uni2843
ENCODING 10307
SWIDTH 500 0
DWIDTH 4 0
BBX 1 7 0 -1
BITMAP
80
00
80
00
00
00
80
ENDCHAR
STARTCHAR uni2844
ENCODING 10308
SWIDTH 500 0
DWIDTH 4 0
BBX 1 3 0 -1
BITMAP
80
00
80
ENDCHAR
STARTCHAR uni2845
ENCODING 10309
SWIDTH 500 0
DWIDTH 4 0
BBX 1 7 0 -1
BITMAP
80
00
00
00
80
00
80
ENDCHAR
STARTCHAR uni2846
ENCODING 10310
SWIDTH 500 0
DWIDTH 4 0
BBX 1 5 0 -1
BITMAP
80
00
80
00
80
ENDCHAR
STARTCHAR uni2847
ENCODING 10311
SWIDTH 500 0
DWIDTH 4 0
BBX 1 7 0 -1
BITMAP
80
00
80
00
80
00
80
ENDCHAR
STARTCHAR uni2848
ENCODING 10312
SWIDTH 500 0
DWIDTH 4 0
BBX 3 7 0 -1
BITMAP
20
00
00
00
00
00
80
ENDCHAR
STARTCHAR uni2849
ENCODING 10313
SWIDTH 500 0
DWIDTH 4 0
BBX 3 7 0 -1
BITMAP
20
00
00
00
00
00
80
ENDCHAR
STARTCHAR uni284A
ENCODING 10314
SWIDTH 500 0
DWIDTH 4 0
BBX 3 7 0 -1
BITMAP
20
00
80
00
00
00
80
ENDCHAR
STARTCHAR uni284B
ENCODING 10315
SWIDTH 500 0
DWIDTH 4 0
BBX 3 7 0 -1
BITMAP
A0
00
80
00
00
00
80
ENDCHAR
STARTCHAR uni284C
ENCODING 10316
SWIDTH 500 0
DWIDTH 4 0
BBX 3 7 0 -1
BITMAP
20
00
00
00
80
00
80
ENDCHAR
STARTCHAR uni284D
ENCODING 10317
SWIDTH 500 0
DWIDTH 4 0
BBX 3 7 0 -1
BITMAP
A0
00
00
00
80
00
80
ENDCHAR
STARTCHAR uni284E
ENCODING 10318
SWIDTH 500 0
DWIDTH 4 0
BBX 3 7 0 -1
BITMAP
20
00
80
00
80
00
80
ENDCHAR
STARTCHAR uni284F
ENCODING 10319
SWIDTH 500 0
DWIDTH 4 0
BBX 3 7 0 -1
BITMAP
A0
00
80
00
80
00
80
ENDCHAR
STARTCHAR uni2850
ENCODING 10320
SWIDTH 500 0
DWIDTH 4 0
BBX 3 5 0 -1
BITMAP
20
00
00
00
80
ENDCHAR
STARTCHAR uni2851
ENCODING 10321
SWIDTH 500 0
DWIDTH 4 0
BBX 3 7 0 -1
BITMAP
80
00
20
00
00
00
80
ENDCHAR
STARTCHAR uni2852
ENCODING 10322
SWIDTH 500 0
DWIDTH 4 0
BBX 3 7 0 -1
BITMAP
80
00
A0
00
00
00
80
ENDCHAR
STARTCHAR uni2853
ENCODING 10323
SWIDTH 500 0
DWIDTH 4 0
BBX 3 7 0 -1
BITMAP
80
00
A0
00
00
00
80
ENDCHAR
STARTCHAR uni2854
ENCODING 10324
SWIDTH 500 0
DWIDTH 4 0
BBX 3 5 0 -1
BITMAP
20
00
80
00
80
ENDCHAR
STARTCHAR uni2855
ENCODING 10325
SWIDTH 500 0
DWIDTH 4 0
BBX 3 7 0 -1
BITMAP
80
00
20
00
80
00
80
ENDCHAR
STARTCHAR uni2856
ENCODING 10326
SWIDTH 500 0
DWIDTH 4 0
BBX 3 5 0 -1
BITMAP
A0
00
80
00
80
ENDCHAR
STARTCHAR uni2857
ENCODING 10327
SWIDTH 500 0
DWIDTH 4 0
BBX 3 7 0 -1
BITMAP
80
00
A0
00
80
00
80
ENDCHAR
STARTCHAR uni2858
ENCODING 10328
SWIDTH 500 0
DWIDTH 4 0
BBX 3 7 0 -1
BITMAP
20
00
20
00
00
00
80
ENDCHAR
STARTCHAR uni2859
ENCODING 10329
SWIDTH 500 0
DWIDTH 4 0
BBX 3 7 0 -1
BITMAP
A0
00
20
00
00
00
80
ENDCHAR
STARTCHAR uni285A
ENCODING 10330
SWIDTH 500 0
DWIDTH 4 0
BBX 3 7 0 -1
BITMAP
20
00
A0
00
00
00
80
ENDCHAR
STARTCHAR uni285B
ENCODING 10331
SWIDTH 500 0
DWIDTH 4 0
BBX 3 7 0 -1
BITMAP
A0
00
A0
00
00
00
80
ENDCHAR
STARTCHAR uni285C
ENCODING 10332
SWIDTH 500 0
DWIDTH 4 0
BBX 3 7 0 -1
BITMAP
20
00
20
80
00
00
80
ENDCHAR
STARTCHAR uni285D
ENCODING 10333
SWIDTH 500 0
DWIDTH 4 0
BBX 3 7 0 -1
BITMAP
A0
00
20
00
80
00
80
ENDCHAR
STARTCHAR uni285E
ENCODING 10334
SWIDTH 500 0
DWIDTH 4 0
BBX 3 7 0 -1
BITMAP
20
00
A0
00
00
00
80
ENDCHAR
STARTCHAR uni285F
ENCODING 10335
SWIDTH 500 0
DWIDTH 4 0
BBX 3 7 0 -1
BITMAP
A0
00
A0
00
80
00
80
ENDCHAR
STARTCHAR uni2860
ENCODING 10336
SWIDTH 500 0
DWIDTH 4 0
BBX 3 3 0 -1
BITMAP
20
00
80
ENDCHAR
STARTCHAR uni2861
ENCODING 10337
SWIDTH 500 0
DWIDTH 4 0
BBX 3 7 0 -1
BITMAP
80
00
00
00
20
00
80
ENDCHAR
STARTCHAR uni2862
ENCODING 10338
SWIDTH 500 0
DWIDTH 4 0
BBX 3 5 0 -1
BITMAP
80
00
20
00
80
ENDCHAR
STARTCHAR uni2863
ENCODING 10339
SWIDTH 500 0
DWIDTH 4 0
BBX 3 7 0 -1
BITMAP
80
00
80
00
20
00
80
ENDCHAR
STARTCHAR uni2864
ENCODING 10340
SWIDTH 500 0
DWIDTH 4 0
BBX 3 3 0 -1
BITMAP
A0
00
80
ENDCHAR
STARTCHAR uni2865
ENCODING 10341
SWIDTH 500 0
DWIDTH 4 0
BBX 3 7 0 -1
BITMAP
80
00
00
00
A0
00
80
ENDCHAR
STARTCHAR uni2866
ENCODING 10342
SWIDTH 500 0
DWIDTH 4 0
BBX 3 5 0 -1
BITMAP
80
00
A0
00
80
ENDCHAR
STARTCHAR uni2867
ENCODING 10343
SWIDTH 500 0
DWIDTH 4 0
BBX 3 7 0 -1
BITMAP
80
00
80
00
A0
00
80
ENDCHAR
STARTCHAR uni2868
ENCODING 10344
SWIDTH 500 0
DWIDTH 4 0
BBX 3 7 0 -1
BITMAP
20
00
00
00
20
00
80
ENDCHAR
STARTCHAR uni2869
ENCODING 10345
SWIDTH 500 0
DWIDTH 4 0
BBX 3 7 0 -1
BITMAP
A0
00
00
00
20
00
80
ENDCHAR
STARTCHAR uni286A
ENCODING 10346
SWIDTH 500 0
DWIDTH 4 0
BBX 3 7 0 -1
BITMAP
20
00
80
00
20
00
80
ENDCHAR
STARTCHAR uni286B
ENCODING 10347
SWIDTH 500 0
DWIDTH 4 0
BBX 3 7 0 -1
BITMAP
A0
00
80
00
20
00
80
ENDCHAR
STARTCHAR uni286C
ENCODING 10348
SWIDTH 500 0
DWIDTH 4 0
BBX 3 7 0 -1
BITMAP
20
00
00
00
A0
00
80
ENDCHAR
STARTCHAR uni286D
ENCODING 10349
SWIDTH 500 0
DWIDTH 4 0
BBX 3 7 0 -1
BITMAP
A0
00
00
00
A0
00
80
ENDCHAR
STARTCHAR uni286E
ENCODING 10350
SWIDTH 500 0
DWIDTH 4 0
BBX 3 7 0 -1
BITMAP
20
00
80
00
A0
00
80
ENDCHAR
STARTCHAR uni286F
ENCODING 10351
SWIDTH 500 0
DWIDTH 4 0
BBX 3 7 0 -1
BITMAP
A0
00
80
00
A0
00
80
ENDCHAR
STARTCHAR uni2870
ENCODING 10352
SWIDTH 500 0
DWIDTH 4 0
BBX 3 5 0 -1
BITMAP
20
00
20
00
80
ENDCHAR
STARTCHAR uni2871
ENCODING 10353
SWIDTH 500 0
DWIDTH 4 0
BBX 3 7 0 -1
BITMAP
80
00
20
00
20
00
80
ENDCHAR
STARTCHAR uni2872
ENCODING 10354
SWIDTH 500 0
DWIDTH 4 0
BBX 3 5 0 -1
BITMAP
A0
00
20
00
80
ENDCHAR
STARTCHAR uni2873
ENCODING 10355
SWIDTH 500 0
DWIDTH 4 0
BBX 3 7 0 -1
BITMAP
80
00
A0
00
20
00
80
ENDCHAR
STARTCHAR uni2874
ENCODING 10356
SWIDTH 500 0
DWIDTH 4 0
BBX 3 5 0 -1
BITMAP
20
00
A0
00
80
ENDCHAR
STARTCHAR uni2875
ENCODING 10357
SWIDTH 500 0
DWIDTH 4 0
BBX 3 7 0 -1
BITMAP
80
00
20
00
A0
00
80
ENDCHAR
STARTCHAR uni2876
ENCODING 10358
SWIDTH 500 0
DWIDTH 4 0
BBX 3 5 0 -1
BITMAP
A0
00
A0
00
80
ENDCHAR
STARTCHAR uni2877
ENCODING 10359
SWIDTH 500 0
DWIDTH 4 0
BBX 3 7 0 -1
BITMAP
80
00
A0
00
A0
00
80
ENDCHAR
STARTCHAR uni2878
ENCODING 10360
SWIDTH 500 0
DWIDTH 4 0
BBX 3 7 0 -1
BITMAP
20
00
20
00
20
00
80
ENDCHAR
STARTCHAR uni2879
ENCODING 10361
SWIDTH 500 0
DWIDTH 4 0
BBX 3 7 0 -1
BITMAP
A0
00
20
00
20
00
80
ENDCHAR
STARTCHAR uni287A
ENCODING 10362
SWIDTH 500 0
DWIDTH 4 0
BBX 3 7 0 -1
BITMAP
20
00
A0
00
20
00
80
ENDCHAR
STARTCHAR uni287B
ENCODING 10363
SWIDTH 500 0
DWIDTH 4 0
BBX 3 7 0 -1
BITMAP
A0
00
A0
00
20
00
80
ENDCHAR
STARTCHAR uni287C
ENCODING 10364
SWIDTH 500 0
DWIDTH 4 0
BBX 3 7 0 -1
BITMAP
20
00
20
00
A0
00
80
ENDCHAR
STARTCHAR uni287D
ENCODING 10365
SWIDTH 500 0
DWIDTH 4 0
BBX 3 7 0 -1
BITMAP
A0
00
20
00
A0
00
80
ENDCHAR
STARTCHAR uni287E
ENCODING 10366
SWIDTH 500 0
DWIDTH 4 0
BBX 3 7 0 -1
BITMAP
20
00
A0
00
A0
00
80
ENDCHAR
STARTCHAR uni287F
ENCODING 10367
SWIDTH 500 0
DWIDTH 4 0
BBX 3 7 0 -1
BITMAP
A0
00
A0
00
A0
00
80
ENDCHAR
STARTCHAR uni2880
ENCODING 10368
SWIDTH 500 0
DWIDTH 4 0
BBX 1 1 2 -1
BITMAP
80
ENDCHAR
STARTCHAR uni2881
ENCODING 10369
SWIDTH 500 0
DWIDTH 4 0
BBX 3 7 0 -1
BITMAP
80
00
00
00
00
00
20
ENDCHAR
STARTCHAR uni2882
ENCODING 10370
SWIDTH 500 0
DWIDTH 4 0
BBX 3 5 0 -1
BITMAP
80
00
00
00
20
ENDCHAR
STARTCHAR uni2883
ENCODING 10371
SWIDTH 500 0
DWIDTH 4 0
BBX 3 7 0 -1
BITMAP
80
00
80
00
00
00
20
ENDCHAR
STARTCHAR uni2884
ENCODING 10372
SWIDTH 500 0
DWIDTH 4 0
BBX 3 3 0 -1
BITMAP
80
00
20
ENDCHAR
STARTCHAR uni2885
ENCODING 10373
SWIDTH 500 0
DWIDTH 4 0
BBX 3 7 0 -1
BITMAP
80
00
00
00
80
00
20
ENDCHAR
STARTCHAR uni2886
ENCODING 10374
SWIDTH 500 0
DWIDTH 4 0
BBX 3 5 0 -1
BITMAP
80
00
80
00
20
ENDCHAR
STARTCHAR uni2887
ENCODING 10375
SWIDTH 500 0
DWIDTH 4 0
BBX 3 7 0 -1
BITMAP
80
00
80
00
80
00
20
ENDCHAR
STARTCHAR uni2888
ENCODING 10376
SWIDTH 500 0
DWIDTH 4 0
BBX 1 7 2 -1
BITMAP
80
00
00
00
00
00
80
ENDCHAR
STARTCHAR uni2889
ENCODING 10377
SWIDTH 500 0
DWIDTH 4 0
BBX 3 7 0 -1
BITMAP
A0
00
00
00
00
00
20
ENDCHAR
STARTCHAR uni288A
ENCODING 10378
SWIDTH 500 0
DWIDTH 4 0
BBX 3 7 0 -1
BITMAP
20
00
80
00
00
00
20
ENDCHAR
STARTCHAR uni288B
ENCODING 10379
SWIDTH 500 0
DWIDTH 4 0
BBX 3 7 0 -1
BITMAP
A0
00
80
00
00
00
20
ENDCHAR
STARTCHAR uni288C
ENCODING 10380
SWIDTH 500 0
DWIDTH 4 0
BBX 3 7 0 -1
BITMAP
20
00
00
00
80
00
20
ENDCHAR
STARTCHAR uni288D
ENCODING 10381
SWIDTH 500 0
DWIDTH 4 0
BBX 3 7 0 -1
BITMAP
A0
00
00
00
80
00
20
ENDCHAR
STARTCHAR uni288E
ENCODING 10382
SWIDTH 500 0
DWIDTH 4 0
BBX 3 7 0 -1
BITMAP
20
00
80
00
80
00
20
ENDCHAR
STARTCHAR uni288F
ENCODING 10383
SWIDTH 500 0
DWIDTH 4 0
BBX 3 7 0 -1
BITMAP
A0
00
80
00
80
00
20
ENDCHAR
STARTCHAR uni2890
ENCODING 10384
SWIDTH 500 0
DWIDTH 4 0
BBX 1 5 2 -1
BITMAP
80
00
00
00
80
ENDCHAR
STARTCHAR uni2891
ENCODING 10385
SWIDTH 500 0
DWIDTH 4 0
BBX 3 7 0 -1
BITMAP
80
00
20
00
00
00
20
ENDCHAR
STARTCHAR uni2892
ENCODING 10386
SWIDTH 500 0
DWIDTH 4 0
BBX 3 7 0 -1
BITMAP
80
00
A0
00
00
00
20
ENDCHAR
STARTCHAR uni2893
ENCODING 10387
SWIDTH 500 0
DWIDTH 4 0
BBX 3 7 0 -1
BITMAP
80
00
A0
00
00
00
20
ENDCHAR
STARTCHAR uni2894
ENCODING 10388
SWIDTH 500 0
DWIDTH 4 0
BBX 3 5 0 -1
BITMAP
20
00
80
00
20
ENDCHAR
STARTCHAR uni2895
ENCODING 10389
SWIDTH 500 0
DWIDTH 4 0
BBX 3 7 0 -1
BITMAP
80
00
20
00
80
00
20
ENDCHAR
STARTCHAR uni2896
ENCODING 10390
SWIDTH 500 0
DWIDTH 4 0
BBX 3 5 0 -1
BITMAP
A0
00
80
00
20
ENDCHAR
STARTCHAR uni2897
ENCODING 10391
SWIDTH 500 0
DWIDTH 4 0
BBX 3 7 0 -1
BITMAP
80
00
A0
00
80
00
20
ENDCHAR
STARTCHAR uni2898
ENCODING 10392
SWIDTH 500 0
DWIDTH 4 0
BBX 1 7 2 -1
BITMAP
80
00
80
00
00
00
80
ENDCHAR
STARTCHAR uni2899
ENCODING 10393
SWIDTH 500 0
DWIDTH 4 0
BBX 3 7 0 -1
BITMAP
A0
00
20
00
00
00
20
ENDCHAR
STARTCHAR uni289A
ENCODING 10394
SWIDTH 500 0
DWIDTH 4 0
BBX 3 7 0 -1
BITMAP
20
00
A0
00
00
00
20
ENDCHAR
STARTCHAR uni289B
ENCODING 10395
SWIDTH 500 0
DWIDTH 4 0
BBX 3 7 0 -1
BITMAP
A0
00
A0
00
00
00
20
ENDCHAR
STARTCHAR uni289C
ENCODING 10396
SWIDTH 500 0
DWIDTH 4 0
BBX 3 7 0 -1
BITMAP
20
00
20
00
80
00
20
ENDCHAR
STARTCHAR uni289D
ENCODING 10397
SWIDTH 500 0
DWIDTH 4 0
BBX 3 7 0 -1
BITMAP
A0
00
20
00
80
00
20
ENDCHAR
STARTCHAR uni289E
ENCODING 10398
SWIDTH 500 0
DWIDTH 4 0
BBX 3 7 0 -1
BITMAP
20
00
A0
00
80
00
20
ENDCHAR
STARTCHAR uni289F
ENCODING 10399
SWIDTH 500 0
DWIDTH 4 0
BBX 3 7 0 -1
BITMAP
A0
00
A0
00
80
00
20
ENDCHAR
STARTCHAR uni28A0
ENCODING 10400
SWIDTH 500 0
DWIDTH 4 0
BBX 1 3 2 -1
BITMAP
80
00
80
ENDCHAR
STARTCHAR uni28A1
ENCODING 10401
SWIDTH 500 0
DWIDTH 4 0
BBX 3 7 0 -1
BITMAP
80
00
00
00
20
00
20
ENDCHAR
STARTCHAR uni28A2
ENCODING 10402
SWIDTH 500 0
DWIDTH 4 0
BBX 3 5 0 -1
BITMAP
80
00
20
00
20
ENDCHAR
STARTCHAR uni28A3
ENCODING 10403
SWIDTH 500 0
DWIDTH 4 0
BBX 3 7 0 -1
BITMAP
80
00
80
00
20
00
20
ENDCHAR
STARTCHAR uni28A4
ENCODING 10404
SWIDTH 500 0
DWIDTH 4 0
BBX 3 3 0 -1
BITMAP
A0
00
20
ENDCHAR
STARTCHAR uni28A5
ENCODING 10405
SWIDTH 500 0
DWIDTH 4 0
BBX 3 7 0 -1
BITMAP
80
00
00
00
A0
00
20
ENDCHAR
STARTCHAR uni28A6
ENCODING 10406
SWIDTH 500 0
DWIDTH 4 0
BBX 3 5 0 -1
BITMAP
80
00
A0
00
20
ENDCHAR
STARTCHAR uni28A7
ENCODING 10407
SWIDTH 500 0
DWIDTH 4 0
BBX 3 7 0 -1
BITMAP
80
00
80
00
A0
00
20
ENDCHAR
STARTCHAR uni28A8
ENCODING 10408
SWIDTH 500 0
DWIDTH 4 0
BBX 1 7 2 -1
BITMAP
80
00
00
00
80
00
80
ENDCHAR
STARTCHAR uni28A9
ENCODING 10409
SWIDTH 500 0
DWIDTH 4 0
BBX 3 7 0 -1
BITMAP
A0
00
00
00
20
00
20
ENDCHAR
STARTCHAR uni28AA
ENCODING 10410
SWIDTH 500 0
DWIDTH 4 0
BBX 3 7 0 -1
BITMAP
20
00
80
00
20
00
20
ENDCHAR
STARTCHAR uni28AB
ENCODING 10411
SWIDTH 500 0
DWIDTH 4 0
BBX 3 7 0 -1
BITMAP
A0
00
80
00
20
00
20
ENDCHAR
STARTCHAR uni28AC
ENCODING 10412
SWIDTH 500 0
DWIDTH 4 0
BBX 3 7 0 -1
BITMAP
20
00
00
00
A0
00
20
ENDCHAR
STARTCHAR uni28AD
ENCODING 10413
SWIDTH 500 0
DWIDTH 4 0
BBX 3 7 0 -1
BITMAP
A0
00
00
00
A0
00
20
ENDCHAR
STARTCHAR uni28AE
ENCODING 10414
SWIDTH 500 0
DWIDTH 4 0
BBX 3 7 0 -1
BITMAP
20
00
80
00
A0
00
20
ENDCHAR
STARTCHAR uni28AF
ENCODING 10415
SWIDTH 500 0
DWIDTH 4 0
BBX 3 7 0 -1
BITMAP
A0
00
80
00
A0
00
20
ENDCHAR
STARTCHAR uni28B0
ENCODING 10416
SWIDTH 500 0
DWIDTH 4 0
BBX 1 5 2 -1
BITMAP
80
00
80
00
80
ENDCHAR
STARTCHAR uni28B1
ENCODING 10417
SWIDTH 500 0
DWIDTH 4 0
BBX 3 7 0 -1
BITMAP
80
00
20
00
20
00
20
ENDCHAR
STARTCHAR uni28B2
ENCODING 10418
SWIDTH 500 0
DWIDTH 4 0
BBX 3 5 0 -1
BITMAP
A0
00
20
00
20
ENDCHAR
STARTCHAR uni28B3
ENCODING 10419
SWIDTH 500 0
DWIDTH 4 0
BBX 3 7 0 -1
BITMAP
80
00
A0
00
20
00
20
ENDCHAR
STARTCHAR uni28B4
ENCODING 10420
SWIDTH 500 0
DWIDTH 4 0
BBX 3 5 0 -1
BITMAP
20
00
A0
00
20
ENDCHAR
STARTCHAR uni28B5
ENCODING 10421
SWIDTH 500 0
DWIDTH 4 0
BBX 3 7 0 -1
BITMAP
80
00
20
00
A0
00
20
ENDCHAR
STARTCHAR uni28B6
ENCODING 10422
SWIDTH 500 0
DWIDTH 4 0
BBX 3 5 0 -1
BITMAP
A0
00
A0
00
20
ENDCHAR
STARTCHAR uni28B7
ENCODING 10423
SWIDTH 500 0
DWIDTH 4 0
BBX 3 7 0 -1
BITMAP
80
00
A0
00
A0
00
20
ENDCHAR
STARTCHAR uni28B8
ENCODING 10424
SWIDTH 500 0
DWIDTH 4 0
BBX 1 7 2 -1
BITMAP
80
00
80
00
80
00
80
ENDCHAR
STARTCHAR uni28B9
ENCODING 10425
SWIDTH 500 0
DWIDTH 4 0
BBX 3 7 0 -1
BITMAP
A0
00
20
00
20
00
20
ENDCHAR
STARTCHAR uni28BA
ENCODING 10426
SWIDTH 500 0
DWIDTH 4 0
BBX 3 7 0 -1
BITMAP
20
00
A0
00
20
00
20
ENDCHAR
STARTCHAR uni28BB
ENCODING 10427
SWIDTH 500 0
DWIDTH 4 0
BBX 3 7 0 -1
BITMAP
A0
00
A0
00
20
00
20
ENDCHAR
STARTCHAR uni28BC
ENCODING 10428
SWIDTH 500 0
DWIDTH 4 0
BBX 3 7 0 -1
BITMAP
20
00
20
00
A0
00
20
ENDCHAR
STARTCHAR uni28BD
ENCODING 10429
SWIDTH 500 0
DWIDTH 4 0
BBX 3 7 0 -1
BITMAP
A0
00
20
00
A0
00
20
ENDCHAR
STARTCHAR uni28BE
ENCODING 10430
SWIDTH 500 0
DWIDTH 4 0
BBX 3 7 0 -1
BITMAP
20
00
A0
00
A0
00
20
ENDCHAR
STARTCHAR uni28BF
ENCODING 10431
SWIDTH 500 0
DWIDTH 4 0
BBX 3 7 0 -1
BITMAP
A0
00
A0
00
A0
00
20
ENDCHAR
STARTCHAR uni28C0
ENCODING 10432
SWIDTH 500 0
DWIDTH 4 0
BBX 3 1 0 -1
BITMAP
A0
ENDCHAR
STARTCHAR uni28C1
ENCODING 10433
SWIDTH 500 0
DWIDTH 4 0
BBX 3 7 0 -1
BITMAP
80
00
00
00
00
00
A0
ENDCHAR
STARTCHAR uni28C2
ENCODING 10434
SWIDTH 500 0
DWIDTH 4 0
BBX 3 5 0 -1
BITMAP
80
00
00
00
A0
ENDCHAR
STARTCHAR uni28C3
ENCODING 10435
SWIDTH 500 0
DWIDTH 4 0
BBX 3 7 0 -1
BITMAP
80
00
80
00
00
00
A0
ENDCHAR
STARTCHAR uni28C4
ENCODING 10436
SWIDTH 500 0
DWIDTH 4 0
BBX 3 3 0 -1
BITMAP
80
00
A0
ENDCHAR
STARTCHAR uni28C5
ENCODING 10437
SWIDTH 500 0
DWIDTH 4 0
BBX 3 7 0 -1
BITMAP
80
00
00
00
80
00
A0
ENDCHAR
STARTCHAR uni28C6
ENCODING 10438
SWIDTH 500 0
DWIDTH 4 0
BBX 3 5 0 -1
BITMAP
80
00
80
00
A0
ENDCHAR
STARTCHAR uni28C7
ENCODING 10439
SWIDTH 500 0
DWIDTH 4 0
BBX 3 7 0 -1
BITMAP
80
00
80
00
80
00
A0
ENDCHAR
STARTCHAR uni28C8
ENCODING 10440
SWIDTH 500 0
DWIDTH 4 0
BBX 3 7 0 -1
BITMAP
20
00
00
00
00
00
A0
ENDCHAR
STARTCHAR uni28C9
ENCODING 10441
SWIDTH 500 0
DWIDTH 4 0
BBX 3 7 0 -1
BITMAP
A0
00
00
00
00
00
A0
ENDCHAR
STARTCHAR uni28CA
ENCODING 10442
SWIDTH 500 0
DWIDTH 4 0
BBX 3 7 0 -1
BITMAP
20
00
80
00
00
00
A0
ENDCHAR
STARTCHAR uni28CB
ENCODING 10443
SWIDTH 500 0
DWIDTH 4 0
BBX 3 7 0 -1
BITMAP
A0
00
80
00
00
00
A0
ENDCHAR
STARTCHAR uni28CC
ENCODING 10444
SWIDTH 500 0
DWIDTH 4 0
BBX 3 7 0 -1
BITMAP
20
00
00
00
80
00
A0
ENDCHAR
STARTCHAR uni28CD
ENCODING 10445
SWIDTH 500 0
DWIDTH 4 0
BBX 3 7 0 -1
BITMAP
A0
00
00
00
80
00
A0
ENDCHAR
STARTCHAR uni28CE
ENCODING 10446
SWIDTH 500 0
DWIDTH 4 0
BBX 3 7 0 -1
BITMAP
20
00
80
00
80
00
A0
ENDCHAR
STARTCHAR uni28CF
ENCODING 10447
SWIDTH 500 0
DWIDTH 4 0
BBX 3 7 0 -1
BITMAP
A0
00
80
00
80
00
A0
ENDCHAR
STARTCHAR uni28D0
ENCODING 10448
SWIDTH 500 0
DWIDTH 4 0
BBX 3 5 0 -1
BITMAP
20
00
00
00
A0
ENDCHAR
STARTCHAR uni28D1
ENCODING 10449
SWIDTH 500 0
DWIDTH 4 0
BBX 3 7 0 -1
BITMAP
80
00
20
00
00
00
A0
ENDCHAR
STARTCHAR uni28D2
ENCODING 10450
SWIDTH 500 0
DWIDTH 4 0
BBX 3 5 0 -1
BITMAP
A0
00
00
00
A0
ENDCHAR
STARTCHAR uni28D3
ENCODING 10451
SWIDTH 500 0
DWIDTH 4 0
BBX 3 7 0 -1
BITMAP
80
00
A0
00
00
00
A0
ENDCHAR
STARTCHAR uni28D4
ENCODING 10452
SWIDTH 500 0
DWIDTH 4 0
BBX 3 5 0 -1
BITMAP
20
00
80
00
A0
ENDCHAR
STARTCHAR uni28D5
ENCODING 10453
SWIDTH 500 0
DWIDTH 4 0
BBX 3 7 0 -1
BITMAP
80
00
20
00
80
00
A0
ENDCHAR
STARTCHAR uni28D6
ENCODING 10454
SWIDTH 500 0
DWIDTH 4 0
BBX 3 5 0 -1
BITMAP
A0
00
80
00
A0
ENDCHAR
STARTCHAR uni28D7
ENCODING 10455
SWIDTH 500 0
DWIDTH 4 0
BBX 3 7 0 -1
BITMAP
80
00
A0
00
80
00
A0
ENDCHAR
STARTCHAR uni28D8
ENCODING 10456
SWIDTH 500 0
DWIDTH 4 0
BBX 3 7 0 -1
BITMAP
20
00
20
00
00
00
A0
ENDCHAR
STARTCHAR uni28D9
ENCODING 10457
SWIDTH 500 0
DWIDTH 4 0
BBX 3 7 0 -1
BITMAP
A0
00
20
00
00
00
A0
ENDCHAR
STARTCHAR uni28DA
ENCODING 10458
SWIDTH 500 0
DWIDTH 4 0
BBX 3 7 0 -1
BITMAP
A0
00
A0
00
00
00
A0
ENDCHAR
STARTCHAR uni28DB
ENCODING 10459
SWIDTH 500 0
DWIDTH 4 0
BBX 3 7 0 -1
BITMAP
20
00
20
00
80
00
A0
ENDCHAR
STARTCHAR uni28DC
ENCODING 10460
SWIDTH 500 0
DWIDTH 4 0
BBX 3 7 0 -1
BITMAP
A0
00
20
00
80
00
A0
ENDCHAR
STARTCHAR uni28DD
ENCODING 10461
SWIDTH 500 0
DWIDTH 4 0
BBX 3 7 0 -1
BITMAP
A0
00
20
00
80
00
A0
ENDCHAR
STARTCHAR uni28DE
ENCODING 10462
SWIDTH 500 0
DWIDTH 4 0
BBX 3 7 0 -1
BITMAP
20
00
A0
00
80
00
A0
ENDCHAR
STARTCHAR uni28DF
ENCODING 10463
SWIDTH 500 0
DWIDTH 4 0
BBX 3 7 0 -1
BITMAP
A0
00
A0
00
80
00
A0
ENDCHAR
STARTCHAR uni28E0
ENCODING 10464
SWIDTH 500 0
DWIDTH 4 0
BBX 3 3 0 -1
BITMAP
20
00
A0
ENDCHAR
STARTCHAR uni28E1
ENCODING 10465
SWIDTH 500 0
DWIDTH 4 0
BBX 3 7 0 -1
BITMAP
80
00
00
00
20
00
A0
ENDCHAR
STARTCHAR uni28E2
ENCODING 10466
SWIDTH 500 0
DWIDTH 4 0
BBX 3 5 0 -1
BITMAP
80
00
20
00
A0
ENDCHAR
STARTCHAR uni28E3
ENCODING 10467
SWIDTH 500 0
DWIDTH 4 0
BBX 3 7 0 -1
BITMAP
80
00
80
00
20
00
A0
ENDCHAR
STARTCHAR uni28E4
ENCODING 10468
SWIDTH 500 0
DWIDTH 4 0
BBX 3 3 0 -1
BITMAP
A0
00
A0
ENDCHAR
STARTCHAR uni28E5
ENCODING 10469
SWIDTH 500 0
DWIDTH 4 0
BBX 3 7 0 -1
BITMAP
80
00
00
00
A0
00
A0
ENDCHAR
STARTCHAR uni28E6
ENCODING 10470
SWIDTH 500 0
DWIDTH 4 0
BBX 3 5 0 -1
BITMAP
80
00
A0
00
A0
ENDCHAR
STARTCHAR uni28E7
ENCODING 10471
SWIDTH 500 0
DWIDTH 4 0
BBX 3 7 0 -1
BITMAP
80
00
80
00
A0
00
A0
ENDCHAR
STARTCHAR uni28E8
ENCODING 10472
SWIDTH 500 0
DWIDTH 4 0
BBX 3 7 0 -1
BITMAP
20
00
00
00
20
00
A0
ENDCHAR
STARTCHAR uni28E9
ENCODING 10473
SWIDTH 500 0
DWIDTH 4 0
BBX 3 7 0 -1
BITMAP
A0
00
00
00
20
00
A0
ENDCHAR
STARTCHAR uni28EA
ENCODING 10474
SWIDTH 500 0
DWIDTH 4 0
BBX 3 7 0 -1
BITMAP
20
00
80
00
20
00
A0
ENDCHAR
STARTCHAR uni28EB
ENCODING 10475
SWIDTH 500 0
DWIDTH 4 0
BBX 3 7 0 -1
BITMAP
A0
00
80
00
20
00
A0
ENDCHAR
STARTCHAR uni28EC
ENCODING 10476
SWIDTH 500 0
DWIDTH 4 0
BBX 3 7 0 -1
BITMAP
20
00
00
00
A0
00
A0
ENDCHAR
STARTCHAR uni28ED
ENCODING 10477
SWIDTH 500 0
DWIDTH 4 0
BBX 3 7 0 -1
BITMAP
A0
00
00
00
A0
00
A0
ENDCHAR
STARTCHAR uni28EE
ENCODING 10478
SWIDTH 500 0
DWIDTH 4 0
BBX 3 7 0 -1
BITMAP
20
00
80
00
A0
00
A0
ENDCHAR
STARTCHAR uni28EF
ENCODING 10479
SWIDTH 500 0
DWIDTH 4 0
BBX 3 7 0 -1
BITMAP
A0
00
80
00
A0
00
A0
ENDCHAR
STARTCHAR uni28F0
ENCODING 10480
SWIDTH 500 0
DWIDTH 4 0
BBX 3 5 0 -1
BITMAP
20
00
20
00
A0
ENDCHAR
STARTCHAR uni28F1
ENCODING 10481
SWIDTH 500 0
DWIDTH 4 0
BBX 3 7 0 -1
BITMAP
80
00
20
00
20
00
A0
ENDCHAR
STARTCHAR uni28F2
ENCODING 10482
SWIDTH 500 0
DWIDTH 4 0
BBX 3 5 0 -1
BITMAP
A0
00
20
00
A0
ENDCHAR
STARTCHAR uni28F3
ENCODING 10483
SWIDTH 500 0
DWIDTH 4 0
BBX 3 7 0 -1
BITMAP
80
00
A0
00
20
00
A0
ENDCHAR
STARTCHAR uni28F4
ENCODING 10484
SWIDTH 500 0
DWIDTH 4 0
BBX 3 5 0 -1
BITMAP
20
00
A0
00
A0
ENDCHAR
STARTCHAR uni28F5
ENCODING 10485
SWIDTH 500 0
DWIDTH 4 0
BBX 3 7 0 -1
BITMAP
80
00
20
00
A0
00
A0
ENDCHAR
STARTCHAR uni28F6
ENCODING 10486
SWIDTH 500 0
DWIDTH 4 0
BBX 3 5 0 -1
BITMAP
A0
00
A0
00
A0
ENDCHAR
STARTCHAR uni28F7
ENCODING 10487
SWIDTH 500 0
DWIDTH 4 0
BBX 3 7 0 -1
BITMAP
80
00
A0
00
A0
00
A0
ENDCHAR
STARTCHAR uni28F8
ENCODING 10488
SWIDTH 500 0
DWIDTH 4 0
BBX 3 7 0 -1
BITMAP
20
00
20
00
20
00
A0
ENDCHAR
STARTCHAR uni28F9
ENCODING 10489
SWIDTH 500 0
DWIDTH 4 0
BBX 3 7 0 -1
BITMAP
A0
00
20
00
20
00
A0
ENDCHAR
STARTCHAR uni28FA
ENCODING 10490
SWIDTH 500 0
DWIDTH 4 0
BBX 3 7 0 -1
BITMAP
20
00
A0
00
20
00
A0
ENDCHAR
STARTCHAR uni28FB
ENCODING 10491
SWIDTH 500 0
DWIDTH 4 0
BBX 3 7 0 -1
BITMAP
A0
00
A0
00
20
00
A0
ENDCHAR
STARTCHAR uni28FC
ENCODING 10492
SWIDTH 500 0
DWIDTH 4 0
BBX 3 7 0 -1
BITMAP
20
00
20
00
A0
00
A0
ENDCHAR
STARTCHAR uni28FD
ENCODING 10493
SWIDTH 500 0
DWIDTH 4 0
BBX 3 7 0 -1
BITMAP
A0
00
20
00
A0
00
A0
ENDCHAR
STARTCHAR uni28FE
ENCODING 10494
SWIDTH 500 0
DWIDTH 4 0
BBX 3 7 0 -1
BITMAP
20
00
A0
00
A0
00
A0
ENDCHAR
STARTCHAR uni28FF
ENCODING 10495
SWIDTH 500 0
DWIDTH 4 0
BBX 3 7 0 -1
BITMAP
A0
00
A0
00
A0
00
A0
ENDCHAR
STARTCHAR uni2AD3
ENCODING 10963
SWIDTH 500 0
DWIDTH 4 0
BBX 3 7 0 -2
BITMAP
E0
80
E0
00
E0
20
E0
ENDCHAR
STARTCHAR uniE01E
ENCODING 57374
SWIDTH 500 0
DWIDTH 4 0
BBX 3 6 0 -2
BITMAP
60
80
A0
E0
A0
E0
ENDCHAR
STARTCHAR uniF6BE
ENCODING 63166
SWIDTH 500 0
DWIDTH 4 0
BBX 3 5 0 -2
BITMAP
E0
20
20
A0
E0
ENDCHAR
STARTCHAR uniF8E5
ENCODING 63717
SWIDTH 500 0
DWIDTH 4 0
BBX 3 7 0 -1
BITMAP
20
60
60
C0
E0
C0
80
ENDCHAR
STARTCHAR uniF8E6
ENCODING 63718
SWIDTH 500 0
DWIDTH 4 0
BBX 4 6 0 0
BITMAP
10
20
A0
40
40
A0
ENDCHAR
STARTCHAR uniF8E7
ENCODING 63719
SWIDTH 500 0
DWIDTH 4 0
BBX 3 5 0 0
BITMAP
E0
80
80
40
20
ENDCHAR
STARTCHAR uniF8E8
ENCODING 63720
SWIDTH 500 0
DWIDTH 4 0
BBX 4 8 0 -2
BITMAP
70
F0
B0
B0
E0
60
20
10
ENDCHAR
STARTCHAR uniF8E9
ENCODING 63721
SWIDTH 500 0
DWIDTH 4 0
BBX 2 5 1 1
BITMAP
C0
40
C0
80
40
ENDCHAR
STARTCHAR uniF8EA
ENCODING 63722
SWIDTH 500 0
DWIDTH 4 0
BBX 3 7 0 -2
BITMAP
E0
40
40
00
E0
E0
A0
ENDCHAR
STARTCHAR uniF8EB
ENCODING 63723
SWIDTH 500 0
DWIDTH 4 0
BBX 2 8 1 -2
BITMAP
40
80
80
80
80
80
80
80
ENDCHAR
STARTCHAR uniF8EC
ENCODING 63724
SWIDTH 500 0
DWIDTH 4 0
BBX 1 8 1 -2
BITMAP
80
80
80
80
80
80
80
80
ENDCHAR
STARTCHAR uniF8ED
ENCODING 63725
SWIDTH 500 0
DWIDTH 4 0
BBX 2 8 1 -2
BITMAP
80
80
80
80
80
80
80
40
ENDCHAR
STARTCHAR uniF8EE
ENCODING 63726
SWIDTH 500 0
DWIDTH 4 0
BBX 2 8 1 -2
BITMAP
C0
80
80
80
80
80
80
80
ENDCHAR
STARTCHAR uniF8EF
ENCODING 63727
SWIDTH 500 0
DWIDTH 4 0
BBX 1 8 1 -2
BITMAP
80
80
80
80
80
80
80
80
ENDCHAR
STARTCHAR uniF8F0
ENCODING 63728
SWIDTH 500 0
DWIDTH 4 0
BBX 4 3 0 1
BITMAP
60
F0
60
ENDCHAR
STARTCHAR uniF8F1
ENCODING 63729
SWIDTH 500 0
DWIDTH 4 0
BBX 4 6 0 0
BITMAP
30
70
E0
C0
80
80
ENDCHAR
STARTCHAR uniF8F2
ENCODING 63730
SWIDTH 500 0
DWIDTH 4 0
BBX 3 8 0 -2
BITMAP
20
60
C0
80
80
40
40
20
ENDCHAR
STARTCHAR uniF8F3
ENCODING 63731
SWIDTH 500 0
DWIDTH 4 0
BBX 4 8 0 -2
BITMAP
40
C0
F0
E0
C0
C0
60
30
ENDCHAR
STARTCHAR uniF8F4
ENCODING 63732
SWIDTH 500 0
DWIDTH 4 0
BBX 4 8 0 -2
BITMAP
B0
E0
C0
E0
60
30
F0
F0
ENDCHAR
STARTCHAR uniF8F5
ENCODING 63733
SWIDTH 500 0
DWIDTH 4 0
BBX 3 8 0 -2
BITMAP
C0
80
E0
C0
E0
C0
40
20
ENDCHAR
STARTCHAR uniF8F6
ENCODING 63734
SWIDTH 500 0
DWIDTH 4 0
BBX 4 6 0 -1
BITMAP
B0
F0
F0
E0
A0
A0
ENDCHAR
STARTCHAR uniF8F7
ENCODING 63735
SWIDTH 500 0
DWIDTH 4 0
BBX 4 8 0 -2
BITMAP
10
D0
F0
30
60
20
20
10
ENDCHAR
STARTCHAR uniF8F8
ENCODING 63736
SWIDTH 500 0
DWIDTH 4 0
BBX 4 8 0 -2
BITMAP
60
F0
60
60
60
60
F0
60
ENDCHAR
STARTCHAR uniF8F9
ENCODING 63737
SWIDTH 500 0
DWIDTH 4 0
BBX 4 8 0 -2
BITMAP
60
F0
20
40
60
60
F0
90
ENDCHAR
STARTCHAR uniF8FA
ENCODING 63738
SWIDTH 500 0
DWIDTH 4 0
BBX 1 8 1 -2
BITMAP
80
80
80
80
80
80
80
80
ENDCHAR
STARTCHAR uniF8FB
ENCODING 63739
SWIDTH 500 0
DWIDTH 4 0
BBX 2 8 0 -2
BITMAP
40
40
40
40
40
40
40
C0
ENDCHAR
STARTCHAR uniF8FC
ENCODING 63740
SWIDTH 500 0
DWIDTH 4 0
BBX 2 8 0 -2
BITMAP
80
40
40
40
40
40
40
40
ENDCHAR
STARTCHAR uniF8FD
ENCODING 63741
SWIDTH 500 0
DWIDTH 4 0
BBX 2 8 1 -2
BITMAP
80
80
80
40
40
80
80
80
ENDCHAR
STARTCHAR uniF8FE
ENCODING 63742
SWIDTH 500 0
DWIDTH 4 0
BBX 2 8 0 -2
BITMAP
40
40
40
40
40
40
40
80
ENDCHAR
STARTCHAR uniF8FF
ENCODING 63743
SWIDTH 500 0
DWIDTH 4 0
BBX 3 6 0 0
BITMAP
20
40
E0
C0
C0
E0
ENDCHAR
STARTCHAR uniFB00
ENCODING 64256
SWIDTH 500 0
DWIDTH 4 0
BBX 4 6 0 0
BITMAP
F0
A0
F0
A0
A0
A0
ENDCHAR
STARTCHAR fi
ENCODING 64257
SWIDTH 500 0
DWIDTH 4 0
BBX 3 6 0 0
BITMAP
C0
A0
C0
A0
A0
A0
ENDCHAR
STARTCHAR fl
ENCODING 64258
SWIDTH 500 0
DWIDTH 4 0
BBX 3 6 0 0
BITMAP
C0
A0
E0
A0
A0
A0
ENDCHAR
STARTCHAR uniFB03
ENCODING 64259
SWIDTH 500 0
DWIDTH 4 0
BBX 4 6 0 0
BITMAP
E0
D0
E0
D0
D0
D0
ENDCHAR
STARTCHAR uniFB04
ENCODING 64260
SWIDTH 500 0
DWIDTH 4 0
BBX 4 6 0 0
BITMAP
E0
D0
F0
D0
D0
D0
ENDCHAR
ENDFONT
